<svg width="1618" height="846" viewBox="0 0 1618 846" fill="none"
  xmlns="http://www.w3.org/2000/svg">
  <g clip-path="url(#clip0)">
    <rect width="1618" height="846" fill="#F5F6FA"/>
    <path d="M1183 216.5V286C1184.5 314 1194.5 344 1218 359.5C1245.5 377.638 1269.5 374.5 1288.5 372" stroke="url(#paint0_linear)" stroke-width="0.5" stroke-linecap="round"/>
    <path d="M1367 405L1333.9 456.873C1333.64 457.277 1333.54 457.761 1333.61 458.236L1337.25 483.288C1337.39 484.271 1338.24 485 1339.23 485H1377" stroke="url(#paint1_linear)" stroke-width="0.5" stroke-linecap="round"/>
    <path d="M1007 79.5L974.387 131.879C974.137 132.28 974.037 132.756 974.105 133.224L977.875 159.144C977.947 159.635 978.368 160 978.865 160H1068.5" stroke="url(#paint2_linear)" stroke-width="0.5" stroke-linecap="round"/>
    <path d="M602 749.064C546.624 738.952 509.667 806.231 497 845.564H1120C1085.5 807.898 1059.5 739.564 984 691.064C939.651 662.575 848 650.564 739 691.064C701.01 705.18 659.5 759.564 602 749.064Z" fill="#EBEDF4"/>
    <path opacity="0.35" d="M578.652 775.454C523.986 768.062 487.504 817.246 475 846H1090C1055.94 818.464 1030.28 768.509 955.746 733.054C911.967 712.227 821.493 703.447 713.892 733.054C676.39 743.373 635.413 783.13 578.652 775.454Z" fill="#748AA1"/>
    <path opacity="0.35" d="M742 771.286C700.757 763.922 665.434 817.355 656 846H1120C1094.3 818.569 1049.73 731.892 993.5 696.572C960.469 675.824 954 685.116 861 707.53C831.727 714.585 784.825 778.933 742 771.286Z" fill="#748AA1"/>
    <path opacity="0.48" d="M881.737 778.175C863.16 771.589 847.249 819.38 843 845H1052C1040.43 820.465 1020.35 742.941 995.02 711.35C980.142 692.793 977.228 701.104 935.338 721.151C922.153 727.461 901.027 785.015 881.737 778.175Z" fill="#748AA1"/>
    <path opacity="0.78" d="M931.5 752.5C912.923 745.913 831.749 820.38 827.5 846H1117C1105.43 821.466 1079.5 761.5 1026 722.151C1006.84 708.059 1014.23 702.104 972.338 722.151C959.153 728.461 950.79 759.339 931.5 752.5Z" fill="#748AA1"/>
    <path opacity="0.78" d="M632.627 780.361C648.413 775.737 717.389 828.014 721 846H475C484.835 828.776 506.865 786.679 552.326 759.055C568.608 749.162 562.329 744.981 597.925 759.055C609.129 763.485 616.236 785.162 632.627 780.361Z" fill="#748AA1"/>
    <path d="M697.29 817.966C701.145 820.607 720.031 838.318 721 846H657C659.639 838.644 667.501 821.501 675.746 808.867C679.576 803 678.43 802.856 687.98 808.867C690.986 810.759 691.5 814 697.29 817.966Z" fill="#546271"/>
    <path d="M510.001 816C508.122 821.265 498.999 837 496.5 845.587H479C481.639 838.231 497.255 815.633 505.5 803C509.33 797.132 517.5 790 522.5 791C524 791.3 512.5 809 510.001 816Z" fill="#546271"/>
    <path d="M945.999 803.165C949.057 807.921 973.917 837.364 976.552 846H1002C999.218 838.602 973.692 817.207 965 804.5C960.963 798.598 921.271 772.494 916 773.5C914.419 773.802 941.499 796.165 945.999 803.165Z" fill="#546271"/>
    <path d="M1038.5 807.5C1042 818 1049.5 836.5 1054.62 846H1091.5C1085.5 839 1066.86 824.391 1056.5 813C1051.5 807.5 1035.5 791.5 1032.5 787.5C1031.54 786.212 1035.87 799.605 1038.5 807.5Z" fill="#546271"/>
    <path opacity="0.35" d="M570 752C535.405 760.497 507 817.5 497 845L977 845C955.292 817.398 841.72 685.423 782.5 689C708 693.5 714.569 729.446 636 751.999C611.269 759.098 598.5 745 570 752Z" fill="#748AA1"/>
    <path d="M765 665H852L857 708H761L765 665Z" fill="#EBEDF4"/>
    <path d="M769.104 622H847.495L852 665H765.5L769.104 622Z" fill="white"/>
    <path d="M772.25 579H842.938L847 622H769L772.25 579Z" fill="#EBEDF4"/>
    <path d="M774.958 536H839.302L843 579H772L774.958 536Z" fill="white"/>
    <path d="M778.625 493H835.719L839 536H776L778.625 493Z" fill="#EBEDF4"/>
    <path d="M782.292 450H832.135L835 493H780L782.292 450Z" fill="white"/>
    <path opacity="0.37" d="M782.293 450H832.137L833 472H781L782.293 450Z" fill="url(#paint3_linear)"/>
    <path d="M777.876 437.134C778.306 434.186 780.834 432 783.813 432H830.714C833.612 432 836.097 434.072 836.616 436.924L837.71 442.924C838.382 446.608 835.552 450 831.807 450H782.938C779.28 450 776.473 446.754 777.001 443.134L777.876 437.134Z" fill="#BCBEC7"/>
    <path d="M778.366 379.729C778.511 376.524 781.151 374 784.36 374H830.049C833.231 374 835.859 376.484 836.039 379.661L838.641 425.661C838.836 429.103 836.098 432 832.651 432H782.278C778.858 432 776.129 429.145 776.284 425.729L778.366 379.729Z" fill="#BCBEC7"/>
    <path d="M798.708 357.912C798.755 356.843 799.635 356 800.706 356H814.117C815.179 356 816.056 356.83 816.114 357.89L816.884 371.89C816.947 373.036 816.035 374 814.887 374H800.09C798.951 374 798.042 373.05 798.092 371.912L798.708 357.912Z" fill="#BCBEC7"/>
    <path d="M798.708 357.912C798.755 356.843 799.635 356 800.706 356H814.117C815.179 356 816.056 356.83 816.114 357.89L816.884 371.89C816.947 373.036 816.035 374 814.887 374H800.09C798.951 374 798.042 373.05 798.092 371.912L798.708 357.912Z" fill="url(#paint4_linear)" fill-opacity="0.5"/>
    <path d="M787.535 388.732C787.679 385.525 790.32 383 793.529 383H821.087C824.27 383 826.9 385.486 827.078 388.665L828.645 416.665C828.838 420.105 826.1 423 822.655 423H792.275C788.856 423 786.128 420.147 786.281 416.732L787.535 388.732Z" fill="#EBEDF4"/>
    <path d="M786.771 388.691C786.935 385.501 789.569 383 792.763 383H796.273C798.451 383 800.229 384.742 800.273 386.919L800.918 418.919C800.963 421.16 799.159 423 796.919 423H791.318C787.882 423 785.149 420.121 785.326 416.691L786.771 388.691Z" fill="url(#paint5_linear)"/>
    <mask id="mask0" mask-type="alpha" maskUnits="userSpaceOnUse" x="809" y="193" width="560" height="471">
      <path d="M1369 193L809 394.696V411.768L1369 664V193Z" fill="url(#paint6_linear)"/>
    </mask>
    <g mask="url(#mask0)">
      <rect x="1877" y="798" width="1075" height="796" transform="rotate(-180 1877 798)" fill="url(#paint7_linear)"/>
    </g>
    <g style="mix-blend-mode:overlay">
      <path d="M721 383C721 358.699 740.699 339 765 339H886C910.301 339 930 358.699 930 383V624C930 670.392 892.392 708 846 708H796C754.579 708 721 674.421 721 633V383Z" fill="url(#paint8_linear)"/>
    </g>
    <path d="M782.5 450H831.5L855.5 708H761L782.5 450Z" fill="url(#paint9_linear)"/>
    <path d="M1420 506.5L1406.61 509.178C1405.67 509.365 1405 510.186 1405 511.14V543.5" stroke="url(#paint10_linear)" stroke-width="0.5" stroke-linecap="round"/>
    <path d="M1060.5 181.5L1046.62 184.186C1045.68 184.369 1045 185.192 1045 186.15V218C1045 218.552 1045.45 219 1046 219H1150" stroke="url(#paint11_linear)" stroke-width="0.5" stroke-linecap="round"/>
    <path d="M635 539H679.5C680.052 539 680.5 539.448 680.5 540V592" stroke="url(#paint12_linear)" stroke-width="0.5" stroke-linecap="round"/>
    <path d="M635 539H679.5C680.052 539 680.5 539.448 680.5 540V592" stroke="url(#paint13_linear)" stroke-width="0.5" stroke-linecap="round"/>
    <path d="M209 539H253.5C254.052 539 254.5 539.448 254.5 540V592" stroke="url(#paint14_linear)" stroke-width="0.5" stroke-linecap="round"/>
    <path d="M209 539H253.5C254.052 539 254.5 539.448 254.5 540V592" stroke="url(#paint15_linear)" stroke-width="0.5" stroke-linecap="round"/>
    <path d="M681 685.5H703C703.552 685.5 704 685.948 704 686.5V708.5" stroke="url(#paint16_linear)" stroke-width="0.5" stroke-linecap="round"/>
    <path d="M681 685.5H703C703.552 685.5 704 685.948 704 686.5V708.5" stroke="url(#paint17_linear)" stroke-width="0.5" stroke-linecap="round"/>
    <path d="M683 742L704.2 746.336C704.666 746.432 705 746.841 705 747.316V769" stroke="url(#paint18_linear)" stroke-width="0.5" stroke-linecap="round"/>
    <path d="M683 742L704.2 746.336C704.666 746.432 705 746.841 705 747.316V769" stroke="url(#paint19_linear)" stroke-width="0.5" stroke-linecap="round"/>
    <path d="M257 742L278.2 746.336C278.666 746.432 279 746.841 279 747.316V769" stroke="url(#paint20_linear)" stroke-width="0.5" stroke-linecap="round"/>
    <path d="M257 742L278.2 746.336C278.666 746.432 279 746.841 279 747.316V769" stroke="url(#paint21_linear)" stroke-width="0.5" stroke-linecap="round"/>
    <path d="M255 685.5H277C277.552 685.5 278 685.948 278 686.5V708.5" stroke="url(#paint22_linear)" stroke-width="0.5" stroke-linecap="round"/>
    <path d="M255 685.5H277C277.552 685.5 278 685.948 278 686.5V708.5" stroke="url(#paint23_linear)" stroke-width="0.5" stroke-linecap="round"/>
    <mask id="mask1" mask-type="alpha" maskUnits="userSpaceOnUse" x="798" y="394" width="19" height="18">
      <path d="M798.666 396.868C798.736 395.264 800.057 394 801.663 394H813.171C814.764 394 816.079 395.245 816.166 396.835L816.826 408.835C816.921 410.554 815.552 412 813.831 412H801.135C799.426 412 798.063 410.575 798.138 408.868L798.666 396.868Z" fill="white"/>
    </mask>
    <g mask="url(#mask1)">
      <path d="M787.535 388.732C787.679 385.525 790.32 383 793.529 383H821.087C824.27 383 826.9 385.486 827.078 388.665L828.645 416.665C828.838 420.105 826.1 423 822.655 423H792.275C788.856 423 786.128 420.147 786.281 416.732L787.535 388.732Z" fill="white"/>
    </g>
    <path d="M797 382H821.452C823.659 382 825.711 383.137 826.88 385.009V385.009C827.29 385.664 827.578 386.388 827.729 387.146L828.5 391" stroke="white" stroke-width="2" stroke-linecap="round"/>
    <path d="M916.5 745L928.84 725.668C930.577 722.946 933.054 720.775 935.98 719.409L946.5 714.5L961.5 707.5M967.5 705L974.956 701.006C978.842 698.924 983.632 699.632 986.749 702.749L994.5 710.5" stroke="white" stroke-width="2" stroke-linecap="round"/>
    <path d="M979.5 718.5L1003.18 709.517C1006.48 708.266 1010.19 708.845 1012.95 711.039L1028 723" stroke="white" stroke-width="2" stroke-linecap="round"/>
    <path d="M695 786.5L708.204 777.129C709.724 776.05 711.412 775.229 713.198 774.698L726.002 770.891C727.984 770.302 730.057 770.079 732.118 770.234L749 771.5" stroke="white" stroke-width="2" stroke-linecap="round"/>
    <path d="M628 780.5L632.348 779.477C635.074 778.836 637.916 778.878 640.622 779.599L642.047 779.979C643.344 780.325 644.596 780.824 645.777 781.465L661.5 790M561 752.5L565.141 750.756C568.615 749.294 572.476 749.027 576.118 749.998L578 750.5L595 757" stroke="white" stroke-width="2" stroke-linecap="round"/>
    <path d="M884.5 778L879.832 776.772C876.876 775.994 873.734 776.969 871.737 779.285L862.5 790" stroke="white" stroke-width="2" stroke-linecap="round"/>
    <path opacity="0.7" d="M954.5 744L945.351 752.387C943.55 754.038 941.094 754.775 938.681 754.389L930 753" stroke="#31394D" stroke-width="2" stroke-linecap="round"/>
    <path opacity="0.7" d="M676.001 807.5L667.001 822.5L657.001 845M694.001 814.5L706.623 825.77C707.539 826.588 708.363 827.502 709.082 828.497L721.001 845M527 786.5L519 799.5L505.5 826L497.5 845" stroke="#31394D" stroke-width="2" stroke-linecap="round"/>
    <path opacity="0.7" d="M976 845L957.5 817.5L935.919 792.976C935.64 792.659 935.337 792.365 935.011 792.096L909.5 771M1053 845L1042 820L1035 800.5L1030 784M1091.5 845L1074 829L1058 814.5L1043.5 799" stroke="#31394D" stroke-width="2" stroke-linecap="round"/>
    <path d="M826.001 729L847.433 713.75C850.454 711.6 853.836 710.01 857.418 709.055L889.501 700.5M924.501 692L952.438 685.481C953.806 685.162 955.212 685.037 956.615 685.108L970.573 685.824C972.829 685.94 975.029 686.564 977.01 687.648L995 697.5" stroke="white" stroke-width="2" stroke-linecap="round"/>
    <path d="M776.999 421L778.911 380.843C778.968 379.637 779.352 378.47 780.021 377.465V377.465C781.257 375.608 783.34 374.493 785.57 374.493L790 374.493" stroke="#748AA1" stroke-width="2" stroke-linecap="round"/>
    <path d="M808 433.313H830V433.313C833.159 433.313 835.841 435.629 836.301 438.754L837 443.5" stroke="white" stroke-width="2" stroke-linecap="round"/>
    <path d="M822.624 448.955L782.944 448.844C782.28 448.842 781.622 448.71 781.008 448.455V448.455C778.927 447.592 777.662 445.463 777.898 443.223L778.5 437.5" stroke="#748AA1" stroke-width="2" stroke-linecap="round"/>
    <path d="M797.999 492.499L778.859 492.499M811.5 492.499L801.359 492.499M818.999 492.499L814.858 492.499M823.5 492.499L822.358 492.499M827.641 492.499L826.499 492.499" stroke="url(#paint24_linear)" stroke-width="2" stroke-linecap="round"/>
    <path d="M797.242 535.491L776 535.471M812.225 535.505L800.971 535.495M820.548 535.513L815.952 535.509M825.543 535.518L824.275 535.517M830.139 535.522L828.872 535.521" stroke="url(#paint25_linear)" stroke-width="2" stroke-linecap="round"/>
    <path d="M798.342 578.531L773.001 578.471M816.217 578.573L802.791 578.541M826.146 578.596L820.663 578.584M832.105 578.611L830.593 578.607M837.589 578.623L836.076 578.62" stroke="url(#paint26_linear)" stroke-width="2" stroke-linecap="round"/>
    <path d="M794.872 621.536L769 621.471M813.121 621.582L799.414 621.547M823.258 621.607L817.661 621.593M829.342 621.622L827.798 621.618M834.94 621.636L833.396 621.633" stroke="url(#paint27_linear)" stroke-width="2" stroke-linecap="round"/>
    <path d="M792.63 664.553L765.001 664.471M812.119 664.611L797.481 664.567M822.945 664.643L816.967 664.625M829.442 664.662L827.793 664.657M835.421 664.68L833.772 664.675" stroke="url(#paint28_linear)" stroke-width="2" stroke-linecap="round"/>
    <path d="M834.141 431.463L793.455 431.349L785.5 431.464L782.076 431.297C778.841 431.139 776.468 428.195 777 425V425" stroke="#748AA1" stroke-width="2" stroke-linecap="round"/>
    <path d="M801 424H823.219C825.421 424 827.455 422.824 828.553 420.916V420.916C828.901 420.31 829.144 419.649 829.271 418.961L830 415" stroke="white" stroke-width="2" stroke-linecap="round"/>
    <mask id="mask2" mask-type="alpha" maskUnits="userSpaceOnUse" x="1334" y="302" width="180" height="242">
      <path d="M1405.05 543.719V509.686L1430.29 504.373V484.783H1337.82L1334 457.723L1430.62 302H1488.39V448.426H1511.97V484.783H1488.39V504.373L1513.3 509.686V543.719H1405.05ZM1385.8 448.426H1430.29V377.703L1429.29 377.371L1424.81 383.182L1385.8 448.426Z" fill="url(#paint29_linear)"/>
    </mask>
    <g mask="url(#mask2)">
      <rect x="1323" y="315" width="209" height="282" fill="url(#paint30_linear)"/>
      <rect x="1332" y="309" width="209" height="282" fill="url(#paint31_linear)"/>
      <rect x="1332" y="309" width="209" height="282" fill="url(#paint32_linear)"/>
    </g>
    <mask id="mask3" mask-type="alpha" maskUnits="userSpaceOnUse" x="1183" y="125" width="170" height="249">
      <path d="M1268.17 373.691C1241.94 373.691 1221.18 365.391 1205.91 348.789C1190.64 332.188 1183 307.562 1183 274.912V223.945C1183 191.406 1190.64 166.781 1205.91 150.068C1221.18 133.356 1241.82 125 1267.83 125C1293.62 125 1314.15 133.356 1329.43 150.068C1344.81 166.781 1352.5 191.406 1352.5 223.945V274.912C1352.5 307.562 1344.87 332.188 1329.59 348.789C1314.43 365.391 1293.95 373.691 1268.17 373.691ZM1268.17 329.365C1276.69 329.365 1283.22 325.492 1287.76 317.744C1292.29 309.886 1294.56 296.715 1294.56 278.232V220.293C1294.56 202.142 1292.24 189.137 1287.59 181.279C1282.94 173.421 1276.36 169.492 1267.83 169.492C1258.98 169.492 1252.28 173.421 1247.75 181.279C1243.21 189.027 1240.94 202.031 1240.94 220.293V278.232C1240.94 296.826 1243.21 309.997 1247.75 317.744C1252.28 325.492 1259.09 329.365 1268.17 329.365Z" fill="url(#paint33_linear)"/>
    </mask>
    <g mask="url(#mask3)">
      <rect x="1153" y="121" width="209" height="282" fill="url(#paint34_linear)"/>
    </g>
    <mask id="mask4" mask-type="alpha" maskUnits="userSpaceOnUse" x="318" y="536" width="170" height="249">
      <path d="M403.166 784.691C376.936 784.691 356.184 776.391 340.91 759.789C325.637 743.188 318 718.562 318 685.912V634.945C318 602.406 325.637 577.781 340.91 561.068C356.184 544.356 376.825 536 402.834 536C428.622 536 449.152 544.356 464.426 561.068C479.81 577.781 487.502 602.406 487.502 634.945V685.912C487.502 718.562 479.865 743.188 464.592 759.789C449.429 776.391 428.954 784.691 403.166 784.691ZM403.166 740.365C411.688 740.365 418.218 736.492 422.756 728.744C427.294 720.886 429.562 707.715 429.562 689.232V631.293C429.562 613.142 427.238 600.137 422.59 592.279C417.941 584.421 411.356 580.492 402.834 580.492C393.98 580.492 387.284 584.421 382.746 592.279C378.208 600.027 375.939 613.031 375.939 631.293V689.232C375.939 707.826 378.208 720.997 382.746 728.744C387.284 736.492 394.09 740.365 403.166 740.365Z" fill="url(#paint35_linear)"/>
    </mask>
    <g mask="url(#mask4)">
      <rect x="295" y="526" width="209" height="282" fill="url(#paint36_linear)"/>
      <rect x="295" y="526" width="209" height="282" fill="url(#paint37_linear)"/>
    </g>
    <mask id="mask5" mask-type="alpha" maskUnits="userSpaceOnUse" x="100" y="539" width="180" height="242">
      <path d="M171.055 780.719V746.686L196.289 741.373V721.783H103.818L100 694.723L196.621 539H254.395V685.426H277.969V721.783H254.395V741.373L279.297 746.686V780.719H171.055ZM151.797 685.426H196.289V614.703L195.293 614.371L190.811 620.182L151.797 685.426Z" fill="url(#paint38_linear)"/>
    </mask>
    <g mask="url(#mask5)">
      <rect x="100" y="484" width="209" height="282" fill="url(#paint39_linear)"/>
      <rect x="92" y="508" width="209" height="282" fill="url(#paint40_linear)"/>
      <rect x="86" y="528" width="209" height="282" fill="url(#paint41_linear)"/>
    </g>
    <mask id="mask6" mask-type="alpha" maskUnits="userSpaceOnUse" x="974" y="-23" width="180" height="242">
      <path d="M1045.05 218.719V184.686L1070.29 179.373V159.783H977.818L974 132.723L1070.62 -23H1128.39V123.426H1151.97V159.783H1128.39V179.373L1153.3 184.686V218.719H1045.05ZM1025.8 123.426H1070.29V52.7031L1069.29 52.3711L1064.81 58.1816L1025.8 123.426Z" fill="url(#paint42_linear)"/>
    </mask>
    <g mask="url(#mask6)">
      <rect x="955" y="-8" width="209" height="282" fill="url(#paint43_linear)"/>
    </g>
    <mask id="mask7" mask-type="alpha" maskUnits="userSpaceOnUse" x="100" y="539" width="180" height="242">
      <path d="M171.055 780.719V746.686L196.289 741.373V721.783H103.818L100 694.723L196.621 539H254.395V685.426H277.969V721.783H254.395V741.373L279.297 746.686V780.719H171.055ZM151.797 685.426H196.289V614.703L195.293 614.371L190.811 620.182L151.797 685.426Z" fill="url(#paint44_linear)"/>
    </mask>
    <g mask="url(#mask7)">
      <rect x="100" y="484" width="209" height="282" fill="url(#paint45_linear)"/>
      <rect x="92" y="508" width="209" height="282" fill="url(#paint46_linear)"/>
      <rect x="86" y="528" width="209" height="282" fill="url(#paint47_linear)"/>
    </g>
    <path d="M782 450L761 707.5" stroke="#748AA1" stroke-width="2" stroke-linecap="round"/>
    <path d="M832 450L856 708.5" stroke="#748AA1" stroke-width="2" stroke-linecap="round"/>
    <path d="M832.5 450L856.5 708.5" stroke="url(#paint48_linear)" stroke-linecap="round"/>
    <path d="M402.5 536C411.833 535.5 433.592 538.159 449.5 548.5C469.5 561.5 485.5 586 487 622C488.2 650.8 487.5 667.667 487 672.5" stroke="url(#paint49_linear)" stroke-width="0.5" stroke-linecap="round"/>
    <path d="M402.5 536C411.833 535.5 433.592 538.159 449.5 548.5C469.5 561.5 485.5 586 487 622C488.2 650.8 487.5 667.667 487 672.5" stroke="url(#paint50_linear)" stroke-width="0.5" stroke-linecap="round"/>
    <path d="M756.688 129.281C756.688 133.76 755.896 137.688 754.312 141.062C752.729 144.438 750.458 147.042 747.5 148.875C744.562 150.708 741.188 151.625 737.375 151.625C733.604 151.625 730.24 150.719 727.281 148.906C724.323 147.094 722.031 144.51 720.406 141.156C718.781 137.781 717.958 133.906 717.938 129.531V127.281C717.938 122.802 718.74 118.865 720.344 115.469C721.969 112.052 724.25 109.438 727.188 107.625C730.146 105.792 733.521 104.875 737.312 104.875C741.104 104.875 744.469 105.792 747.406 107.625C750.365 109.438 752.646 112.052 754.25 115.469C755.875 118.865 756.688 122.792 756.688 127.25V129.281ZM747.188 127.219C747.188 122.448 746.333 118.823 744.625 116.344C742.917 113.865 740.479 112.625 737.312 112.625C734.167 112.625 731.74 113.854 730.031 116.312C728.323 118.75 727.458 122.333 727.438 127.062V129.281C727.438 133.927 728.292 137.531 730 140.094C731.708 142.656 734.167 143.938 737.375 143.938C740.521 143.938 742.938 142.708 744.625 140.25C746.312 137.771 747.167 134.167 747.188 129.438V127.219ZM800.875 129.281C800.875 133.76 800.083 137.688 798.5 141.062C796.917 144.438 794.646 147.042 791.688 148.875C788.75 150.708 785.375 151.625 781.562 151.625C777.792 151.625 774.427 150.719 771.469 148.906C768.51 147.094 766.219 144.51 764.594 141.156C762.969 137.781 762.146 133.906 762.125 129.531V127.281C762.125 122.802 762.927 118.865 764.531 115.469C766.156 112.052 768.438 109.438 771.375 107.625C774.333 105.792 777.708 104.875 781.5 104.875C785.292 104.875 788.656 105.792 791.594 107.625C794.552 109.438 796.833 112.052 798.438 115.469C800.062 118.865 800.875 122.792 800.875 127.25V129.281ZM791.375 127.219C791.375 122.448 790.521 118.823 788.812 116.344C787.104 113.865 784.667 112.625 781.5 112.625C778.354 112.625 775.927 113.854 774.219 116.312C772.51 118.75 771.646 122.333 771.625 127.062V129.281C771.625 133.927 772.479 137.531 774.188 140.094C775.896 142.656 778.354 143.938 781.562 143.938C784.708 143.938 787.125 142.708 788.812 140.25C790.5 137.771 791.354 134.167 791.375 129.438V127.219ZM817.062 134.969V151H807.688V105.5H825.438C828.854 105.5 831.854 106.125 834.438 107.375C837.042 108.625 839.042 110.406 840.438 112.719C841.833 115.01 842.531 117.625 842.531 120.562C842.531 125.021 841 128.542 837.938 131.125C834.896 133.688 830.677 134.969 825.281 134.969H817.062ZM817.062 127.375H825.438C827.917 127.375 829.802 126.792 831.094 125.625C832.406 124.458 833.062 122.792 833.062 120.625C833.062 118.396 832.406 116.594 831.094 115.219C829.781 113.844 827.969 113.135 825.656 113.094H817.062V127.375ZM872.594 139.062C872.594 137.292 871.969 135.938 870.719 135C869.469 134.042 867.219 133.042 863.969 132C860.719 130.938 858.146 129.896 856.25 128.875C851.083 126.083 848.5 122.323 848.5 117.594C848.5 115.135 849.188 112.948 850.562 111.031C851.958 109.094 853.948 107.583 856.531 106.5C859.135 105.417 862.052 104.875 865.281 104.875C868.531 104.875 871.427 105.469 873.969 106.656C876.51 107.823 878.479 109.479 879.875 111.625C881.292 113.771 882 116.208 882 118.938H872.625C872.625 116.854 871.969 115.24 870.656 114.094C869.344 112.927 867.5 112.344 865.125 112.344C862.833 112.344 861.052 112.833 859.781 113.812C858.51 114.771 857.875 116.042 857.875 117.625C857.875 119.104 858.615 120.344 860.094 121.344C861.594 122.344 863.792 123.281 866.688 124.156C872.021 125.76 875.906 127.75 878.344 130.125C880.781 132.5 882 135.458 882 139C882 142.938 880.51 146.031 877.531 148.281C874.552 150.51 870.542 151.625 865.5 151.625C862 151.625 858.812 150.99 855.938 149.719C853.062 148.427 850.865 146.667 849.344 144.438C847.844 142.208 847.094 139.625 847.094 136.688H856.5C856.5 141.708 859.5 144.219 865.5 144.219C867.729 144.219 869.469 143.771 870.719 142.875C871.969 141.958 872.594 140.688 872.594 139.062ZM896.969 137.031H889.469L888.406 105.5H898.031L896.969 137.031ZM893.219 141.969C894.74 141.969 895.958 142.417 896.875 143.312C897.812 144.208 898.281 145.354 898.281 146.75C898.281 148.125 897.812 149.26 896.875 150.156C895.958 151.052 894.74 151.5 893.219 151.5C891.719 151.5 890.5 151.052 889.562 150.156C888.646 149.26 888.188 148.125 888.188 146.75C888.188 145.375 888.646 144.24 889.562 143.344C890.5 142.427 891.719 141.969 893.219 141.969Z" fill="#1AAB9B"/>
    <path d="M596.939 191.216V189.203H586.621V191.216H590.515V202H592.993V191.216H596.939ZM600.877 193.8V188.5H598.434V202H600.877V195.136C600.971 195.013 601.073 194.901 601.185 194.802C601.302 194.702 601.431 194.617 601.571 194.547C601.724 194.465 601.894 194.403 602.081 194.362C602.269 194.321 602.471 194.301 602.688 194.301C602.969 194.301 603.221 194.339 603.443 194.415C603.666 194.485 603.856 194.597 604.015 194.749C604.173 194.901 604.293 195.101 604.375 195.347C604.463 195.593 604.507 195.886 604.507 196.226V202H606.95V196.243C606.95 195.546 606.865 194.951 606.695 194.459C606.531 193.961 606.3 193.554 606.001 193.237C605.702 192.921 605.345 192.689 604.929 192.543C604.513 192.391 604.056 192.314 603.558 192.314C603.218 192.314 602.896 192.364 602.591 192.464C602.286 192.563 602.008 192.704 601.756 192.886C601.592 193.003 601.434 193.141 601.281 193.299C601.135 193.451 601 193.618 600.877 193.8ZM613.858 202.176C614.778 202.176 615.575 201.997 616.249 201.64C616.923 201.282 617.415 200.884 617.726 200.444L616.504 199.126C616.223 199.489 615.856 199.762 615.405 199.943C614.954 200.125 614.488 200.216 614.008 200.216C613.668 200.216 613.354 200.163 613.067 200.058C612.78 199.952 612.525 199.803 612.303 199.609C612.086 199.422 611.913 199.214 611.784 198.985C611.655 198.751 611.55 198.443 611.468 198.062V198.036H617.919V196.999C617.919 196.302 617.822 195.666 617.629 195.092C617.436 194.512 617.154 194.017 616.785 193.606C616.41 193.196 615.953 192.88 615.414 192.657C614.881 192.429 614.271 192.314 613.586 192.314C612.924 192.314 612.312 192.435 611.749 192.675C611.187 192.915 610.7 193.252 610.29 193.686C609.88 194.119 609.561 194.638 609.332 195.241C609.104 195.839 608.989 196.501 608.989 197.228V197.579C608.989 198.218 609.104 198.818 609.332 199.381C609.566 199.938 609.897 200.421 610.325 200.831C610.753 201.247 611.266 201.575 611.863 201.815C612.461 202.056 613.126 202.176 613.858 202.176ZM613.568 194.292C613.879 194.292 614.151 194.342 614.386 194.441C614.626 194.535 614.828 194.664 614.992 194.828C615.156 194.998 615.285 195.197 615.379 195.426C615.473 195.654 615.52 195.897 615.52 196.155V196.349H611.512C611.57 196.038 611.658 195.757 611.775 195.505C611.893 195.253 612.039 195.036 612.215 194.854C612.385 194.673 612.584 194.535 612.812 194.441C613.041 194.342 613.293 194.292 613.568 194.292ZM633.405 197.307H635.312C636.01 197.307 636.64 197.207 637.202 197.008C637.765 196.809 638.245 196.53 638.644 196.173C639.036 195.821 639.338 195.402 639.549 194.916C639.766 194.43 639.874 193.899 639.874 193.325C639.874 192.71 639.766 192.15 639.549 191.646C639.338 191.143 639.036 190.709 638.644 190.346C638.245 189.988 637.765 189.71 637.202 189.511C636.64 189.306 636.01 189.203 635.312 189.203H630.936V202H633.405V197.307ZM633.405 195.303V191.207H635.312C635.664 191.207 635.969 191.263 636.227 191.374C636.484 191.485 636.701 191.638 636.877 191.831C637.047 192.024 637.173 192.25 637.255 192.508C637.343 192.766 637.387 193.044 637.387 193.343C637.387 193.601 637.343 193.85 637.255 194.09C637.173 194.324 637.047 194.532 636.877 194.714C636.701 194.896 636.484 195.039 636.227 195.145C635.969 195.25 635.664 195.303 635.312 195.303H633.405ZM647.617 202H650.096V201.851C649.973 201.61 649.879 201.323 649.814 200.989C649.75 200.655 649.718 200.233 649.718 199.724V195.646C649.718 195.095 649.615 194.611 649.41 194.195C649.205 193.773 648.921 193.425 648.558 193.149C648.194 192.874 647.764 192.666 647.266 192.525C646.773 192.385 646.24 192.314 645.666 192.314C645.027 192.314 644.459 192.396 643.961 192.561C643.469 192.719 643.053 192.936 642.713 193.211C642.367 193.486 642.104 193.806 641.922 194.169C641.746 194.532 641.658 194.916 641.658 195.32H644.102C644.102 195.15 644.125 194.995 644.172 194.854C644.225 194.714 644.304 194.594 644.409 194.494C644.526 194.383 644.679 194.298 644.866 194.239C645.054 194.175 645.276 194.143 645.534 194.143C645.827 194.143 646.082 194.181 646.299 194.257C646.521 194.327 646.706 194.43 646.853 194.564C646.993 194.693 647.099 194.849 647.169 195.03C647.239 195.206 647.274 195.405 647.274 195.628V196.19H645.912C645.209 196.19 644.585 196.255 644.04 196.384C643.501 196.507 643.047 196.688 642.678 196.929C642.268 197.192 641.96 197.529 641.755 197.939C641.55 198.344 641.447 198.81 641.447 199.337C641.447 199.747 641.529 200.128 641.693 200.479C641.857 200.825 642.086 201.124 642.379 201.376C642.672 201.628 643.021 201.824 643.425 201.965C643.835 202.105 644.283 202.176 644.77 202.176C645.068 202.176 645.347 202.146 645.604 202.088C645.862 202.035 646.1 201.959 646.316 201.859C646.527 201.766 646.721 201.654 646.896 201.525C647.072 201.396 647.228 201.259 647.362 201.112C647.392 201.282 647.427 201.443 647.468 201.596C647.509 201.748 647.559 201.883 647.617 202ZM645.288 200.286C645.06 200.286 644.857 200.26 644.682 200.207C644.512 200.148 644.368 200.072 644.251 199.979C644.134 199.879 644.043 199.759 643.979 199.618C643.92 199.472 643.891 199.313 643.891 199.144C643.891 198.927 643.932 198.728 644.014 198.546C644.096 198.358 644.222 198.197 644.392 198.062C644.562 197.934 644.781 197.834 645.051 197.764C645.32 197.688 645.646 197.649 646.026 197.649H647.274V199.284C647.204 199.407 647.107 199.53 646.984 199.653C646.861 199.771 646.715 199.876 646.545 199.97C646.375 200.063 646.185 200.14 645.974 200.198C645.763 200.257 645.534 200.286 645.288 200.286ZM652.24 197.175V197.359C652.24 198.051 652.328 198.692 652.504 199.284C652.686 199.87 652.943 200.377 653.277 200.805C653.611 201.232 654.013 201.569 654.481 201.815C654.956 202.056 655.489 202.176 656.081 202.176C656.38 202.176 656.658 202.144 656.916 202.079C657.18 202.015 657.42 201.924 657.637 201.807C657.783 201.725 657.921 201.631 658.05 201.525C658.179 201.42 658.302 201.303 658.419 201.174V201.719C658.419 202.041 658.372 202.331 658.278 202.589C658.19 202.847 658.062 203.063 657.892 203.239C657.704 203.433 657.47 203.579 657.188 203.679C656.913 203.778 656.597 203.828 656.239 203.828C656.017 203.828 655.8 203.805 655.589 203.758C655.384 203.717 655.185 203.652 654.991 203.564C654.792 203.477 654.602 203.362 654.42 203.222C654.238 203.087 654.068 202.929 653.91 202.747L652.812 204.232C653.017 204.496 653.263 204.722 653.55 204.909C653.837 205.103 654.142 205.261 654.464 205.384C654.786 205.507 655.111 205.598 655.439 205.656C655.768 205.715 656.075 205.744 656.362 205.744C657.03 205.744 657.64 205.653 658.19 205.472C658.747 205.296 659.225 205.035 659.623 204.689C660.016 204.344 660.32 203.919 660.537 203.415C660.76 202.911 660.871 202.337 660.871 201.692V192.49H658.647L658.551 193.396C658.434 193.249 658.305 193.117 658.164 193C658.023 192.877 657.871 192.771 657.707 192.684C657.49 192.561 657.247 192.47 656.978 192.411C656.714 192.347 656.421 192.314 656.099 192.314C655.501 192.314 654.965 192.432 654.49 192.666C654.016 192.9 653.611 193.231 653.277 193.659C652.943 194.087 652.686 194.6 652.504 195.197C652.328 195.795 652.24 196.454 652.24 197.175ZM654.692 197.359V197.175C654.692 196.776 654.733 196.404 654.815 196.059C654.897 195.707 655.023 195.399 655.193 195.136C655.357 194.878 655.565 194.676 655.817 194.529C656.069 194.377 656.368 194.301 656.714 194.301C656.901 194.301 657.074 194.318 657.232 194.354C657.396 194.389 657.546 194.438 657.681 194.503C657.839 194.579 657.979 194.679 658.103 194.802C658.226 194.925 658.331 195.068 658.419 195.232V199.258C658.337 199.404 658.24 199.536 658.129 199.653C658.018 199.771 657.889 199.87 657.742 199.952C657.602 200.028 657.443 200.087 657.268 200.128C657.098 200.169 656.907 200.189 656.696 200.189C656.351 200.189 656.052 200.116 655.8 199.97C655.548 199.823 655.34 199.621 655.176 199.363C655.012 199.111 654.889 198.815 654.807 198.476C654.73 198.13 654.692 197.758 654.692 197.359ZM667.911 202.176C668.831 202.176 669.628 201.997 670.302 201.64C670.976 201.282 671.468 200.884 671.778 200.444L670.557 199.126C670.275 199.489 669.909 199.762 669.458 199.943C669.007 200.125 668.541 200.216 668.061 200.216C667.721 200.216 667.407 200.163 667.12 200.058C666.833 199.952 666.578 199.803 666.355 199.609C666.139 199.422 665.966 199.214 665.837 198.985C665.708 198.751 665.603 198.443 665.521 198.062V198.036H671.972V196.999C671.972 196.302 671.875 195.666 671.682 195.092C671.488 194.512 671.207 194.017 670.838 193.606C670.463 193.196 670.006 192.88 669.467 192.657C668.934 192.429 668.324 192.314 667.639 192.314C666.977 192.314 666.364 192.435 665.802 192.675C665.239 192.915 664.753 193.252 664.343 193.686C663.933 194.119 663.613 194.638 663.385 195.241C663.156 195.839 663.042 196.501 663.042 197.228V197.579C663.042 198.218 663.156 198.818 663.385 199.381C663.619 199.938 663.95 200.421 664.378 200.831C664.806 201.247 665.318 201.575 665.916 201.815C666.514 202.056 667.179 202.176 667.911 202.176ZM667.621 194.292C667.932 194.292 668.204 194.342 668.438 194.441C668.679 194.535 668.881 194.664 669.045 194.828C669.209 194.998 669.338 195.197 669.432 195.426C669.525 195.654 669.572 195.897 669.572 196.155V196.349H665.564C665.623 196.038 665.711 195.757 665.828 195.505C665.945 195.253 666.092 195.036 666.268 194.854C666.438 194.673 666.637 194.535 666.865 194.441C667.094 194.342 667.346 194.292 667.621 194.292ZM686.421 205.841C686.913 205.841 687.338 205.759 687.695 205.595C688.059 205.431 688.366 205.229 688.618 204.988C688.87 204.748 689.078 204.487 689.242 204.206C689.412 203.925 689.55 203.664 689.655 203.424L694.48 192.49H691.782L689.611 198.08L689.251 199.029L688.987 198.062L686.808 192.49H684.136L688.161 201.596L687.599 202.642C687.528 202.771 687.467 202.87 687.414 202.94C687.367 203.011 687.291 203.116 687.186 203.257C687.08 203.397 686.951 203.526 686.799 203.644C686.652 203.767 686.482 203.828 686.289 203.828C686.195 203.828 686.069 203.822 685.911 203.811C685.759 203.805 685.633 203.802 685.533 203.802L685.234 205.665C685.445 205.724 685.636 205.768 685.806 205.797C685.981 205.826 686.187 205.841 686.421 205.841ZM695.395 197.157V197.342C695.395 198.039 695.494 198.684 695.693 199.275C695.893 199.861 696.186 200.371 696.572 200.805C696.953 201.238 697.422 201.578 697.979 201.824C698.541 202.064 699.18 202.185 699.895 202.185C700.604 202.185 701.236 202.064 701.793 201.824C702.35 201.578 702.818 201.238 703.199 200.805C703.58 200.371 703.87 199.861 704.069 199.275C704.269 198.684 704.368 198.039 704.368 197.342V197.157C704.368 196.466 704.269 195.827 704.069 195.241C703.87 194.649 703.58 194.137 703.199 193.703C702.812 193.27 702.341 192.93 701.784 192.684C701.228 192.438 700.592 192.314 699.877 192.314C699.162 192.314 698.526 192.438 697.97 192.684C697.419 192.93 696.953 193.27 696.572 193.703C696.186 194.137 695.893 194.649 695.693 195.241C695.494 195.827 695.395 196.466 695.395 197.157ZM697.838 197.342V197.157C697.838 196.771 697.876 196.404 697.952 196.059C698.028 195.713 698.148 195.408 698.312 195.145C698.477 194.881 698.688 194.673 698.945 194.521C699.203 194.368 699.514 194.292 699.877 194.292C700.246 194.292 700.56 194.368 700.817 194.521C701.075 194.673 701.286 194.881 701.45 195.145C701.608 195.408 701.726 195.713 701.802 196.059C701.878 196.404 701.916 196.771 701.916 197.157V197.342C701.916 197.74 701.878 198.115 701.802 198.467C701.726 198.812 701.608 199.114 701.45 199.372C701.286 199.636 701.075 199.844 700.817 199.996C700.56 200.148 700.252 200.225 699.895 200.225C699.525 200.225 699.209 200.148 698.945 199.996C698.688 199.844 698.477 199.636 698.312 199.372C698.148 199.114 698.028 198.812 697.952 198.467C697.876 198.115 697.838 197.74 697.838 197.342ZM712.744 202H714.959V192.49H712.507V199.161C712.431 199.313 712.34 199.451 712.234 199.574C712.129 199.697 712.009 199.803 711.874 199.891C711.716 199.99 711.531 200.066 711.32 200.119C711.115 200.172 710.884 200.198 710.626 200.198C710.339 200.198 710.096 200.163 709.896 200.093C709.697 200.022 709.536 199.905 709.413 199.741C709.29 199.583 709.199 199.372 709.141 199.108C709.088 198.845 709.062 198.52 709.062 198.133V192.49H706.618V198.115C706.618 198.836 706.697 199.454 706.855 199.97C707.02 200.479 707.248 200.898 707.541 201.227C707.834 201.561 708.186 201.804 708.596 201.956C709.006 202.108 709.457 202.185 709.949 202.185C710.488 202.185 710.983 202.05 711.435 201.78C711.892 201.511 712.281 201.139 712.604 200.664L712.744 202ZM734.989 192.314C734.351 192.314 733.762 192.47 733.223 192.78C732.684 193.085 732.221 193.507 731.834 194.046L731.816 193.835L731.72 192.49H729.443V202H731.887V196.287C731.998 196.018 732.139 195.783 732.309 195.584C732.479 195.385 732.684 195.221 732.924 195.092C733.123 194.98 733.349 194.898 733.601 194.846C733.858 194.787 734.146 194.758 734.462 194.758C734.767 194.758 735.086 194.778 735.42 194.819C735.76 194.854 736.091 194.91 736.413 194.986L736.773 192.552C736.58 192.493 736.325 192.44 736.009 192.394C735.698 192.341 735.358 192.314 734.989 192.314ZM743.585 202.176C744.505 202.176 745.302 201.997 745.976 201.64C746.649 201.282 747.142 200.884 747.452 200.444L746.23 199.126C745.949 199.489 745.583 199.762 745.132 199.943C744.681 200.125 744.215 200.216 743.734 200.216C743.395 200.216 743.081 200.163 742.794 200.058C742.507 199.952 742.252 199.803 742.029 199.609C741.812 199.422 741.64 199.214 741.511 198.985C741.382 198.751 741.276 198.443 741.194 198.062V198.036H747.646V196.999C747.646 196.302 747.549 195.666 747.355 195.092C747.162 194.512 746.881 194.017 746.512 193.606C746.137 193.196 745.68 192.88 745.141 192.657C744.607 192.429 743.998 192.314 743.312 192.314C742.65 192.314 742.038 192.435 741.476 192.675C740.913 192.915 740.427 193.252 740.017 193.686C739.606 194.119 739.287 194.638 739.059 195.241C738.83 195.839 738.716 196.501 738.716 197.228V197.579C738.716 198.218 738.83 198.818 739.059 199.381C739.293 199.938 739.624 200.421 740.052 200.831C740.479 201.247 740.992 201.575 741.59 201.815C742.188 202.056 742.853 202.176 743.585 202.176ZM743.295 194.292C743.605 194.292 743.878 194.342 744.112 194.441C744.353 194.535 744.555 194.664 744.719 194.828C744.883 194.998 745.012 195.197 745.105 195.426C745.199 195.654 745.246 195.897 745.246 196.155V196.349H741.238C741.297 196.038 741.385 195.757 741.502 195.505C741.619 195.253 741.766 195.036 741.941 194.854C742.111 194.673 742.311 194.535 742.539 194.441C742.768 194.342 743.02 194.292 743.295 194.292ZM749.535 197.166V197.351C749.535 198.042 749.617 198.684 749.781 199.275C749.951 199.861 750.194 200.368 750.511 200.796C750.827 201.229 751.217 201.569 751.68 201.815C752.143 202.056 752.673 202.176 753.271 202.176C753.552 202.176 753.812 202.146 754.053 202.088C754.299 202.035 754.524 201.959 754.729 201.859C754.888 201.777 755.04 201.681 755.187 201.569C755.333 201.458 755.468 201.332 755.591 201.191V205.656H758.043V192.49H755.89L755.74 193.457C755.617 193.305 755.485 193.167 755.345 193.044C755.204 192.921 755.055 192.812 754.896 192.719C754.674 192.59 754.428 192.49 754.158 192.42C753.895 192.35 753.604 192.314 753.288 192.314C752.685 192.314 752.148 192.432 751.68 192.666C751.217 192.9 750.827 193.229 750.511 193.65C750.188 194.078 749.945 194.591 749.781 195.188C749.617 195.786 749.535 196.445 749.535 197.166ZM751.979 197.351V197.166C751.979 196.762 752.014 196.387 752.084 196.041C752.16 195.689 752.277 195.385 752.436 195.127C752.588 194.869 752.784 194.667 753.024 194.521C753.271 194.368 753.566 194.292 753.912 194.292C754.117 194.292 754.305 194.312 754.475 194.354C754.65 194.395 754.806 194.453 754.94 194.529C755.081 194.611 755.204 194.711 755.31 194.828C755.415 194.939 755.509 195.068 755.591 195.215V199.258C755.509 199.41 755.415 199.548 755.31 199.671C755.204 199.788 755.081 199.888 754.94 199.97C754.8 200.046 754.642 200.107 754.466 200.154C754.296 200.195 754.105 200.216 753.895 200.216C753.549 200.216 753.253 200.14 753.007 199.987C752.767 199.835 752.57 199.627 752.418 199.363C752.266 199.105 752.154 198.804 752.084 198.458C752.014 198.112 751.979 197.743 751.979 197.351ZM766.797 202H769.012V192.49H766.56V199.161C766.483 199.313 766.393 199.451 766.287 199.574C766.182 199.697 766.062 199.803 765.927 199.891C765.769 199.99 765.584 200.066 765.373 200.119C765.168 200.172 764.937 200.198 764.679 200.198C764.392 200.198 764.148 200.163 763.949 200.093C763.75 200.022 763.589 199.905 763.466 199.741C763.343 199.583 763.252 199.372 763.193 199.108C763.141 198.845 763.114 198.52 763.114 198.133V192.49H760.671V198.115C760.671 198.836 760.75 199.454 760.908 199.97C761.072 200.479 761.301 200.898 761.594 201.227C761.887 201.561 762.238 201.804 762.648 201.956C763.059 202.108 763.51 202.185 764.002 202.185C764.541 202.185 765.036 202.05 765.487 201.78C765.944 201.511 766.334 201.139 766.656 200.664L766.797 202ZM776.017 202.176C776.937 202.176 777.733 201.997 778.407 201.64C779.081 201.282 779.573 200.884 779.884 200.444L778.662 199.126C778.381 199.489 778.015 199.762 777.563 199.943C777.112 200.125 776.646 200.216 776.166 200.216C775.826 200.216 775.513 200.163 775.226 200.058C774.938 199.952 774.684 199.803 774.461 199.609C774.244 199.422 774.071 199.214 773.942 198.985C773.813 198.751 773.708 198.443 773.626 198.062V198.036H780.077V196.999C780.077 196.302 779.98 195.666 779.787 195.092C779.594 194.512 779.312 194.017 778.943 193.606C778.568 193.196 778.111 192.88 777.572 192.657C777.039 192.429 776.43 192.314 775.744 192.314C775.082 192.314 774.47 192.435 773.907 192.675C773.345 192.915 772.858 193.252 772.448 193.686C772.038 194.119 771.719 194.638 771.49 195.241C771.262 195.839 771.147 196.501 771.147 197.228V197.579C771.147 198.218 771.262 198.818 771.49 199.381C771.725 199.938 772.056 200.421 772.483 200.831C772.911 201.247 773.424 201.575 774.021 201.815C774.619 202.056 775.284 202.176 776.017 202.176ZM775.727 194.292C776.037 194.292 776.31 194.342 776.544 194.441C776.784 194.535 776.986 194.664 777.15 194.828C777.314 194.998 777.443 195.197 777.537 195.426C777.631 195.654 777.678 195.897 777.678 196.155V196.349H773.67C773.729 196.038 773.816 195.757 773.934 195.505C774.051 195.253 774.197 195.036 774.373 194.854C774.543 194.673 774.742 194.535 774.971 194.441C775.199 194.342 775.451 194.292 775.727 194.292ZM788.348 199.39C788.348 199.536 788.31 199.671 788.233 199.794C788.163 199.917 788.055 200.025 787.908 200.119C787.756 200.213 787.56 200.289 787.319 200.348C787.085 200.4 786.81 200.427 786.493 200.427C786.229 200.427 785.972 200.4 785.72 200.348C785.474 200.295 785.254 200.21 785.061 200.093C784.867 199.981 784.709 199.835 784.586 199.653C784.463 199.466 784.393 199.243 784.375 198.985H782.046C782.046 199.372 782.14 199.759 782.327 200.146C782.521 200.526 782.802 200.866 783.171 201.165C783.54 201.47 783.997 201.716 784.542 201.903C785.093 202.091 785.726 202.185 786.44 202.185C787.091 202.185 787.68 202.114 788.207 201.974C788.734 201.827 789.186 201.625 789.561 201.367C789.93 201.109 790.214 200.805 790.413 200.453C790.618 200.096 790.721 199.706 790.721 199.284C790.721 198.827 790.618 198.435 790.413 198.106C790.214 197.772 789.936 197.488 789.578 197.254C789.221 197.025 788.796 196.838 788.304 196.691C787.812 196.545 787.278 196.425 786.704 196.331C786.306 196.272 785.978 196.205 785.72 196.129C785.462 196.047 785.26 195.956 785.113 195.856C784.961 195.763 784.855 195.657 784.797 195.54C784.738 195.417 784.709 195.285 784.709 195.145C784.709 195.004 784.741 194.872 784.806 194.749C784.876 194.62 784.976 194.509 785.104 194.415C785.245 194.31 785.427 194.228 785.649 194.169C785.872 194.11 786.133 194.081 786.432 194.081C786.783 194.081 787.082 194.125 787.328 194.213C787.58 194.301 787.779 194.418 787.926 194.564C788.031 194.676 788.11 194.802 788.163 194.942C788.216 195.077 788.242 195.224 788.242 195.382H790.686C790.686 194.942 790.589 194.535 790.396 194.16C790.202 193.785 789.924 193.46 789.561 193.185C789.191 192.915 788.743 192.704 788.216 192.552C787.688 192.394 787.094 192.314 786.432 192.314C785.799 192.314 785.23 192.394 784.727 192.552C784.223 192.71 783.795 192.924 783.443 193.193C783.092 193.463 782.822 193.776 782.635 194.134C782.447 194.491 782.354 194.866 782.354 195.259C782.354 195.663 782.444 196.021 782.626 196.331C782.813 196.642 783.071 196.914 783.399 197.148C783.728 197.389 784.12 197.594 784.577 197.764C785.04 197.928 785.55 198.065 786.106 198.177C786.546 198.259 786.909 198.341 787.196 198.423C787.483 198.505 787.715 198.593 787.891 198.687C788.061 198.786 788.178 198.892 788.242 199.003C788.312 199.114 788.348 199.243 788.348 199.39ZM797.506 190.161H795.062V192.49H792.892V194.292H795.062V198.616C795.062 199.243 795.145 199.782 795.309 200.233C795.473 200.679 795.707 201.045 796.012 201.332C796.311 201.625 796.671 201.842 797.093 201.982C797.521 202.117 797.995 202.185 798.517 202.185C798.786 202.185 799.059 202.17 799.334 202.141C799.615 202.117 799.885 202.082 800.143 202.035C800.4 201.988 800.644 201.93 800.872 201.859C801.101 201.783 801.3 201.695 801.47 201.596L801.232 199.917C801.121 199.946 800.986 199.976 800.828 200.005C800.676 200.034 800.512 200.061 800.336 200.084C800.154 200.113 799.964 200.137 799.765 200.154C799.571 200.172 799.381 200.181 799.193 200.181C798.936 200.181 798.701 200.151 798.49 200.093C798.285 200.034 798.109 199.935 797.963 199.794C797.816 199.659 797.702 199.478 797.62 199.249C797.544 199.015 797.506 198.725 797.506 198.379V194.292H801.057V192.49H797.506V190.161ZM808.448 202.176C809.368 202.176 810.165 201.997 810.839 201.64C811.513 201.282 812.005 200.884 812.315 200.444L811.094 199.126C810.812 199.489 810.446 199.762 809.995 199.943C809.544 200.125 809.078 200.216 808.598 200.216C808.258 200.216 807.944 200.163 807.657 200.058C807.37 199.952 807.115 199.803 806.893 199.609C806.676 199.422 806.503 199.214 806.374 198.985C806.245 198.751 806.14 198.443 806.058 198.062V198.036H812.509V196.999C812.509 196.302 812.412 195.666 812.219 195.092C812.025 194.512 811.744 194.017 811.375 193.606C811 193.196 810.543 192.88 810.004 192.657C809.471 192.429 808.861 192.314 808.176 192.314C807.514 192.314 806.901 192.435 806.339 192.675C805.776 192.915 805.29 193.252 804.88 193.686C804.47 194.119 804.15 194.638 803.922 195.241C803.693 195.839 803.579 196.501 803.579 197.228V197.579C803.579 198.218 803.693 198.818 803.922 199.381C804.156 199.938 804.487 200.421 804.915 200.831C805.343 201.247 805.855 201.575 806.453 201.815C807.051 202.056 807.716 202.176 808.448 202.176ZM808.158 194.292C808.469 194.292 808.741 194.342 808.976 194.441C809.216 194.535 809.418 194.664 809.582 194.828C809.746 194.998 809.875 195.197 809.969 195.426C810.062 195.654 810.109 195.897 810.109 196.155V196.349H806.102C806.16 196.038 806.248 195.757 806.365 195.505C806.482 195.253 806.629 195.036 806.805 194.854C806.975 194.673 807.174 194.535 807.402 194.441C807.631 194.342 807.883 194.292 808.158 194.292ZM814.39 197.175V197.359C814.39 198.051 814.475 198.692 814.645 199.284C814.814 199.87 815.061 200.377 815.383 200.805C815.699 201.232 816.086 201.569 816.543 201.815C817.006 202.056 817.527 202.176 818.107 202.176C818.641 202.176 819.109 202.073 819.514 201.868C819.918 201.663 820.27 201.376 820.568 201.007L820.691 202H822.897V188.5H820.445V193.343C820.152 193.015 819.815 192.763 819.435 192.587C819.06 192.405 818.623 192.314 818.125 192.314C817.533 192.314 817.006 192.432 816.543 192.666C816.086 192.9 815.696 193.231 815.374 193.659C815.052 194.087 814.806 194.6 814.636 195.197C814.472 195.795 814.39 196.454 814.39 197.175ZM816.833 197.359V197.175C816.833 196.776 816.868 196.404 816.938 196.059C817.009 195.707 817.12 195.399 817.272 195.136C817.425 194.878 817.621 194.676 817.861 194.529C818.107 194.377 818.403 194.301 818.749 194.301C819.165 194.301 819.511 194.392 819.786 194.573C820.062 194.749 820.281 194.998 820.445 195.32V199.17C820.281 199.486 820.059 199.735 819.777 199.917C819.502 200.099 819.153 200.189 818.731 200.189C818.386 200.189 818.093 200.116 817.853 199.97C817.612 199.823 817.416 199.621 817.264 199.363C817.111 199.111 817 198.815 816.93 198.476C816.865 198.13 816.833 197.758 816.833 197.359ZM840.476 200.225C840.083 200.225 839.758 200.146 839.5 199.987C839.248 199.829 839.049 199.618 838.902 199.354C838.75 199.097 838.645 198.798 838.586 198.458C838.527 198.112 838.498 197.755 838.498 197.386V197.122C838.498 196.759 838.527 196.407 838.586 196.067C838.65 195.728 838.759 195.426 838.911 195.162C839.058 194.898 839.257 194.688 839.509 194.529C839.761 194.371 840.08 194.292 840.467 194.292C840.73 194.292 840.974 194.339 841.196 194.433C841.419 194.521 841.609 194.641 841.768 194.793C841.926 194.945 842.046 195.127 842.128 195.338C842.21 195.549 842.245 195.771 842.233 196.006H844.536C844.548 195.443 844.454 194.937 844.255 194.485C844.056 194.028 843.777 193.639 843.42 193.316C843.057 193 842.626 192.754 842.128 192.578C841.63 192.402 841.088 192.314 840.502 192.314C839.77 192.314 839.125 192.44 838.568 192.692C838.018 192.944 837.555 193.287 837.18 193.721C836.805 194.154 836.523 194.664 836.336 195.25C836.148 195.83 836.055 196.454 836.055 197.122V197.386C836.055 198.054 836.148 198.681 836.336 199.267C836.529 199.847 836.813 200.354 837.188 200.787C837.558 201.221 838.021 201.563 838.577 201.815C839.134 202.062 839.781 202.185 840.52 202.185C841.064 202.185 841.58 202.1 842.066 201.93C842.559 201.754 842.989 201.514 843.358 201.209C843.728 200.904 844.018 200.541 844.229 200.119C844.445 199.697 844.548 199.24 844.536 198.748H842.233C842.245 198.971 842.204 199.173 842.11 199.354C842.022 199.536 841.896 199.691 841.732 199.82C841.568 199.949 841.378 200.049 841.161 200.119C840.944 200.189 840.716 200.225 840.476 200.225ZM846.742 197.157V197.342C846.742 198.039 846.842 198.684 847.041 199.275C847.24 199.861 847.533 200.371 847.92 200.805C848.301 201.238 848.77 201.578 849.326 201.824C849.889 202.064 850.527 202.185 851.242 202.185C851.951 202.185 852.584 202.064 853.141 201.824C853.697 201.578 854.166 201.238 854.547 200.805C854.928 200.371 855.218 199.861 855.417 199.275C855.616 198.684 855.716 198.039 855.716 197.342V197.157C855.716 196.466 855.616 195.827 855.417 195.241C855.218 194.649 854.928 194.137 854.547 193.703C854.16 193.27 853.688 192.93 853.132 192.684C852.575 192.438 851.939 192.314 851.225 192.314C850.51 192.314 849.874 192.438 849.317 192.684C848.767 192.93 848.301 193.27 847.92 193.703C847.533 194.137 847.24 194.649 847.041 195.241C846.842 195.827 846.742 196.466 846.742 197.157ZM849.186 197.342V197.157C849.186 196.771 849.224 196.404 849.3 196.059C849.376 195.713 849.496 195.408 849.66 195.145C849.824 194.881 850.035 194.673 850.293 194.521C850.551 194.368 850.861 194.292 851.225 194.292C851.594 194.292 851.907 194.368 852.165 194.521C852.423 194.673 852.634 194.881 852.798 195.145C852.956 195.408 853.073 195.713 853.149 196.059C853.226 196.404 853.264 196.771 853.264 197.157V197.342C853.264 197.74 853.226 198.115 853.149 198.467C853.073 198.812 852.956 199.114 852.798 199.372C852.634 199.636 852.423 199.844 852.165 199.996C851.907 200.148 851.6 200.225 851.242 200.225C850.873 200.225 850.557 200.148 850.293 199.996C850.035 199.844 849.824 199.636 849.66 199.372C849.496 199.114 849.376 198.812 849.3 198.467C849.224 198.115 849.186 197.74 849.186 197.342ZM864.092 202H866.307V192.49H863.854V199.161C863.778 199.313 863.688 199.451 863.582 199.574C863.477 199.697 863.356 199.803 863.222 199.891C863.063 199.99 862.879 200.066 862.668 200.119C862.463 200.172 862.231 200.198 861.974 200.198C861.687 200.198 861.443 200.163 861.244 200.093C861.045 200.022 860.884 199.905 860.761 199.741C860.638 199.583 860.547 199.372 860.488 199.108C860.436 198.845 860.409 198.52 860.409 198.133V192.49H857.966V198.115C857.966 198.836 858.045 199.454 858.203 199.97C858.367 200.479 858.596 200.898 858.889 201.227C859.182 201.561 859.533 201.804 859.943 201.956C860.354 202.108 860.805 202.185 861.297 202.185C861.836 202.185 862.331 202.05 862.782 201.78C863.239 201.511 863.629 201.139 863.951 200.664L864.092 202ZM869.207 188.5V190.495H872.055V200.014H869.207V202H877.249V200.014H874.524V188.5H869.207ZM879.253 197.175V197.359C879.253 198.051 879.338 198.692 879.508 199.284C879.678 199.87 879.924 200.377 880.246 200.805C880.562 201.232 880.949 201.569 881.406 201.815C881.869 202.056 882.391 202.176 882.971 202.176C883.504 202.176 883.973 202.073 884.377 201.868C884.781 201.663 885.133 201.376 885.432 201.007L885.555 202H887.761V188.5H885.309V193.343C885.016 193.015 884.679 192.763 884.298 192.587C883.923 192.405 883.486 192.314 882.988 192.314C882.396 192.314 881.869 192.432 881.406 192.666C880.949 192.9 880.56 193.231 880.237 193.659C879.915 194.087 879.669 194.6 879.499 195.197C879.335 195.795 879.253 196.454 879.253 197.175ZM881.696 197.359V197.175C881.696 196.776 881.731 196.404 881.802 196.059C881.872 195.707 881.983 195.399 882.136 195.136C882.288 194.878 882.484 194.676 882.725 194.529C882.971 194.377 883.267 194.301 883.612 194.301C884.028 194.301 884.374 194.392 884.649 194.573C884.925 194.749 885.145 194.998 885.309 195.32V199.17C885.145 199.486 884.922 199.735 884.641 199.917C884.365 200.099 884.017 200.189 883.595 200.189C883.249 200.189 882.956 200.116 882.716 199.97C882.476 199.823 882.279 199.621 882.127 199.363C881.975 199.111 881.863 198.815 881.793 198.476C881.729 198.13 881.696 197.758 881.696 197.359ZM901.129 202H903.581V195.241C903.663 195.112 903.754 194.995 903.854 194.89C903.953 194.784 904.064 194.693 904.188 194.617C904.34 194.512 904.513 194.433 904.706 194.38C904.905 194.327 905.122 194.301 905.356 194.301C905.638 194.301 905.89 194.33 906.112 194.389C906.335 194.441 906.525 194.538 906.684 194.679C906.842 194.819 906.962 195.013 907.044 195.259C907.132 195.499 907.176 195.807 907.176 196.182V202H909.619V196.146C909.619 195.455 909.537 194.869 909.373 194.389C909.215 193.902 908.992 193.504 908.705 193.193C908.412 192.889 908.066 192.666 907.668 192.525C907.27 192.385 906.83 192.314 906.35 192.314C905.975 192.314 905.62 192.367 905.286 192.473C904.952 192.578 904.645 192.73 904.363 192.93C904.199 193.047 904.044 193.179 903.897 193.325C903.751 193.472 903.616 193.633 903.493 193.809L903.344 192.49H901.129V202ZM911.605 197.157V197.342C911.605 198.039 911.705 198.684 911.904 199.275C912.104 199.861 912.396 200.371 912.783 200.805C913.164 201.238 913.633 201.578 914.189 201.824C914.752 202.064 915.391 202.185 916.105 202.185C916.814 202.185 917.447 202.064 918.004 201.824C918.561 201.578 919.029 201.238 919.41 200.805C919.791 200.371 920.081 199.861 920.28 199.275C920.479 198.684 920.579 198.039 920.579 197.342V197.157C920.579 196.466 920.479 195.827 920.28 195.241C920.081 194.649 919.791 194.137 919.41 193.703C919.023 193.27 918.552 192.93 917.995 192.684C917.438 192.438 916.803 192.314 916.088 192.314C915.373 192.314 914.737 192.438 914.181 192.684C913.63 192.93 913.164 193.27 912.783 193.703C912.396 194.137 912.104 194.649 911.904 195.241C911.705 195.827 911.605 196.466 911.605 197.157ZM914.049 197.342V197.157C914.049 196.771 914.087 196.404 914.163 196.059C914.239 195.713 914.359 195.408 914.523 195.145C914.688 194.881 914.898 194.673 915.156 194.521C915.414 194.368 915.725 194.292 916.088 194.292C916.457 194.292 916.771 194.368 917.028 194.521C917.286 194.673 917.497 194.881 917.661 195.145C917.819 195.408 917.937 195.713 918.013 196.059C918.089 196.404 918.127 196.771 918.127 197.157V197.342C918.127 197.74 918.089 198.115 918.013 198.467C917.937 198.812 917.819 199.114 917.661 199.372C917.497 199.636 917.286 199.844 917.028 199.996C916.771 200.148 916.463 200.225 916.105 200.225C915.736 200.225 915.42 200.148 915.156 199.996C914.898 199.844 914.688 199.636 914.523 199.372C914.359 199.114 914.239 198.812 914.163 198.467C914.087 198.115 914.049 197.74 914.049 197.342ZM927.232 190.161H924.789V192.49H922.618V194.292H924.789V198.616C924.789 199.243 924.871 199.782 925.035 200.233C925.199 200.679 925.434 201.045 925.738 201.332C926.037 201.625 926.397 201.842 926.819 201.982C927.247 202.117 927.722 202.185 928.243 202.185C928.513 202.185 928.785 202.17 929.061 202.141C929.342 202.117 929.611 202.082 929.869 202.035C930.127 201.988 930.37 201.93 930.599 201.859C930.827 201.783 931.026 201.695 931.196 201.596L930.959 199.917C930.848 199.946 930.713 199.976 930.555 200.005C930.402 200.034 930.238 200.061 930.062 200.084C929.881 200.113 929.69 200.137 929.491 200.154C929.298 200.172 929.107 200.181 928.92 200.181C928.662 200.181 928.428 200.151 928.217 200.093C928.012 200.034 927.836 199.935 927.689 199.794C927.543 199.659 927.429 199.478 927.347 199.249C927.271 199.015 927.232 198.725 927.232 198.379V194.292H930.783V192.49H927.232V190.161ZM952.94 197.342V197.157C952.94 196.583 952.888 196.044 952.782 195.54C952.683 195.036 952.527 194.582 952.316 194.178C952.182 193.926 952.026 193.694 951.851 193.483C951.675 193.267 951.479 193.082 951.262 192.93C950.992 192.73 950.685 192.578 950.339 192.473C949.999 192.367 949.624 192.314 949.214 192.314C948.915 192.314 948.637 192.347 948.379 192.411C948.127 192.47 947.893 192.561 947.676 192.684C947.523 192.766 947.38 192.865 947.245 192.982C947.11 193.094 946.984 193.217 946.867 193.352V188.5H944.424V202H946.621L946.735 200.989C946.835 201.118 946.94 201.238 947.052 201.35C947.163 201.455 947.283 201.552 947.412 201.64C947.652 201.815 947.922 201.947 948.221 202.035C948.525 202.129 948.862 202.176 949.231 202.176C949.636 202.176 950.005 202.123 950.339 202.018C950.679 201.918 950.983 201.771 951.253 201.578C951.552 201.373 951.81 201.115 952.026 200.805C952.249 200.494 952.428 200.148 952.562 199.768C952.686 199.422 952.779 199.047 952.844 198.643C952.908 198.232 952.94 197.799 952.94 197.342ZM950.497 197.157V197.342C950.497 197.588 950.485 197.825 950.462 198.054C950.444 198.282 950.412 198.493 950.365 198.687C950.307 198.95 950.219 199.188 950.102 199.398C949.99 199.604 949.844 199.771 949.662 199.899C949.533 199.993 949.381 200.066 949.205 200.119C949.029 200.172 948.833 200.198 948.616 200.198C948.364 200.198 948.139 200.169 947.939 200.11C947.746 200.052 947.576 199.967 947.43 199.855C947.307 199.768 947.198 199.665 947.104 199.548C947.017 199.425 946.938 199.29 946.867 199.144V195.355C946.92 195.244 946.979 195.142 947.043 195.048C947.107 194.948 947.178 194.86 947.254 194.784C947.412 194.626 947.603 194.506 947.825 194.424C948.048 194.342 948.306 194.301 948.599 194.301C948.815 194.301 949.009 194.327 949.179 194.38C949.349 194.427 949.501 194.5 949.636 194.6C949.841 194.758 949.993 194.934 950.093 195.127C950.198 195.314 950.283 195.528 950.348 195.769C950.4 195.974 950.438 196.193 950.462 196.428C950.485 196.662 950.497 196.905 950.497 197.157ZM959.796 202.176C960.716 202.176 961.513 201.997 962.187 201.64C962.86 201.282 963.353 200.884 963.663 200.444L962.441 199.126C962.16 199.489 961.794 199.762 961.343 199.943C960.892 200.125 960.426 200.216 959.945 200.216C959.605 200.216 959.292 200.163 959.005 200.058C958.718 199.952 958.463 199.803 958.24 199.609C958.023 199.422 957.851 199.214 957.722 198.985C957.593 198.751 957.487 198.443 957.405 198.062V198.036H963.856V196.999C963.856 196.302 963.76 195.666 963.566 195.092C963.373 194.512 963.092 194.017 962.723 193.606C962.348 193.196 961.891 192.88 961.352 192.657C960.818 192.429 960.209 192.314 959.523 192.314C958.861 192.314 958.249 192.435 957.687 192.675C957.124 192.915 956.638 193.252 956.228 193.686C955.817 194.119 955.498 194.638 955.27 195.241C955.041 195.839 954.927 196.501 954.927 197.228V197.579C954.927 198.218 955.041 198.818 955.27 199.381C955.504 199.938 955.835 200.421 956.263 200.831C956.69 201.247 957.203 201.575 957.801 201.815C958.398 202.056 959.063 202.176 959.796 202.176ZM959.506 194.292C959.816 194.292 960.089 194.342 960.323 194.441C960.563 194.535 960.766 194.664 960.93 194.828C961.094 194.998 961.223 195.197 961.316 195.426C961.41 195.654 961.457 195.897 961.457 196.155V196.349H957.449C957.508 196.038 957.596 195.757 957.713 195.505C957.83 195.253 957.977 195.036 958.152 194.854C958.322 194.673 958.521 194.535 958.75 194.441C958.979 194.342 959.23 194.292 959.506 194.292ZM979.167 202H981.619V194.292H985.047V192.49H981.619V191.972C981.619 191.69 981.654 191.438 981.725 191.216C981.801 190.993 981.915 190.806 982.067 190.653C982.237 190.472 982.466 190.334 982.753 190.24C983.04 190.146 983.389 190.1 983.799 190.1C984.18 190.1 984.511 190.117 984.792 190.152C985.073 190.188 985.325 190.229 985.548 190.275L985.706 188.359C985.507 188.324 985.313 188.292 985.126 188.263C984.944 188.233 984.763 188.207 984.581 188.184C984.399 188.16 984.212 188.143 984.019 188.131C983.831 188.113 983.635 188.104 983.43 188.104C982.779 188.104 982.19 188.189 981.663 188.359C981.136 188.523 980.688 188.77 980.318 189.098C979.949 189.426 979.665 189.83 979.466 190.311C979.267 190.791 979.167 191.345 979.167 191.972V192.49H976.671V194.292H979.167V202ZM987.279 197.157V197.342C987.279 198.039 987.379 198.684 987.578 199.275C987.777 199.861 988.07 200.371 988.457 200.805C988.838 201.238 989.307 201.578 989.863 201.824C990.426 202.064 991.064 202.185 991.779 202.185C992.488 202.185 993.121 202.064 993.678 201.824C994.234 201.578 994.703 201.238 995.084 200.805C995.465 200.371 995.755 199.861 995.954 199.275C996.153 198.684 996.253 198.039 996.253 197.342V197.157C996.253 196.466 996.153 195.827 995.954 195.241C995.755 194.649 995.465 194.137 995.084 193.703C994.697 193.27 994.226 192.93 993.669 192.684C993.112 192.438 992.477 192.314 991.762 192.314C991.047 192.314 990.411 192.438 989.854 192.684C989.304 192.93 988.838 193.27 988.457 193.703C988.07 194.137 987.777 194.649 987.578 195.241C987.379 195.827 987.279 196.466 987.279 197.157ZM989.723 197.342V197.157C989.723 196.771 989.761 196.404 989.837 196.059C989.913 195.713 990.033 195.408 990.197 195.145C990.361 194.881 990.572 194.673 990.83 194.521C991.088 194.368 991.398 194.292 991.762 194.292C992.131 194.292 992.444 194.368 992.702 194.521C992.96 194.673 993.171 194.881 993.335 195.145C993.493 195.408 993.61 195.713 993.687 196.059C993.763 196.404 993.801 196.771 993.801 197.157V197.342C993.801 197.74 993.763 198.115 993.687 198.467C993.61 198.812 993.493 199.114 993.335 199.372C993.171 199.636 992.96 199.844 992.702 199.996C992.444 200.148 992.137 200.225 991.779 200.225C991.41 200.225 991.094 200.148 990.83 199.996C990.572 199.844 990.361 199.636 990.197 199.372C990.033 199.114 989.913 198.812 989.837 198.467C989.761 198.115 989.723 197.74 989.723 197.342ZM1004.63 202H1006.84V192.49H1004.39V199.161C1004.32 199.313 1004.22 199.451 1004.12 199.574C1004.01 199.697 1003.89 199.803 1003.76 199.891C1003.6 199.99 1003.42 200.066 1003.21 200.119C1003 200.172 1002.77 200.198 1002.51 200.198C1002.22 200.198 1001.98 200.163 1001.78 200.093C1001.58 200.022 1001.42 199.905 1001.3 199.741C1001.17 199.583 1001.08 199.372 1001.03 199.108C1000.97 198.845 1000.95 198.52 1000.95 198.133V192.49H998.503V198.115C998.503 198.836 998.582 199.454 998.74 199.97C998.904 200.479 999.133 200.898 999.426 201.227C999.719 201.561 1000.07 201.804 1000.48 201.956C1000.89 202.108 1001.34 202.185 1001.83 202.185C1002.37 202.185 1002.87 202.05 1003.32 201.78C1003.78 201.511 1004.17 201.139 1004.49 200.664L1004.63 202ZM1009.23 202H1011.69V195.241C1011.77 195.112 1011.86 194.995 1011.96 194.89C1012.06 194.784 1012.17 194.693 1012.29 194.617C1012.45 194.512 1012.62 194.433 1012.81 194.38C1013.01 194.327 1013.23 194.301 1013.46 194.301C1013.74 194.301 1014 194.33 1014.22 194.389C1014.44 194.441 1014.63 194.538 1014.79 194.679C1014.95 194.819 1015.07 195.013 1015.15 195.259C1015.24 195.499 1015.28 195.807 1015.28 196.182V202H1017.72V196.146C1017.72 195.455 1017.64 194.869 1017.48 194.389C1017.32 193.902 1017.1 193.504 1016.81 193.193C1016.52 192.889 1016.17 192.666 1015.77 192.525C1015.38 192.385 1014.94 192.314 1014.46 192.314C1014.08 192.314 1013.73 192.367 1013.39 192.473C1013.06 192.578 1012.75 192.73 1012.47 192.93C1012.3 193.047 1012.15 193.179 1012 193.325C1011.86 193.472 1011.72 193.633 1011.6 193.809L1011.45 192.49H1009.23V202ZM1019.79 197.175V197.359C1019.79 198.051 1019.88 198.692 1020.04 199.284C1020.21 199.87 1020.46 200.377 1020.78 200.805C1021.1 201.232 1021.49 201.569 1021.94 201.815C1022.41 202.056 1022.93 202.176 1023.51 202.176C1024.04 202.176 1024.51 202.073 1024.91 201.868C1025.32 201.663 1025.67 201.376 1025.97 201.007L1026.09 202H1028.3V188.5H1025.85V193.343C1025.55 193.015 1025.22 192.763 1024.83 192.587C1024.46 192.405 1024.02 192.314 1023.53 192.314C1022.93 192.314 1022.41 192.432 1021.94 192.666C1021.49 192.9 1021.1 193.231 1020.77 193.659C1020.45 194.087 1020.21 194.6 1020.04 195.197C1019.87 195.795 1019.79 196.454 1019.79 197.175ZM1022.23 197.359V197.175C1022.23 196.776 1022.27 196.404 1022.34 196.059C1022.41 195.707 1022.52 195.399 1022.67 195.136C1022.83 194.878 1023.02 194.676 1023.26 194.529C1023.51 194.377 1023.8 194.301 1024.15 194.301C1024.57 194.301 1024.91 194.392 1025.19 194.573C1025.46 194.749 1025.68 194.998 1025.85 195.32V199.17C1025.68 199.486 1025.46 199.735 1025.18 199.917C1024.9 200.099 1024.55 200.189 1024.13 200.189C1023.79 200.189 1023.49 200.116 1023.25 199.97C1023.01 199.823 1022.82 199.621 1022.66 199.363C1022.51 199.111 1022.4 198.815 1022.33 198.476C1022.27 198.13 1022.23 197.758 1022.23 197.359Z" fill="#1AAB9B"/>
    <mask id="mask8" mask-type="alpha" maskUnits="userSpaceOnUse" x="526" y="539" width="180" height="242">
      <path d="M597.055 780.719V746.686L622.289 741.373V721.783H529.818L526 694.723L622.621 539H680.395V685.426H703.969V721.783H680.395V741.373L705.297 746.686V780.719H597.055ZM577.797 685.426H622.289V614.703L621.293 614.371L616.811 620.182L577.797 685.426Z" fill="url(#paint51_linear)"/>
    </mask>
    <g mask="url(#mask8)">
      <rect x="511" y="522" width="209" height="282" fill="url(#paint52_linear)"/>
      <rect x="511" y="522" width="209" height="282" fill="url(#paint53_linear)"/>
    </g>
    <g opacity="0.57">
      <mask id="mask9" mask-type="alpha" maskUnits="userSpaceOnUse" x="123" y="61" width="195" height="287">
        <path d="M221.227 347.028C191.129 347.028 167.316 337.503 149.791 318.454C132.265 299.404 123.502 271.147 123.502 233.682V175.2C123.502 137.862 132.265 109.605 149.791 90.4281C167.316 71.2513 191.002 61.663 220.846 61.663C250.437 61.663 273.995 71.2513 291.521 90.4281C309.174 109.605 318 137.862 318 175.2V233.682C318 271.147 309.237 299.404 291.711 318.454C274.313 337.503 250.818 347.028 221.227 347.028ZM221.227 296.165C231.006 296.165 238.499 291.721 243.706 282.831C248.913 273.814 251.516 258.701 251.516 237.492V171.009C251.516 150.181 248.849 135.259 243.515 126.242C238.182 117.225 230.625 112.716 220.846 112.716C210.686 112.716 203.003 117.225 197.796 126.242C192.589 135.132 189.986 150.054 189.986 171.009V237.492C189.986 258.828 192.589 273.941 197.796 282.831C203.003 291.721 210.813 296.165 221.227 296.165Z" fill="url(#paint54_linear)"/>
      </mask>
      <g mask="url(#mask9)">
        <rect x="97.1104" y="50.1882" width="239.821" height="323.586" fill="url(#paint55_linear)"/>
        <rect x="97.1104" y="50.1882" width="239.821" height="323.586" fill="url(#paint56_linear)"/>
      </g>
    </g>
    <g opacity="0.57">
      <mask id="mask10" mask-type="alpha" maskUnits="userSpaceOnUse" x="298" y="241" width="65" height="87">
        <path d="M323.668 327.889V315.655L332.739 313.745V306.704H299.5L298.127 296.976L332.859 241H353.626V293.634H362.1V306.704H353.626V313.745L362.577 315.655V327.889H323.668ZM316.746 293.634H332.739V268.212L332.381 268.093L330.77 270.182L316.746 293.634Z" fill="url(#paint57_linear)"/>
      </mask>
      <g mask="url(#mask10)">
        <rect x="292.735" y="234.889" width="75.1275" height="101.368" fill="url(#paint58_linear)"/>
        <rect x="292.735" y="234.889" width="75.1275" height="101.368" fill="url(#paint59_linear)"/>
      </g>
    </g>
    <g opacity="0.57">
      <mask id="mask11" mask-type="alpha" maskUnits="userSpaceOnUse" x="157" y="156" width="76" height="102">
        <path d="M186.84 257.511V243.219L197.437 240.988V232.761H158.604L157 221.397L197.577 156H221.839V217.492H231.739V232.761H221.839V240.988L232.297 243.219V257.511H186.84ZM178.752 217.492H197.437V187.792L197.019 187.653L195.136 190.093L178.752 217.492Z" fill="url(#paint60_linear)"/>
      </mask>
      <g mask="url(#mask11)">
        <rect x="150.7" y="148.861" width="87.7709" height="118.428" fill="url(#paint61_linear)"/>
        <rect x="150.7" y="148.861" width="87.7709" height="118.428" fill="url(#paint62_linear)"/>
      </g>
    </g>
    <rect x="765" y="241" width="88" height="30" rx="6" fill="#1AAB9B"/>
    <path d="M771.98 259.5V250.969H774.969C776.004 250.969 776.789 251.168 777.324 251.566C777.859 251.961 778.127 252.541 778.127 253.307C778.127 253.725 778.02 254.094 777.805 254.414C777.59 254.73 777.291 254.963 776.908 255.111C777.346 255.221 777.689 255.441 777.939 255.773C778.193 256.105 778.32 256.512 778.32 256.992C778.32 257.812 778.059 258.434 777.535 258.855C777.012 259.277 776.266 259.492 775.297 259.5H771.98ZM773.738 255.785V258.088H775.244C775.658 258.088 775.98 257.99 776.211 257.795C776.445 257.596 776.562 257.322 776.562 256.975C776.562 256.193 776.158 255.797 775.35 255.785H773.738ZM773.738 254.543H775.039C775.926 254.527 776.369 254.174 776.369 253.482C776.369 253.096 776.256 252.818 776.029 252.65C775.807 252.479 775.453 252.393 774.969 252.393H773.738V254.543ZM783.207 259.5C783.129 259.348 783.072 259.158 783.037 258.932C782.627 259.389 782.094 259.617 781.438 259.617C780.816 259.617 780.301 259.438 779.891 259.078C779.484 258.719 779.281 258.266 779.281 257.719C779.281 257.047 779.529 256.531 780.025 256.172C780.525 255.812 781.246 255.631 782.188 255.627H782.967V255.264C782.967 254.971 782.891 254.736 782.738 254.561C782.59 254.385 782.354 254.297 782.029 254.297C781.744 254.297 781.52 254.365 781.355 254.502C781.195 254.639 781.115 254.826 781.115 255.064H779.422C779.422 254.697 779.535 254.357 779.762 254.045C779.988 253.732 780.309 253.488 780.723 253.312C781.137 253.133 781.602 253.043 782.117 253.043C782.898 253.043 783.518 253.24 783.975 253.635C784.436 254.025 784.666 254.576 784.666 255.287V258.035C784.67 258.637 784.754 259.092 784.918 259.4V259.5H783.207ZM781.807 258.322C782.057 258.322 782.287 258.268 782.498 258.158C782.709 258.045 782.865 257.895 782.967 257.707V256.617H782.334C781.486 256.617 781.035 256.91 780.98 257.496L780.975 257.596C780.975 257.807 781.049 257.98 781.197 258.117C781.346 258.254 781.549 258.322 781.807 258.322ZM788.604 258.252C788.916 258.252 789.17 258.166 789.365 257.994C789.561 257.822 789.662 257.594 789.67 257.309H791.258C791.254 257.738 791.137 258.133 790.906 258.492C790.676 258.848 790.359 259.125 789.957 259.324C789.559 259.52 789.117 259.617 788.633 259.617C787.727 259.617 787.012 259.33 786.488 258.756C785.965 258.178 785.703 257.381 785.703 256.365V256.254C785.703 255.277 785.963 254.498 786.482 253.916C787.002 253.334 787.715 253.043 788.621 253.043C789.414 253.043 790.049 253.27 790.525 253.723C791.006 254.172 791.25 254.771 791.258 255.521H789.67C789.662 255.193 789.561 254.928 789.365 254.725C789.17 254.518 788.912 254.414 788.592 254.414C788.197 254.414 787.898 254.559 787.695 254.848C787.496 255.133 787.396 255.598 787.396 256.242V256.418C787.396 257.07 787.496 257.539 787.695 257.824C787.895 258.109 788.197 258.252 788.604 258.252ZM794.527 256.957L793.918 257.566V259.5H792.225V250.5H793.918V255.486L794.246 255.064L795.869 253.16H797.902L795.611 255.803L798.102 259.5H796.156L794.527 256.957ZM803.65 251.602V253.16H804.734V254.402H803.65V257.566C803.65 257.801 803.695 257.969 803.785 258.07C803.875 258.172 804.047 258.223 804.301 258.223C804.488 258.223 804.654 258.209 804.799 258.182V259.465C804.467 259.566 804.125 259.617 803.773 259.617C802.586 259.617 801.98 259.018 801.957 257.818V254.402H801.031V253.16H801.957V251.602H803.65ZM805.238 256.271C805.238 255.643 805.359 255.082 805.602 254.59C805.844 254.098 806.191 253.717 806.645 253.447C807.102 253.178 807.631 253.043 808.232 253.043C809.088 253.043 809.785 253.305 810.324 253.828C810.867 254.352 811.17 255.062 811.232 255.961L811.244 256.395C811.244 257.367 810.973 258.148 810.43 258.738C809.887 259.324 809.158 259.617 808.244 259.617C807.33 259.617 806.6 259.324 806.053 258.738C805.51 258.152 805.238 257.355 805.238 256.348V256.271ZM806.932 256.395C806.932 256.996 807.045 257.457 807.271 257.777C807.498 258.094 807.822 258.252 808.244 258.252C808.654 258.252 808.975 258.096 809.205 257.783C809.436 257.467 809.551 256.963 809.551 256.271C809.551 255.682 809.436 255.225 809.205 254.9C808.975 254.576 808.65 254.414 808.232 254.414C807.818 254.414 807.498 254.576 807.271 254.9C807.045 255.221 806.932 255.719 806.932 256.395ZM822.33 259.5H820.572V255.844H817.145V259.5H815.387V250.969H817.145V254.426H820.572V250.969H822.33V259.5ZM823.496 256.271C823.496 255.643 823.617 255.082 823.859 254.59C824.102 254.098 824.449 253.717 824.902 253.447C825.359 253.178 825.889 253.043 826.49 253.043C827.346 253.043 828.043 253.305 828.582 253.828C829.125 254.352 829.428 255.062 829.49 255.961L829.502 256.395C829.502 257.367 829.23 258.148 828.688 258.738C828.145 259.324 827.416 259.617 826.502 259.617C825.588 259.617 824.857 259.324 824.311 258.738C823.768 258.152 823.496 257.355 823.496 256.348V256.271ZM825.189 256.395C825.189 256.996 825.303 257.457 825.529 257.777C825.756 258.094 826.08 258.252 826.502 258.252C826.912 258.252 827.232 258.096 827.463 257.783C827.693 257.467 827.809 256.963 827.809 256.271C827.809 255.682 827.693 255.225 827.463 254.9C827.232 254.576 826.908 254.414 826.49 254.414C826.076 254.414 825.756 254.576 825.529 254.9C825.303 255.221 825.189 255.719 825.189 256.395ZM832.133 253.16L832.186 253.869C832.635 253.318 833.242 253.043 834.008 253.043C834.824 253.043 835.385 253.365 835.689 254.01C836.135 253.365 836.77 253.043 837.594 253.043C838.281 253.043 838.793 253.244 839.129 253.646C839.465 254.045 839.633 254.646 839.633 255.451V259.5H837.934V255.457C837.934 255.098 837.863 254.836 837.723 254.672C837.582 254.504 837.334 254.42 836.979 254.42C836.471 254.42 836.119 254.662 835.924 255.146L835.93 259.5H834.236V255.463C834.236 255.096 834.164 254.83 834.02 254.666C833.875 254.502 833.629 254.42 833.281 254.42C832.801 254.42 832.453 254.619 832.238 255.018V259.5H830.545V253.16H832.133ZM843.857 259.617C842.928 259.617 842.17 259.332 841.584 258.762C841.002 258.191 840.711 257.432 840.711 256.482V256.318C840.711 255.682 840.834 255.113 841.08 254.613C841.326 254.109 841.674 253.723 842.123 253.453C842.576 253.18 843.092 253.043 843.67 253.043C844.537 253.043 845.219 253.316 845.715 253.863C846.215 254.41 846.465 255.186 846.465 256.189V256.881H842.428C842.482 257.295 842.646 257.627 842.92 257.877C843.197 258.127 843.547 258.252 843.969 258.252C844.621 258.252 845.131 258.016 845.498 257.543L846.33 258.475C846.076 258.834 845.732 259.115 845.299 259.318C844.865 259.518 844.385 259.617 843.857 259.617ZM843.664 254.414C843.328 254.414 843.055 254.527 842.844 254.754C842.637 254.98 842.504 255.305 842.445 255.727H844.801V255.592C844.793 255.217 844.691 254.928 844.496 254.725C844.301 254.518 844.023 254.414 843.664 254.414Z" fill="white"/>
  </g>
  <defs>
    <linearGradient id="paint0_linear" x1="1204" y1="359.5" x2="1266.96" y2="292.502" gradientUnits="userSpaceOnUse">
      <stop stop-color="white"/>
      <stop offset="0.653816" stop-color="white" stop-opacity="0.184332"/>
      <stop offset="1" stop-color="white" stop-opacity="0"/>
    </linearGradient>
    <linearGradient id="paint1_linear" x1="1322.5" y1="467.5" x2="1370.7" y2="476.805" gradientUnits="userSpaceOnUse">
      <stop stop-color="white"/>
      <stop offset="0.653816" stop-color="white" stop-opacity="0.184332"/>
      <stop offset="1" stop-color="white" stop-opacity="0"/>
    </linearGradient>
    <linearGradient id="paint2_linear" x1="972" y1="163" x2="1040.42" y2="85.7084" gradientUnits="userSpaceOnUse">
      <stop stop-color="white"/>
      <stop offset="0.653816" stop-color="white" stop-opacity="0.184332"/>
      <stop offset="1" stop-color="white" stop-opacity="0"/>
    </linearGradient>
    <linearGradient id="paint3_linear" x1="807" y1="450" x2="807" y2="472" gradientUnits="userSpaceOnUse">
      <stop stop-color="#BCBEC7"/>
      <stop offset="1" stop-color="#BCBEC7" stop-opacity="0"/>
    </linearGradient>
    <linearGradient id="paint4_linear" x1="810" y1="377.5" x2="815.5" y2="358.5" gradientUnits="userSpaceOnUse">
      <stop stop-color="#748AA1"/>
      <stop offset="1" stop-color="#748AA1" stop-opacity="0"/>
    </linearGradient>
    <linearGradient id="paint5_linear" x1="780.355" y1="402.5" x2="799.96" y2="404.098" gradientUnits="userSpaceOnUse">
      <stop offset="0.0688134" stop-color="#748AA1"/>
      <stop offset="0.286513" stop-color="#748AA1" stop-opacity="0.701881"/>
      <stop offset="0.525153" stop-color="#748AA1" stop-opacity="0.254466"/>
      <stop offset="0.852574" stop-color="#748AA1" stop-opacity="0"/>
    </linearGradient>
    <linearGradient id="paint6_linear" x1="809" y1="403.727" x2="1380.59" y2="403.727" gradientUnits="userSpaceOnUse">
      <stop stop-color="white"/>
      <stop offset="0.428238" stop-color="white" stop-opacity="0.250003"/>
      <stop offset="0.6782" stop-color="white" stop-opacity="0.0459454"/>
      <stop offset="1" stop-color="white" stop-opacity="0"/>
    </linearGradient>
    <linearGradient id="paint7_linear" x1="1018.03" y1="1798.65" x2="2193.05" y2="333.514" gradientUnits="userSpaceOnUse">
      <stop stop-color="#1AAB9B"/>
      <stop offset="1" stop-color="#1AAB9B" stop-opacity="0"/>
    </linearGradient>
    <linearGradient id="paint8_linear" x1="554" y1="802.867" x2="1012.29" y2="563.205" gradientUnits="userSpaceOnUse">
      <stop stop-color="#1AAB9B"/>
      <stop offset="1" stop-color="#1AAB9B" stop-opacity="0"/>
    </linearGradient>
    <linearGradient id="paint9_linear" x1="612" y1="681" x2="799.99" y2="693.751" gradientUnits="userSpaceOnUse">
      <stop offset="0.30612" stop-color="#748AA1"/>
      <stop offset="0.646637" stop-color="#748AA1" stop-opacity="0.629917"/>
      <stop offset="1" stop-color="#748AA1" stop-opacity="0"/>
    </linearGradient>
    <linearGradient id="paint10_linear" x1="1401.21" y1="535.406" x2="1418.1" y2="537.837" gradientUnits="userSpaceOnUse">
      <stop stop-color="white"/>
      <stop offset="0.653816" stop-color="white" stop-opacity="0.184332"/>
      <stop offset="1" stop-color="white" stop-opacity="0"/>
    </linearGradient>
    <linearGradient id="paint11_linear" x1="1063.5" y1="220" x2="1084.82" y2="183.068" gradientUnits="userSpaceOnUse">
      <stop stop-color="white"/>
      <stop offset="0.653816" stop-color="white" stop-opacity="0.184332"/>
      <stop offset="1" stop-color="white" stop-opacity="0"/>
    </linearGradient>
    <linearGradient id="paint12_linear" x1="680.5" y1="539" x2="647" y2="568" gradientUnits="userSpaceOnUse">
      <stop stop-color="white"/>
      <stop offset="0.653816" stop-color="white" stop-opacity="0.184332"/>
      <stop offset="1" stop-color="white" stop-opacity="0"/>
    </linearGradient>
    <linearGradient id="paint13_linear" x1="680.5" y1="539" x2="647" y2="568" gradientUnits="userSpaceOnUse">
      <stop stop-color="white"/>
      <stop offset="0.653816" stop-color="white" stop-opacity="0.184332"/>
      <stop offset="1" stop-color="white" stop-opacity="0"/>
    </linearGradient>
    <linearGradient id="paint14_linear" x1="254.5" y1="539" x2="221" y2="568" gradientUnits="userSpaceOnUse">
      <stop stop-color="white"/>
      <stop offset="0.653816" stop-color="white" stop-opacity="0.184332"/>
      <stop offset="1" stop-color="white" stop-opacity="0"/>
    </linearGradient>
    <linearGradient id="paint15_linear" x1="254.5" y1="539" x2="221" y2="568" gradientUnits="userSpaceOnUse">
      <stop stop-color="white"/>
      <stop offset="0.653816" stop-color="white" stop-opacity="0.184332"/>
      <stop offset="1" stop-color="white" stop-opacity="0"/>
    </linearGradient>
    <linearGradient id="paint16_linear" x1="704" y1="685.5" x2="689.311" y2="700.312" gradientUnits="userSpaceOnUse">
      <stop stop-color="white"/>
      <stop offset="0.653816" stop-color="white" stop-opacity="0.184332"/>
      <stop offset="1" stop-color="white" stop-opacity="0"/>
    </linearGradient>
    <linearGradient id="paint17_linear" x1="704" y1="685.5" x2="689.311" y2="700.312" gradientUnits="userSpaceOnUse">
      <stop stop-color="white"/>
      <stop offset="0.653816" stop-color="white" stop-opacity="0.184332"/>
      <stop offset="1" stop-color="white" stop-opacity="0"/>
    </linearGradient>
    <linearGradient id="paint18_linear" x1="705" y1="746" x2="690.311" y2="760.812" gradientUnits="userSpaceOnUse">
      <stop stop-color="white"/>
      <stop offset="0.653816" stop-color="white" stop-opacity="0.184332"/>
      <stop offset="1" stop-color="white" stop-opacity="0"/>
    </linearGradient>
    <linearGradient id="paint19_linear" x1="705" y1="746" x2="690.311" y2="760.812" gradientUnits="userSpaceOnUse">
      <stop stop-color="white"/>
      <stop offset="0.653816" stop-color="white" stop-opacity="0.184332"/>
      <stop offset="1" stop-color="white" stop-opacity="0"/>
    </linearGradient>
    <linearGradient id="paint20_linear" x1="279" y1="746" x2="264.311" y2="760.812" gradientUnits="userSpaceOnUse">
      <stop stop-color="white"/>
      <stop offset="0.653816" stop-color="white" stop-opacity="0.184332"/>
      <stop offset="1" stop-color="white" stop-opacity="0"/>
    </linearGradient>
    <linearGradient id="paint21_linear" x1="279" y1="746" x2="264.311" y2="760.812" gradientUnits="userSpaceOnUse">
      <stop stop-color="white"/>
      <stop offset="0.653816" stop-color="white" stop-opacity="0.184332"/>
      <stop offset="1" stop-color="white" stop-opacity="0"/>
    </linearGradient>
    <linearGradient id="paint22_linear" x1="278" y1="685.5" x2="263.311" y2="700.312" gradientUnits="userSpaceOnUse">
      <stop stop-color="white"/>
      <stop offset="0.653816" stop-color="white" stop-opacity="0.184332"/>
      <stop offset="1" stop-color="white" stop-opacity="0"/>
    </linearGradient>
    <linearGradient id="paint23_linear" x1="278" y1="685.5" x2="263.311" y2="700.312" gradientUnits="userSpaceOnUse">
      <stop stop-color="white"/>
      <stop offset="0.653816" stop-color="white" stop-opacity="0.184332"/>
      <stop offset="1" stop-color="white" stop-opacity="0"/>
    </linearGradient>
    <linearGradient id="paint24_linear" x1="833.5" y1="492.5" x2="779" y2="492.5" gradientUnits="userSpaceOnUse">
      <stop stop-color="white" stop-opacity="0"/>
      <stop offset="0.140082" stop-color="#B9C4D0" stop-opacity="0.502732"/>
      <stop offset="1" stop-color="#748AA1"/>
    </linearGradient>
    <linearGradient id="paint25_linear" x1="836.641" y1="535.53" x2="776.156" y2="535.594" gradientUnits="userSpaceOnUse">
      <stop stop-color="white" stop-opacity="0"/>
      <stop offset="0.261872" stop-color="#B9C4D0" stop-opacity="0.502732"/>
      <stop offset="1" stop-color="#748AA1"/>
    </linearGradient>
    <linearGradient id="paint26_linear" x1="845.346" y1="578.643" x2="773.188" y2="578.868" gradientUnits="userSpaceOnUse">
      <stop stop-color="white" stop-opacity="0"/>
      <stop offset="0.481349" stop-color="#B9C4D0" stop-opacity="0.502732"/>
      <stop offset="1" stop-color="#748AA1"/>
    </linearGradient>
    <linearGradient id="paint27_linear" x1="842.859" y1="621.657" x2="769.192" y2="621.907" gradientUnits="userSpaceOnUse">
      <stop stop-color="white" stop-opacity="0"/>
      <stop offset="0.571855" stop-color="#B9C4D0" stop-opacity="0.502732"/>
      <stop offset="1" stop-color="#748AA1"/>
    </linearGradient>
    <linearGradient id="paint28_linear" x1="843.878" y1="664.706" x2="765.206" y2="665.043" gradientUnits="userSpaceOnUse">
      <stop stop-color="white" stop-opacity="0"/>
      <stop offset="0.571855" stop-color="#B9C4D0" stop-opacity="0.502732"/>
      <stop offset="1" stop-color="#748AA1"/>
    </linearGradient>
    <linearGradient id="paint29_linear" x1="1169.02" y1="962.219" x2="1486.52" y2="456.719" gradientUnits="userSpaceOnUse">
      <stop stop-color="white"/>
      <stop offset="1" stop-color="white" stop-opacity="0"/>
    </linearGradient>
    <linearGradient id="paint30_linear" x1="1156" y1="669.5" x2="1553.5" y2="397.5" gradientUnits="userSpaceOnUse">
      <stop stop-color="#1AAB9B"/>
      <stop offset="1" stop-color="#1AAB9B" stop-opacity="0"/>
    </linearGradient>
    <linearGradient id="paint31_linear" x1="1165" y1="663.5" x2="1562.5" y2="391.5" gradientUnits="userSpaceOnUse">
      <stop stop-color="#1AAB9B"/>
      <stop offset="1" stop-color="#1AAB9B" stop-opacity="0"/>
    </linearGradient>
    <linearGradient id="paint32_linear" x1="1165" y1="663.5" x2="1562.5" y2="391.5" gradientUnits="userSpaceOnUse">
      <stop stop-color="#1AAB9B"/>
      <stop offset="1" stop-color="#1AAB9B" stop-opacity="0"/>
    </linearGradient>
    <linearGradient id="paint33_linear" x1="1154.13" y1="488.705" x2="1282.13" y2="305.705" gradientUnits="userSpaceOnUse">
      <stop stop-color="white"/>
      <stop offset="1" stop-color="white" stop-opacity="0"/>
    </linearGradient>
    <linearGradient id="paint34_linear" x1="986" y1="475.5" x2="1383.5" y2="203.5" gradientUnits="userSpaceOnUse">
      <stop stop-color="#1AAB9B"/>
      <stop offset="1" stop-color="#1AAB9B" stop-opacity="0"/>
    </linearGradient>
    <linearGradient id="paint35_linear" x1="950.5" y1="358" x2="369" y2="642.5" gradientUnits="userSpaceOnUse">
      <stop stop-color="white"/>
      <stop offset="0.580968" stop-color="white" stop-opacity="0.800527"/>
      <stop offset="0.633868" stop-color="white" stop-opacity="0.684888"/>
      <stop offset="1" stop-color="white" stop-opacity="0"/>
    </linearGradient>
    <linearGradient id="paint36_linear" x1="128" y1="880.5" x2="525.5" y2="608.5" gradientUnits="userSpaceOnUse">
      <stop stop-color="#1AAB9B"/>
      <stop offset="1" stop-color="#1AAB9B" stop-opacity="0"/>
    </linearGradient>
    <linearGradient id="paint37_linear" x1="128" y1="880.5" x2="525.5" y2="608.5" gradientUnits="userSpaceOnUse">
      <stop stop-color="#1AAB9B"/>
      <stop offset="1" stop-color="#1AAB9B" stop-opacity="0"/>
    </linearGradient>
    <linearGradient id="paint38_linear" x1="484.5" y1="508" x2="137" y2="642.5" gradientUnits="userSpaceOnUse">
      <stop stop-color="white"/>
      <stop stop-color="white" stop-opacity="0.761869"/>
      <stop offset="0.547711" stop-color="white" stop-opacity="0.128674"/>
      <stop offset="1" stop-color="white" stop-opacity="0"/>
    </linearGradient>
    <linearGradient id="paint39_linear" x1="-67" y1="838.5" x2="330.5" y2="566.5" gradientUnits="userSpaceOnUse">
      <stop stop-color="#1AAB9B"/>
      <stop offset="1" stop-color="#1AAB9B" stop-opacity="0"/>
    </linearGradient>
    <linearGradient id="paint40_linear" x1="-75" y1="862.5" x2="322.5" y2="590.5" gradientUnits="userSpaceOnUse">
      <stop stop-color="#1AAB9B"/>
      <stop offset="1" stop-color="#1AAB9B" stop-opacity="0"/>
    </linearGradient>
    <linearGradient id="paint41_linear" x1="-81" y1="882.5" x2="316.5" y2="610.5" gradientUnits="userSpaceOnUse">
      <stop stop-color="#1AAB9B"/>
      <stop offset="1" stop-color="#1AAB9B" stop-opacity="0"/>
    </linearGradient>
    <linearGradient id="paint42_linear" x1="1006.35" y1="229.719" x2="1129.35" y2="29.2188" gradientUnits="userSpaceOnUse">
      <stop stop-color="white"/>
      <stop stop-color="white" stop-opacity="0.761869"/>
      <stop offset="0.547711" stop-color="white" stop-opacity="0.128674"/>
      <stop offset="1" stop-color="white" stop-opacity="0"/>
    </linearGradient>
    <linearGradient id="paint43_linear" x1="788" y1="346.5" x2="1185.5" y2="74.5" gradientUnits="userSpaceOnUse">
      <stop stop-color="#1AAB9B"/>
      <stop offset="1" stop-color="#1AAB9B" stop-opacity="0"/>
    </linearGradient>
    <linearGradient id="paint44_linear" x1="484.5" y1="508" x2="137" y2="642.5" gradientUnits="userSpaceOnUse">
      <stop stop-color="white"/>
      <stop stop-color="white" stop-opacity="0.761869"/>
      <stop offset="0.547711" stop-color="white" stop-opacity="0.128674"/>
      <stop offset="1" stop-color="white" stop-opacity="0"/>
    </linearGradient>
    <linearGradient id="paint45_linear" x1="-67" y1="838.5" x2="330.5" y2="566.5" gradientUnits="userSpaceOnUse">
      <stop stop-color="#1AAB9B"/>
      <stop offset="1" stop-color="#1AAB9B" stop-opacity="0"/>
    </linearGradient>
    <linearGradient id="paint46_linear" x1="-75" y1="862.5" x2="322.5" y2="590.5" gradientUnits="userSpaceOnUse">
      <stop stop-color="#1AAB9B"/>
      <stop offset="1" stop-color="#1AAB9B" stop-opacity="0"/>
    </linearGradient>
    <linearGradient id="paint47_linear" x1="-81" y1="882.5" x2="316.5" y2="610.5" gradientUnits="userSpaceOnUse">
      <stop stop-color="#1AAB9B"/>
      <stop offset="1" stop-color="#1AAB9B" stop-opacity="0"/>
    </linearGradient>
    <linearGradient id="paint48_linear" x1="844.5" y1="450" x2="844.5" y2="708.5" gradientUnits="userSpaceOnUse">
      <stop stop-color="white" stop-opacity="0"/>
      <stop offset="0.359375" stop-color="white" stop-opacity="0.276042"/>
      <stop offset="0.479167" stop-color="white" stop-opacity="0.823425"/>
      <stop offset="1" stop-color="white"/>
    </linearGradient>
    <linearGradient id="paint49_linear" x1="487.663" y1="535.923" x2="409.051" y2="585.351" gradientUnits="userSpaceOnUse">
      <stop stop-color="white"/>
      <stop offset="0.653816" stop-color="white" stop-opacity="0.184332"/>
      <stop offset="1" stop-color="white" stop-opacity="0"/>
    </linearGradient>
    <linearGradient id="paint50_linear" x1="487.663" y1="535.923" x2="409.051" y2="585.351" gradientUnits="userSpaceOnUse">
      <stop stop-color="white"/>
      <stop offset="0.653816" stop-color="white" stop-opacity="0.184332"/>
      <stop offset="1" stop-color="white" stop-opacity="0"/>
    </linearGradient>
    <linearGradient id="paint51_linear" x1="879.5" y1="514.5" x2="560.5" y2="753" gradientUnits="userSpaceOnUse">
      <stop stop-color="white"/>
      <stop offset="1" stop-color="white" stop-opacity="0"/>
    </linearGradient>
    <linearGradient id="paint52_linear" x1="344" y1="876.5" x2="741.5" y2="604.5" gradientUnits="userSpaceOnUse">
      <stop stop-color="#1AAB9B"/>
      <stop offset="1" stop-color="#1AAB9B" stop-opacity="0"/>
    </linearGradient>
    <linearGradient id="paint53_linear" x1="344" y1="876.5" x2="741.5" y2="604.5" gradientUnits="userSpaceOnUse">
      <stop stop-color="#1AAB9B"/>
      <stop offset="1" stop-color="#1AAB9B" stop-opacity="0"/>
    </linearGradient>
    <linearGradient id="paint54_linear" x1="849.275" y1="-142.586" x2="182.023" y2="183.868" gradientUnits="userSpaceOnUse">
      <stop stop-color="white"/>
      <stop offset="0.580968" stop-color="white" stop-opacity="0.800527"/>
      <stop offset="0.633868" stop-color="white" stop-opacity="0.684888"/>
      <stop offset="1" stop-color="white" stop-opacity="0"/>
    </linearGradient>
    <linearGradient id="paint55_linear" x1="-94.5168" y1="456.966" x2="361.602" y2="144.854" gradientUnits="userSpaceOnUse">
      <stop stop-color="#1AAB9B"/>
      <stop offset="1" stop-color="#1AAB9B" stop-opacity="0"/>
    </linearGradient>
    <linearGradient id="paint56_linear" x1="-94.5168" y1="456.966" x2="361.602" y2="144.854" gradientUnits="userSpaceOnUse">
      <stop stop-color="#1AAB9B"/>
      <stop offset="1" stop-color="#1AAB9B" stop-opacity="0"/>
    </linearGradient>
    <linearGradient id="paint57_linear" x1="425.197" y1="232.193" x2="310.528" y2="317.925" gradientUnits="userSpaceOnUse">
      <stop stop-color="white"/>
      <stop offset="1" stop-color="white" stop-opacity="0"/>
    </linearGradient>
    <linearGradient id="paint58_linear" x1="232.705" y1="362.318" x2="375.591" y2="264.545" gradientUnits="userSpaceOnUse">
      <stop stop-color="#1AAB9B"/>
      <stop offset="1" stop-color="#1AAB9B" stop-opacity="0"/>
    </linearGradient>
    <linearGradient id="paint59_linear" x1="232.705" y1="362.318" x2="375.591" y2="264.545" gradientUnits="userSpaceOnUse">
      <stop stop-color="#1AAB9B"/>
      <stop offset="1" stop-color="#1AAB9B" stop-opacity="0"/>
    </linearGradient>
    <linearGradient id="paint60_linear" x1="305.455" y1="145.711" x2="171.489" y2="245.871" gradientUnits="userSpaceOnUse">
      <stop stop-color="white"/>
      <stop offset="1" stop-color="white" stop-opacity="0"/>
    </linearGradient>
    <linearGradient id="paint61_linear" x1="80.5675" y1="297.735" x2="247.5" y2="183.507" gradientUnits="userSpaceOnUse">
      <stop stop-color="#1AAB9B"/>
      <stop offset="1" stop-color="#1AAB9B" stop-opacity="0"/>
    </linearGradient>
    <linearGradient id="paint62_linear" x1="80.5675" y1="297.735" x2="247.5" y2="183.507" gradientUnits="userSpaceOnUse">
      <stop stop-color="#1AAB9B"/>
      <stop offset="1" stop-color="#1AAB9B" stop-opacity="0"/>
    </linearGradient>
    <clipPath id="clip0">
      <rect width="1618" height="846" fill="white"/>
    </clipPath>
  </defs>
</svg>
