<svg width="12" height="12" viewBox="0 0 12 12" fill="none" xmlns="http://www.w3.org/2000/svg">
<g clip-path="url(#clip0)">
<path d="M10.0024 5.00173C10.5533 5.00101 11 5.44708 11 5.99805C11 6.54902 10.5534 6.99625 10.0024 6.99697L0.99762 7.00867C0.446649 7.00938 -7.23333e-07 6.56331 -6.99249e-07 6.01234C-6.75165e-07 5.46137 0.446649 5.01414 0.997619 5.01343L10.0024 5.00173Z" fill="#2F80ED"/>
<path d="M7.78982 10.2856C7.40073 10.6757 6.76948 10.6762 6.37989 10.2866C5.99029 9.89696 5.98988 9.2649 6.37897 8.87479L9.95233 5.29213C10.3414 4.90203 10.9727 4.90162 11.3623 5.29121C11.7519 5.68081 11.7523 6.31288 11.3632 6.70298L7.78982 10.2856Z" fill="#2F80ED"/>
<path d="M6.35691 3.11624C5.96681 2.72715 5.9664 2.0959 6.356 1.70631C6.74559 1.31671 7.37766 1.3163 7.76776 1.70539L11.366 5.29426C11.7561 5.68335 11.7565 6.31459 11.3669 6.70419C10.9773 7.09378 10.3452 7.09419 9.95513 6.70511L6.35691 3.11624Z" fill="#2F80ED"/>
</g>
<defs>
<clipPath id="clip0">
<rect width="12" height="12" fill="white"/>
</clipPath>
</defs>
</svg>
