<svg width="30" height="21" viewBox="0 0 30 21" fill="none"
  xmlns="http://www.w3.org/2000/svg">
  <path d="M30 15.7188C30 18.5664 28.4189 20.875 25.3125 20.875H4.6875C1.58109 20.875 0 18.5664 0 15.7188V5.40625C0 2.55859 1.58109 0.25 4.6875 0.25H25.3125C28.4189 0.25 30 2.55859 30 5.40625V15.7188Z" fill="#EC1C24"/>
  <path d="M6.07996 3.36914L7.08262 5.40539L9.33027 5.73117L7.70512 7.3132L8.08809 9.55383L6.07996 8.4968L4.07137 9.55383L4.4548 7.3132L2.83105 5.73117L5.07496 5.40539L6.07996 3.36914Z" fill="#F9CB38"/>
  <path d="M9.61267 1.65308L9.89064 2.21792L10.516 2.30839L10.0645 2.74854L10.17 3.36964L9.61267 3.0762L9.0558 3.36964L9.16126 2.74854L8.71033 2.30839L9.33423 2.21792L9.61267 1.65308Z" fill="#F9CB38"/>
  <path d="M11.4177 3.68506L11.6962 4.24943L12.3187 4.34037L11.8691 4.78147L11.9751 5.40162L11.4177 5.10865L10.8609 5.40162L10.9663 4.78147L10.5159 4.34037L11.1388 4.24943L11.4177 3.68506Z" fill="#F9CB38"/>
  <path d="M11.4177 6.94507L11.6962 7.51085L12.3187 7.60132L11.8691 8.04147L11.9751 8.66257L11.4177 8.37007L10.8609 8.66257L10.9663 8.04147L10.5159 7.60132L11.1388 7.51085L11.4177 6.94507Z" fill="#F9CB38"/>
  <path d="M9.61267 9.2356L9.89064 9.80044L10.516 9.89044L10.0645 10.3301L10.17 10.9522L9.61267 10.6606L9.0558 10.9522L9.16126 10.3301L8.71033 9.89044L9.33423 9.80044L9.61267 9.2356Z" fill="#F9CB38"/>
</svg>
