<svg width="11" height="12" viewBox="0 0 11 12" fill="none" xmlns="http://www.w3.org/2000/svg">
<path d="M7.38916 0H1.05559C0.775891 0.000863306 0.507881 0.116075 0.310099 0.320474C0.112318 0.524872 0.000835359 0.801848 0 1.09091V7H1.05559V1.09091H7.38916V0ZM8.97255 2.18182H3.16678C2.88708 2.18268 2.61907 2.29789 2.42129 2.50229C2.22351 2.70669 2.11202 2.98367 2.11119 3.27273V10C2.11202 10.2891 2.22351 10.566 2.42129 10.7704C2.61907 10.9748 2.88708 11.09 3.16678 11.0909H8.97255C9.25226 11.09 9.52027 10.9748 9.71805 10.7704C9.91583 10.566 10.0273 10.2891 10.0281 10V3.27273C10.0273 2.98367 9.91583 2.70669 9.71805 2.50229C9.52027 2.29789 9.25226 2.18268 8.97255 2.18182ZM8.97255 10H3.16678V3.27273H8.97255V10Z" fill="#2F80ED"/>
</svg>
