<svg width="24" height="24" viewBox="0 0 24 24" fill="none"
  xmlns="http://www.w3.org/2000/svg">
  <path d="M1.93944 6.3335H0V23.0127H17.8428V21.0732H1.93944V6.3335Z" fill="#BCBEC7"/>
  <rect x="2.32727" y="9.43652" width="4.65465" height="1.55155" fill="#BCBEC7"/>
  <rect x="2.32727" y="13.3154" width="6.98198" height="1.55155" fill="#BCBEC7"/>
  <rect x="17.8429" y="23.0127" width="6.98198" height="1.93944" transform="rotate(-90 17.8429 23.0127)" fill="#BCBEC7"/>
  <rect x="2.32727" y="17.1943" width="10.8609" height="1.55155" fill="#BCBEC7"/>
  <path d="M22.8269 9.68334L21.8146 8.81786C21.8625 8.52422 21.8872 8.2244 21.8872 7.92457C21.8872 7.62475 21.8625 7.32492 21.8146 7.03128L22.8269 6.1658C22.9032 6.10044 22.9579 6.01338 22.9836 5.9162C23.0092 5.81903 23.0047 5.71634 22.9706 5.62179L22.9567 5.58161C22.678 4.80272 22.2607 4.08068 21.7249 3.45038L21.6971 3.41792C21.6321 3.3415 21.5455 3.28656 21.4487 3.26035C21.3518 3.23414 21.2493 3.23789 21.1547 3.2711L19.8982 3.71775C19.4345 3.33755 18.9168 3.03773 18.3573 2.82754L18.1147 1.51388C18.0964 1.41503 18.0484 1.32409 17.9772 1.25315C17.906 1.1822 17.8149 1.13461 17.7159 1.11668L17.6742 1.10896C16.869 0.963681 16.0221 0.963681 15.2169 1.10896L15.1751 1.11668C15.0762 1.13461 14.9851 1.1822 14.9139 1.25315C14.8427 1.32409 14.7947 1.41503 14.7764 1.51388L14.5322 2.83372C13.9772 3.04396 13.4604 3.34362 13.0022 3.72084L11.7364 3.2711C11.6418 3.23763 11.5392 3.23375 11.4423 3.25997C11.3454 3.2862 11.2588 3.34129 11.194 3.41792L11.1661 3.45038C10.631 4.08113 10.2138 4.80305 9.93439 5.58161L9.92048 5.62179C9.85093 5.81498 9.90812 6.03134 10.0642 6.1658L11.0889 7.04055C11.041 7.3311 11.0178 7.62784 11.0178 7.92303C11.0178 8.21976 11.041 8.51649 11.0889 8.8055L10.0642 9.68025C9.98786 9.74561 9.93321 9.83267 9.90754 9.92985C9.88186 10.027 9.88638 10.1297 9.92048 10.2243L9.93439 10.2644C10.2141 11.0434 10.6283 11.762 11.1661 12.3957L11.194 12.4281C11.259 12.5046 11.3456 12.5595 11.4424 12.5857C11.5393 12.6119 11.6418 12.6082 11.7364 12.575L13.0022 12.1252C13.4627 12.5039 13.9774 12.8037 14.5322 13.0123L14.7764 14.3322C14.7947 14.431 14.8427 14.522 14.9139 14.5929C14.9851 14.6638 15.0762 14.7114 15.1751 14.7294L15.2169 14.7371C16.0295 14.8831 16.8616 14.8831 17.6742 14.7371L17.7159 14.7294C17.8149 14.7114 17.906 14.6638 17.9772 14.5929C18.0484 14.522 18.0964 14.431 18.1147 14.3322L18.3573 13.0185C18.9166 12.8089 19.4372 12.5081 19.8982 12.1283L21.1547 12.575C21.2493 12.6084 21.3519 12.6123 21.4488 12.5861C21.5457 12.5599 21.6323 12.5048 21.6971 12.4281L21.7249 12.3957C22.2628 11.7605 22.677 11.0434 22.9567 10.2644L22.9706 10.2243C23.0402 10.0342 22.983 9.8178 22.8269 9.68334ZM20.7173 7.21364C20.7559 7.44701 20.776 7.68657 20.776 7.92612C20.776 8.16567 20.7559 8.40522 20.7173 8.63859L20.6153 9.25833L21.7698 10.2459C21.5947 10.6491 21.3738 11.0308 21.1114 11.3834L19.6772 10.8749L19.1919 11.2736C18.8225 11.5766 18.4114 11.8146 17.9663 11.9815L17.3775 12.2025L17.1008 13.7016C16.6643 13.7511 16.2237 13.7511 15.7872 13.7016L15.5105 12.1994L14.9263 11.9753C14.4859 11.8084 14.0763 11.5704 13.71 11.269L13.2247 10.8687L11.7813 11.3818C11.5185 11.0279 11.2991 10.6462 11.1229 10.2444L12.2897 9.24751L12.1893 8.62931C12.1522 8.39904 12.1321 8.16103 12.1321 7.92612C12.1321 7.68966 12.1506 7.4532 12.1893 7.22292L12.2897 6.60472L11.1229 5.60788C11.2975 5.20451 11.5185 4.82432 11.7813 4.4704L13.2247 4.9835L13.71 4.58322C14.0763 4.28185 14.4859 4.04384 14.9263 3.87693L15.5121 3.65593L15.7887 2.15371C16.223 2.10425 16.6665 2.10425 17.1024 2.15371L17.379 3.65283L17.9679 3.87384C18.4114 4.04075 18.8241 4.27876 19.1934 4.58167L19.6787 4.98041L21.1129 4.47194C21.3757 4.82586 21.5951 5.2076 21.7713 5.60943L20.6168 6.59699L20.7173 7.21364ZM16.4471 5.0515C14.9449 5.0515 13.727 6.26935 13.727 7.77157C13.727 9.27378 14.9449 10.4916 16.4471 10.4916C17.9493 10.4916 19.1672 9.27378 19.1672 7.77157C19.1672 6.26935 17.9493 5.0515 16.4471 5.0515ZM17.6711 8.9956C17.5106 9.1566 17.3198 9.28427 17.1097 9.37127C16.8997 9.45827 16.6745 9.50287 16.4471 9.50252C15.985 9.50252 15.5507 9.3217 15.2231 8.9956C15.0621 8.83505 14.9344 8.64426 14.8474 8.4342C14.7604 8.22413 14.7158 7.99894 14.7161 7.77157C14.7161 7.30947 14.897 6.87518 15.2231 6.54754C15.5507 6.21989 15.985 6.04062 16.4471 6.04062C16.9092 6.04062 17.3435 6.21989 17.6711 6.54754C17.8321 6.70808 17.9598 6.89887 18.0468 7.10894C18.1338 7.31901 18.1784 7.5442 18.178 7.77157C18.178 8.23367 17.9972 8.66795 17.6711 8.9956Z" fill="#BCBEC7" stroke="#BCBEC7" stroke-width="0.5" stroke-miterlimit="16"/>
</svg>
