<svg width="30" height="22" viewBox="0 0 30 22" fill="none"
  xmlns="http://www.w3.org/2000/svg">
  <path d="M17.8125 21.3124H25.3125C26.2392 21.3124 27.0267 21.1033 27.6806 20.7391L17.8125 14.8525V21.3124Z" fill="#2E3192"/>
  <path d="M29.8408 17.6612C29.9476 17.1844 30.002 16.6796 30.002 16.156V13.8123H23.3879L29.8389 17.6612" fill="#2E3192"/>
  <path d="M0.164118 4.32422C0.0530261 4.82294 -0.00200268 5.3325 5.5668e-05 5.84344V8.18719H6.63943L0.164118 4.32422Z" fill="#2E3192"/>
  <path d="M12.1876 0.6875H4.68758C3.76742 0.6875 2.98508 0.89375 2.33398 1.25281L12.1876 7.13094V0.6875Z" fill="#2E3192"/>
  <path d="M2.36389 20.7622C3.00889 21.1109 3.78092 21.3125 4.68749 21.3125H12.1875V14.9019L2.36389 20.7622Z" fill="#2E3192"/>
  <path d="M0 13.8125V16.1563C0 16.6958 0.0571875 17.2156 0.170156 17.7045L6.69469 13.8125H0Z" fill="#2E3192"/>
  <path d="M27.7102 1.27578C27.0511 0.901719 26.2528 0.6875 25.3125 0.6875H17.8125V7.18016L27.7102 1.27578Z" fill="#2E3192"/>
  <path d="M30 8.18731V5.84356C30 5.33075 29.947 4.83622 29.8444 4.36841L23.4431 8.18731H30Z" fill="#2E3192"/>
  <path d="M23.4431 8.1875L29.8444 4.36859C29.5509 3.02609 28.8366 1.91469 27.7102 1.27578L17.8125 7.18016V0.6875H16.875V9.125H30V8.1875H23.4431Z" fill="#E6E7E8"/>
  <path d="M0 12.875V13.8125H6.69469L0.170156 17.7045C0.48 19.0428 1.21594 20.1416 2.36391 20.7622L12.1875 14.9019V21.3125H13.125V12.875H0Z" fill="#E6E7E8"/>
  <path d="M30 12.875H16.875V21.3125H17.8125V14.8527L27.6806 20.7397C28.8155 20.1078 29.5387 19.0025 29.8387 17.6619L23.3878 13.8125H30V12.875Z" fill="#E6E7E8"/>
  <path d="M12.1875 0.6875V7.13094L2.33391 1.25281C1.19484 1.88094 0.466875 2.98438 0.163594 4.32453L6.63937 8.1875H0V9.125H13.125V0.6875H12.1875Z" fill="#E6E7E8"/>
  <path d="M16.875 9.125V0.6875H13.125V9.125H0V12.875H13.125V21.3125H16.875V12.875H30V9.125H16.875Z" fill="#BE1E2D"/>
  <path d="M10.2836 8.18762L0.885122 2.57715C0.683091 2.87715 0.520903 3.20715 0.386841 3.55871L8.14325 8.18762H10.2822" fill="#BE1E2D"/>
  <path d="M29.5735 18.5422L21.6924 13.8125H19.5099L29.0316 19.5402C29.2524 19.2316 29.4344 18.8971 29.5735 18.5441" fill="#BE1E2D"/>
  <path d="M28.462 1.80811L17.798 8.18732L19.9631 8.18873L29.1652 2.67951C28.9598 2.30592 28.7433 2.06498 28.462 1.80811Z" fill="#BE1E2D"/>
  <path d="M0.849976 19.3789C1.06083 19.7 1.31459 19.9909 1.60419 20.2433L12.2172 13.8125H10.0783L0.849976 19.3789Z" fill="#BE1E2D"/>
</svg>
