<svg width="235" height="50" viewBox="0 0 235 50" fill="none" xmlns="http://www.w3.org/2000/svg">
<path d="M58.1328 29.4219H63.2969V31H56.1562V19.625H58.1328V29.4219ZM71.4609 25.9219H66.7891V29.4219H72.25V31H64.8125V19.625H72.1953V21.2188H66.7891V24.3594H71.4609V25.9219ZM80.2266 28.3516H75.8203L74.8984 31H72.8438L77.1406 19.625H78.9141L83.2188 31H81.1562L80.2266 28.3516ZM76.375 26.7578H79.6719L78.0234 22.0391L76.375 26.7578ZM87.9141 28.5234L90.8047 19.625H92.9766L88.8828 31H86.9688L82.8906 19.625H85.0547L87.9141 28.5234ZM100.914 25.9219H96.2422V29.4219H101.703V31H94.2656V19.625H101.648V21.2188H96.2422V24.3594H100.914V25.9219ZM111.008 25.0156L113.625 19.625H115.812L112 26.8125V31H110.016V26.8125L106.195 19.625H108.391L111.008 25.0156ZM125.891 25.6094C125.891 26.724 125.698 27.7031 125.312 28.5469C124.927 29.3854 124.375 30.0312 123.656 30.4844C122.943 30.9323 122.12 31.1562 121.188 31.1562C120.266 31.1562 119.443 30.9323 118.719 30.4844C118 30.0312 117.443 29.388 117.047 28.5547C116.656 27.7214 116.458 26.7604 116.453 25.6719V25.0312C116.453 23.9219 116.648 22.9427 117.039 22.0938C117.435 21.2448 117.99 20.5964 118.703 20.1484C119.422 19.6953 120.245 19.4688 121.172 19.4688C122.099 19.4688 122.919 19.6927 123.633 20.1406C124.352 20.5833 124.906 21.224 125.297 22.0625C125.688 22.8958 125.885 23.8672 125.891 24.9766V25.6094ZM123.914 25.0156C123.914 23.7552 123.674 22.7891 123.195 22.1172C122.721 21.4453 122.047 21.1094 121.172 21.1094C120.318 21.1094 119.648 21.4453 119.164 22.1172C118.685 22.7839 118.44 23.7292 118.43 24.9531V25.6094C118.43 26.8594 118.672 27.8255 119.156 28.5078C119.646 29.1901 120.323 29.5312 121.188 29.5312C122.062 29.5312 122.734 29.1979 123.203 28.5312C123.677 27.8646 123.914 26.8906 123.914 25.6094V25.0156ZM136.18 19.625V27.2266C136.18 28.4349 135.792 29.3932 135.016 30.1016C134.245 30.8047 133.216 31.1562 131.93 31.1562C130.628 31.1562 129.594 30.8099 128.828 30.1172C128.062 29.4193 127.68 28.4531 127.68 27.2188V19.625H129.648V27.2344C129.648 27.9948 129.841 28.5755 130.227 28.9766C130.612 29.3776 131.18 29.5781 131.93 29.5781C133.451 29.5781 134.211 28.776 134.211 27.1719V19.625H136.18ZM142.477 26.6172H140.273V31H138.297V19.625H142.297C143.609 19.625 144.622 19.9193 145.336 20.5078C146.049 21.0964 146.406 21.9479 146.406 23.0625C146.406 23.8229 146.221 24.4609 145.852 24.9766C145.487 25.487 144.977 25.8802 144.32 26.1562L146.875 30.8984V31H144.758L142.477 26.6172ZM140.273 25.0312H142.305C142.971 25.0312 143.492 24.8646 143.867 24.5312C144.242 24.1927 144.43 23.7318 144.43 23.1484C144.43 22.5391 144.255 22.0677 143.906 21.7344C143.562 21.401 143.047 21.2292 142.359 21.2188H140.273V25.0312ZM158.82 26.1797H154.242V31H152.266V19.625H159.492V21.2188H154.242V24.6016H158.82V26.1797ZM167.711 25.9219H163.039V29.4219H168.5V31H161.062V19.625H168.445V21.2188H163.039V24.3594H167.711V25.9219ZM176.758 25.9219H172.086V29.4219H177.547V31H170.109V19.625H177.492V21.2188H172.086V24.3594H176.758V25.9219ZM179.156 31V19.625H182.516C183.521 19.625 184.411 19.849 185.188 20.2969C185.969 20.7448 186.573 21.3802 187 22.2031C187.427 23.026 187.641 23.9688 187.641 25.0312V25.6016C187.641 26.6797 187.424 27.6276 186.992 28.4453C186.565 29.263 185.953 29.8932 185.156 30.3359C184.365 30.7786 183.456 31 182.43 31H179.156ZM181.133 21.2188V29.4219H182.422C183.458 29.4219 184.253 29.099 184.805 28.4531C185.362 27.8021 185.646 26.8698 185.656 25.6562V25.0234C185.656 23.7891 185.388 22.8464 184.852 22.1953C184.315 21.5443 183.536 21.2188 182.516 21.2188H181.133ZM189.609 31V19.625H193.508C194.794 19.625 195.773 19.8828 196.445 20.3984C197.117 20.9141 197.453 21.6823 197.453 22.7031C197.453 23.224 197.312 23.6927 197.031 24.1094C196.75 24.526 196.339 24.849 195.797 25.0781C196.411 25.2448 196.885 25.5599 197.219 26.0234C197.557 26.4818 197.727 27.0339 197.727 27.6797C197.727 28.7474 197.383 29.5677 196.695 30.1406C196.013 30.7135 195.034 31 193.758 31H189.609ZM191.586 25.8672V29.4219H193.781C194.401 29.4219 194.885 29.2682 195.234 28.9609C195.583 28.6536 195.758 28.2266 195.758 27.6797C195.758 26.4974 195.154 25.8932 193.945 25.8672H191.586ZM191.586 24.4141H193.523C194.138 24.4141 194.617 24.276 194.961 24C195.31 23.7188 195.484 23.3229 195.484 22.8125C195.484 22.25 195.323 21.8438 195 21.5938C194.682 21.3438 194.185 21.2188 193.508 21.2188H191.586V24.4141ZM206.07 28.3516H201.664L200.742 31H198.688L202.984 19.625H204.758L209.062 31H207L206.07 28.3516ZM202.219 26.7578H205.516L203.867 22.0391L202.219 26.7578ZM218.867 27.2969C218.753 28.5104 218.305 29.4583 217.523 30.1406C216.742 30.8177 215.703 31.1562 214.406 31.1562C213.5 31.1562 212.701 30.9427 212.008 30.5156C211.32 30.0833 210.789 29.4714 210.414 28.6797C210.039 27.888 209.844 26.9688 209.828 25.9219V24.8594C209.828 23.7865 210.018 22.8411 210.398 22.0234C210.779 21.2057 211.323 20.5755 212.031 20.1328C212.745 19.6901 213.568 19.4688 214.5 19.4688C215.755 19.4688 216.766 19.8099 217.531 20.4922C218.297 21.1745 218.742 22.138 218.867 23.3828H216.898C216.805 22.5651 216.565 21.9766 216.18 21.6172C215.799 21.2526 215.24 21.0703 214.5 21.0703C213.641 21.0703 212.979 21.3854 212.516 22.0156C212.057 22.6406 211.823 23.5599 211.812 24.7734V25.7812C211.812 27.0104 212.031 27.9479 212.469 28.5938C212.911 29.2396 213.557 29.5625 214.406 29.5625C215.182 29.5625 215.766 29.388 216.156 29.0391C216.547 28.6901 216.794 28.1094 216.898 27.2969H218.867ZM223.906 26.0859L222.617 27.4531V31H220.641V19.625H222.617V24.9609L223.711 23.6094L227.039 19.625H229.43L225.203 24.6641L229.672 31H227.328L223.906 26.0859Z" fill="#748AA1"/>
<path d="M36.6971 16.1421V16.1421C36.6971 15.0165 35.7846 14.104 34.659 14.104H16C13.7909 14.104 12 15.8949 12 18.104V30.7249C12 32.934 13.7909 34.7249 16 34.7249H18.4337V37.4454C18.4337 38.3553 19.5502 38.7924 20.168 38.1242L20.9356 37.2939C22.4499 35.6561 24.5791 34.7249 26.8097 34.7249H32.6971C34.9062 34.7249 36.6971 32.934 36.6971 30.7249V29.5697" stroke="#748AA1" stroke-width="2"/>
<line x1="18.2749" y1="19.6189" x2="30.182" y2="19.6189" stroke="#748AA1" stroke-width="2" stroke-linecap="round" stroke-linejoin="round"/>
<line x1="18.2749" y1="24.6543" x2="26.3456" y2="24.6543" stroke="#748AA1" stroke-width="2" stroke-linecap="round" stroke-linejoin="round"/>
<line x1="18.2749" y1="29.4089" x2="22.0296" y2="29.4089" stroke="#748AA1" stroke-width="2" stroke-linecap="round" stroke-linejoin="round"/>
<path d="M38.3339 18.2799C39.0329 17.5809 40.1663 17.5809 40.8653 18.2799C41.5643 18.9789 41.5643 20.1122 40.8653 20.8112L33.4834 28.1931C32.9519 28.7246 32.2401 29.0373 31.4891 29.0691L29.8826 29.1371L30.0146 27.5966C30.075 26.892 30.3823 26.2315 30.8824 25.7314L38.3339 18.2799Z" stroke="#748AA1" stroke-width="2"/>
<line x1="36.7457" y1="20.1386" x2="39.1393" y2="22.5323" stroke="#748AA1" stroke-width="2"/>
</svg>
