<svg width="33" height="27" viewBox="0 0 33 27" fill="none"
  xmlns="http://www.w3.org/2000/svg">
  <path d="M25.6971 3.14211V3.14211C25.6971 2.0165 24.7846 1.104 23.659 1.104H5C2.79086 1.104 1 2.89486 1 5.104V17.7249C1 19.934 2.79086 21.7249 5 21.7249H7.4337V24.4454C7.4337 25.3553 8.55025 25.7924 9.16796 25.1242L9.93561 24.2939C11.4499 22.6561 13.5791 21.7249 15.8097 21.7249H21.6971C23.9062 21.7249 25.6971 19.934 25.6971 17.7249V16.5697" stroke="#748AA1" stroke-width="2"/>
  <line x1="7.2749" y1="6.6189" x2="19.182" y2="6.6189" stroke="#748AA1" stroke-width="2" stroke-linecap="round" stroke-linejoin="round"/>
  <line x1="7.2749" y1="11.6543" x2="15.3456" y2="11.6543" stroke="#748AA1" stroke-width="2" stroke-linecap="round" stroke-linejoin="round"/>
  <line x1="7.2749" y1="16.4089" x2="11.0296" y2="16.4089" stroke="#748AA1" stroke-width="2" stroke-linecap="round" stroke-linejoin="round"/>
  <path d="M27.3339 5.27986C28.0329 4.58085 29.1663 4.58085 29.8653 5.27986C30.5643 5.97888 30.5643 7.1122 29.8653 7.81121L22.4834 15.1931C21.9519 15.7246 21.2401 16.0373 20.4891 16.0691L18.8826 16.1371L19.0146 14.5966C19.075 13.892 19.3823 13.2315 19.8824 12.7314L27.3339 5.27986Z" stroke="#748AA1" stroke-width="2"/>
  <line x1="25.7457" y1="7.1386" x2="28.1393" y2="9.53225" stroke="#748AA1" stroke-width="2"/>
</svg>
