<svg width="50" height="50" viewBox="0 0 50 50" fill="none" xmlns="http://www.w3.org/2000/svg">
<circle cx="25" cy="25" r="25" fill="#2F80ED"/>
<path d="M36.6971 16.1421V16.1421C36.6971 15.0165 35.7846 14.104 34.659 14.104H16C13.7909 14.104 12 15.8949 12 18.104V30.7249C12 32.934 13.7909 34.7249 16 34.7249H18.4337V37.4454C18.4337 38.3553 19.5502 38.7924 20.168 38.1242L20.9356 37.2939C22.4499 35.6561 24.5791 34.7249 26.8097 34.7249H32.6971C34.9062 34.7249 36.6971 32.934 36.6971 30.7249V29.5697" stroke="white" stroke-width="2"/>
<line x1="18.275" y1="19.6189" x2="30.1821" y2="19.6189" stroke="white" stroke-width="2" stroke-linecap="round" stroke-linejoin="round"/>
<line x1="18.275" y1="24.6542" x2="26.3457" y2="24.6542" stroke="white" stroke-width="2" stroke-linecap="round" stroke-linejoin="round"/>
<line x1="18.275" y1="29.4089" x2="22.0297" y2="29.4089" stroke="white" stroke-width="2" stroke-linecap="round" stroke-linejoin="round"/>
<path d="M38.3339 18.2799C39.0329 17.5809 40.1663 17.5809 40.8653 18.2799C41.5643 18.9789 41.5643 20.1122 40.8653 20.8112L33.4834 28.1931C32.9519 28.7246 32.2401 29.0373 31.4891 29.0691L29.8826 29.1371L30.0146 27.5966C30.075 26.892 30.3823 26.2315 30.8824 25.7314L38.3339 18.2799Z" stroke="white" stroke-width="2"/>
<line x1="36.7459" y1="20.1387" x2="39.1396" y2="22.5323" stroke="white" stroke-width="2"/>
</svg>
