<svg width="20" height="20" viewBox="0 0 20 20" fill="none"
  xmlns="http://www.w3.org/2000/svg">
  <path d="M19.0625 0H0.939186C0.754114 0.000831164 0.573422 0.0563727 0.419837 0.159638C0.266252 0.262904 0.146634 0.409281 0.0760305 0.580357C0.00542658 0.751434 -0.0130103 0.939569 0.0230391 1.1211C0.0590885 1.30263 0.148014 1.46944 0.27863 1.60056L7.50085 8.82611V16.875C7.50093 17.0257 7.53732 17.1742 7.60695 17.3078C7.67658 17.4415 7.77739 17.5564 7.90085 17.6428L11.0259 19.8294C11.1664 19.9274 11.3311 19.9851 11.5021 19.9961C11.6731 20.0072 11.8438 19.9712 11.9958 19.8921C12.1477 19.813 12.2752 19.6937 12.3642 19.5474C12.4532 19.401 12.5005 19.233 12.5009 19.0617V8.82556L19.7231 1.6C19.8535 1.46886 19.9423 1.30209 19.9782 1.12066C20.0141 0.939221 19.9957 0.751211 19.9251 0.580248C19.8545 0.409285 19.735 0.262995 19.5815 0.159757C19.428 0.0565192 19.2475 0.000939138 19.0625 0V0Z" fill="#2F80ED"/>
</svg>
