<svg width="14" height="14" viewBox="0 0 14 14" fill="none" xmlns="http://www.w3.org/2000/svg">
<path d="M13.3 2.8H11.9V9.1H2.8V10.5C2.8 10.6857 2.87375 10.8637 3.00503 10.995C3.1363 11.1263 3.31435 11.2 3.5 11.2H11.2L14 14V3.5C14 3.31435 13.9263 3.1363 13.795 3.00503C13.6637 2.87375 13.4857 2.8 13.3 2.8ZM10.5 7V0.7C10.5 0.514348 10.4262 0.336301 10.295 0.205025C10.1637 0.0737498 9.98565 0 9.8 0H0.7C0.514348 0 0.336301 0.0737498 0.205025 0.205025C0.0737498 0.336301 0 0.514348 0 0.7V10.5L2.8 7.7H9.8C9.98565 7.7 10.1637 7.62625 10.295 7.49497C10.4262 7.3637 10.5 7.18565 10.5 7Z" fill="#748AA1"/>
</svg>
