<svg width="18" height="18" viewBox="0 0 18 18" fill="none" xmlns="http://www.w3.org/2000/svg">
<path d="M17.1 3.6H15.3V11.7H3.6V13.5C3.6 13.7387 3.69482 13.9676 3.8636 14.1364C4.03239 14.3052 4.26131 14.4 4.5 14.4H14.4L18 18V4.5C18 4.26131 17.9052 4.03239 17.7364 3.8636C17.5676 3.69482 17.3387 3.6 17.1 3.6ZM13.5 9V0.9C13.5 0.661305 13.4052 0.432387 13.2364 0.263604C13.0676 0.0948212 12.8387 0 12.6 0H0.9C0.661305 0 0.432387 0.0948212 0.263604 0.263604C0.0948212 0.432387 0 0.661305 0 0.9V13.5L3.6 9.9H12.6C12.8387 9.9 13.0676 9.80518 13.2364 9.6364C13.4052 9.46761 13.5 9.2387 13.5 9Z" fill="#748AA1"/>
</svg>
