<svg width="14" height="13" viewBox="0 0 14 13" fill="none" xmlns="http://www.w3.org/2000/svg">
<path d="M4.68274 10.4679C4.68274 10.5218 4.61772 10.5646 4.53584 10.5646C4.44273 10.5726 4.37772 10.5298 4.37772 10.4679C4.37772 10.414 4.44273 10.3712 4.52461 10.3712C4.60929 10.3631 4.68274 10.406 4.68274 10.4679ZM3.805 10.3471C3.78533 10.401 3.84152 10.4618 3.9254 10.479C3.95622 10.4933 3.99168 10.4957 4.02432 10.4857C4.05696 10.4756 4.08423 10.4539 4.10039 10.4251C4.11724 10.3712 4.06387 10.3104 3.97998 10.2852C3.94783 10.2742 3.91264 10.2744 3.88063 10.2857C3.84861 10.297 3.82182 10.3188 3.805 10.3471ZM5.05237 10.3012C4.97211 10.3199 4.91391 10.3712 4.92274 10.4331C4.93117 10.487 5.00301 10.5218 5.0893 10.5031C5.17559 10.4843 5.22776 10.4331 5.21893 10.3796C5.2101 10.3261 5.13425 10.2932 5.05237 10.3012ZM6.90899 0.0014263C5.99847 -0.0168214 5.09346 0.140187 4.24818 0.463045C3.40289 0.785902 2.63473 1.26796 1.98971 1.88035C1.34469 2.49273 0.836085 3.22284 0.494375 4.02692C0.152665 4.831 -0.0151209 5.69251 0.00106945 6.55983C-0.01074 7.974 0.444844 9.35587 1.3033 10.5097C2.16176 11.6636 3.37957 12.531 4.78428 12.989C5.14548 13.051 5.27231 12.8384 5.27231 12.6637C5.27231 12.497 5.26388 11.5776 5.26388 11.0134C5.26388 11.0134 3.28847 11.4167 2.87388 10.2106C2.87388 10.2106 2.55281 9.42846 2.08926 9.227C2.08926 9.227 1.4431 8.80649 2.13461 8.81299C2.35984 8.84205 2.57509 8.91982 2.7639 9.04035C2.9527 9.16088 3.11003 9.32097 3.22385 9.50836C3.31805 9.67594 3.44658 9.82381 3.60185 9.94322C3.75711 10.0626 3.93596 10.1512 4.12779 10.2036C4.31961 10.256 4.52053 10.2712 4.71864 10.2483C4.91675 10.2254 5.10802 10.1649 5.28114 10.0703C5.31754 9.72778 5.47704 9.40773 5.73265 9.16431C4.15537 8.99763 2.56204 8.78011 2.56204 6.19399C2.54634 5.89997 2.59774 5.6062 2.71268 5.33292C2.82763 5.05964 3.00339 4.81333 3.22787 4.61096C3.0139 4.015 3.04007 3.36457 3.30131 2.78596C3.89129 2.61126 5.24863 3.51229 5.24863 3.51229C6.40841 3.20768 7.63311 3.20768 8.79289 3.51229C8.79289 3.51229 10.1502 2.60896 10.7402 2.78596C11.0016 3.36454 11.0277 4.01502 10.8137 4.61096C11.0465 4.8101 11.232 5.05438 11.3575 5.32742C11.4831 5.60046 11.5459 5.89593 11.5417 6.19399C11.5417 8.78776 9.87973 8.99496 8.30205 9.16431C8.47208 9.3268 8.60316 9.52243 8.6863 9.73775C8.76943 9.95307 8.80265 10.183 8.78366 10.4117C8.78366 11.3177 8.77523 12.4378 8.77523 12.6587C8.77523 12.8334 8.90487 13.046 9.26326 12.9841C10.6634 12.5269 11.8757 11.6593 12.7264 10.5056C13.5771 9.35195 14.0227 7.97138 13.9991 6.56174C13.9979 2.83145 10.8233 0.0014263 6.90899 0.0014263ZM2.74385 9.27173C2.70733 9.29849 2.71575 9.36042 2.76351 9.41164C2.80887 9.45446 2.87348 9.47357 2.91041 9.4384C2.94693 9.41164 2.9385 9.34971 2.89074 9.29849C2.84539 9.25567 2.78077 9.23694 2.74385 9.27173ZM2.43923 9.05383C2.41956 9.08862 2.44766 9.13028 2.50425 9.15857C2.51332 9.16518 2.52372 9.16995 2.5348 9.17259C2.54588 9.17523 2.55741 9.17569 2.56869 9.17393C2.57996 9.17218 2.59074 9.16825 2.60036 9.16239C2.60999 9.15653 2.61825 9.14885 2.62465 9.13984C2.64432 9.10505 2.61622 9.06339 2.55963 9.0351C2.50425 9.01904 2.45889 9.02707 2.43923 9.05421V9.05383ZM3.35349 10.0095C3.30814 10.0443 3.32539 10.1242 3.39001 10.1762C3.45503 10.2381 3.5369 10.2462 3.57342 10.203C3.60995 10.1682 3.59309 10.0883 3.5369 10.0363C3.47469 9.97589 3.39041 9.96786 3.35349 10.0111V10.0095ZM3.03241 9.61425C2.98706 9.64101 2.98706 9.71097 3.03241 9.7729C3.07777 9.83483 3.15282 9.86159 3.19054 9.83483C3.21257 9.81215 3.22481 9.78239 3.22481 9.75149C3.22481 9.72059 3.21257 9.69083 3.19054 9.66815C3.15041 9.60775 3.07696 9.58099 3.03201 9.61578L3.03241 9.61425Z" fill="#748AA1"/>
</svg>
