<svg width="18" height="17" viewBox="0 0 18 17" fill="none" xmlns="http://www.w3.org/2000/svg">
<path d="M6.02066 13.6888C6.02066 13.7593 5.93707 13.8152 5.8318 13.8152C5.71209 13.8257 5.62849 13.7698 5.62849 13.6888C5.62849 13.6183 5.71209 13.5623 5.81735 13.5623C5.92623 13.5518 6.02066 13.6078 6.02066 13.6888ZM4.89214 13.5308C4.86686 13.6013 4.9391 13.6808 5.04695 13.7033C5.08657 13.722 5.13216 13.7252 5.17412 13.712C5.21609 13.6989 5.25115 13.6705 5.27193 13.6328C5.2936 13.5623 5.22497 13.4828 5.11712 13.4498C5.07579 13.4355 5.03054 13.4357 4.98938 13.4505C4.94821 13.4653 4.91377 13.4938 4.89214 13.5308ZM6.49591 13.4708C6.39271 13.4953 6.31788 13.5623 6.32924 13.6433C6.34007 13.7138 6.43244 13.7593 6.54338 13.7348C6.65433 13.7103 6.72141 13.6433 6.71005 13.5733C6.6987 13.5033 6.60118 13.4603 6.49591 13.4708ZM8.88298 0.00186516C7.71232 -0.0219972 6.54874 0.183322 5.46194 0.60552C4.37515 1.02772 3.38751 1.65811 2.55819 2.45892C1.72888 3.25973 1.07497 4.21448 0.635625 5.26597C0.196284 6.31746 -0.0194411 7.44405 0.001375 8.57824C-0.0138085 10.4275 0.571942 12.2346 1.67567 13.7435C2.7794 15.2524 4.34516 16.3867 6.15121 16.9856C6.61562 17.0666 6.77868 16.7887 6.77868 16.5602C6.77868 16.3423 6.76785 15.14 6.76785 14.4021C6.76785 14.4021 4.22803 14.9295 3.69499 13.3523C3.69499 13.3523 3.28218 12.3295 2.68619 12.0661C2.68619 12.0661 1.85541 11.5162 2.7445 11.5247C3.03408 11.5627 3.31084 11.6644 3.55358 11.822C3.79633 11.9796 3.99861 12.189 4.14496 12.434C4.26606 12.6531 4.43132 12.8465 4.63095 13.0027C4.83058 13.1588 5.06052 13.2746 5.30715 13.3431C5.55379 13.4116 5.81211 13.4315 6.06682 13.4016C6.32153 13.3717 6.56746 13.2925 6.79004 13.1689C6.83684 12.7209 7.04191 12.3024 7.37055 11.9841C5.34262 11.7661 3.29405 11.4817 3.29405 8.09983C3.27387 7.71534 3.33995 7.33119 3.48773 6.97382C3.63552 6.61645 3.8615 6.29436 4.15012 6.02972C3.87501 5.25039 3.90866 4.39982 4.24455 3.64317C5.00308 3.41472 6.74824 4.59299 6.74824 4.59299C8.23938 4.19466 9.814 4.19466 11.3051 4.59299C11.3051 4.59299 13.0503 3.41172 13.8088 3.64317C14.1449 4.39979 14.1785 5.25041 13.9033 6.02972C14.2027 6.29013 14.4411 6.60958 14.6026 6.96663C14.764 7.32368 14.8447 7.71006 14.8393 8.09983C14.8393 11.4917 12.7025 11.7626 10.6741 11.9841C10.8927 12.1966 11.0612 12.4524 11.1681 12.734C11.275 13.0156 11.3177 13.3162 11.2933 13.6153C11.2933 14.8001 11.2824 16.2648 11.2824 16.5537C11.2824 16.7822 11.4491 17.0601 11.9099 16.9791C13.7101 16.3813 15.2687 15.2468 16.3625 13.7381C17.4563 12.2295 18.0291 10.4241 17.9989 8.58074C17.9973 3.70266 13.9157 0.00186516 8.88298 0.00186516ZM3.5278 12.1246C3.48085 12.1596 3.49168 12.2405 3.55309 12.3075C3.6114 12.3635 3.69448 12.3885 3.74195 12.3425C3.78891 12.3075 3.77807 12.2265 3.71667 12.1596C3.65836 12.1036 3.57528 12.0791 3.5278 12.1246ZM3.13615 11.8396C3.11087 11.8851 3.14699 11.9396 3.21975 11.9766C3.23142 11.9852 3.24478 11.9915 3.25903 11.9949C3.27328 11.9984 3.2881 11.999 3.3026 11.9967C3.31709 11.9944 3.33095 11.9893 3.34332 11.9816C3.3557 11.9739 3.36632 11.9639 3.37455 11.9521C3.39983 11.9066 3.36371 11.8521 3.29096 11.8151C3.21975 11.7941 3.16144 11.8046 3.13615 11.8401V11.8396ZM4.31163 13.0894C4.25332 13.1349 4.27551 13.2394 4.35858 13.3073C4.44218 13.3883 4.54745 13.3988 4.5944 13.3423C4.64136 13.2968 4.61969 13.1924 4.54745 13.1244C4.46746 13.0454 4.3591 13.0349 4.31163 13.0914V13.0894ZM3.89882 12.5725C3.84051 12.6075 3.84051 12.699 3.89882 12.7799C3.95713 12.8609 4.05362 12.8959 4.10213 12.8609C4.13045 12.8313 4.14618 12.7924 4.14618 12.7519C4.14618 12.7115 4.13045 12.6726 4.10213 12.643C4.05053 12.564 3.9561 12.529 3.8983 12.5745L3.89882 12.5725Z" fill="#EBEDF4"/>
</svg>
