<svg width="15" height="13" viewBox="0 0 15 13" fill="none" xmlns="http://www.w3.org/2000/svg">
<path d="M5.07593 10.4679C5.07593 10.5218 5.01062 10.5646 4.92838 10.5646C4.83485 10.5726 4.76954 10.5298 4.76954 10.4679C4.76954 10.414 4.83485 10.3712 4.91709 10.3712C5.00215 10.3631 5.07593 10.406 5.07593 10.4679ZM4.19425 10.3471C4.1745 10.401 4.23094 10.4618 4.3152 10.479C4.34615 10.4933 4.38177 10.4957 4.41456 10.4857C4.44734 10.4756 4.47473 10.4539 4.49097 10.4251C4.5079 10.3712 4.45428 10.3104 4.37002 10.2852C4.33773 10.2742 4.30238 10.2744 4.27022 10.2857C4.23806 10.297 4.21115 10.3188 4.19425 10.3471ZM5.44722 10.3012C5.36659 10.3199 5.30814 10.3712 5.31701 10.4331C5.32547 10.487 5.39764 10.5218 5.48431 10.5031C5.57099 10.4843 5.6234 10.4331 5.61453 10.3796C5.60566 10.3261 5.52946 10.2932 5.44722 10.3012ZM7.31216 0.0014263C6.39757 -0.0168214 5.4885 0.140187 4.63942 0.463045C3.79034 0.785902 3.01873 1.26796 2.37082 1.88035C1.72291 2.49273 1.21203 3.22284 0.868785 4.02692C0.525542 4.831 0.357004 5.69251 0.373267 6.55983C0.361404 7.974 0.819031 9.35587 1.68134 10.5097C2.54364 11.6636 3.76692 12.531 5.17792 12.989C5.54075 13.051 5.66814 12.8384 5.66814 12.6637C5.66814 12.497 5.65968 11.5776 5.65968 11.0134C5.65968 11.0134 3.67541 11.4167 3.25896 10.2106C3.25896 10.2106 2.93645 9.42846 2.47082 9.227C2.47082 9.227 1.82176 8.80649 2.51637 8.81299C2.74261 8.84205 2.95883 8.91982 3.14848 9.04035C3.33813 9.16088 3.49617 9.32097 3.6105 9.50836C3.70512 9.67594 3.83423 9.82381 3.99019 9.94322C4.14615 10.0626 4.3258 10.1512 4.51849 10.2036C4.71118 10.256 4.91299 10.2712 5.11199 10.2483C5.31099 10.2254 5.50312 10.1649 5.67701 10.0703C5.71358 9.72778 5.87379 9.40773 6.13055 9.16431C4.5462 8.99763 2.94572 8.78011 2.94572 6.19399C2.92995 5.89997 2.98158 5.6062 3.09704 5.33292C3.2125 5.05964 3.38905 4.81333 3.61454 4.61096C3.3996 4.015 3.4259 3.36457 3.68831 2.78596C4.28093 2.61126 5.64436 3.51229 5.64436 3.51229C6.80934 3.20768 8.03953 3.20768 9.20451 3.51229C9.20451 3.51229 10.5679 2.60896 11.1606 2.78596C11.4231 3.36454 11.4494 4.01502 11.2343 4.61096C11.4683 4.8101 11.6545 5.05438 11.7807 5.32742C11.9068 5.60046 11.9699 5.89593 11.9656 6.19399C11.9656 8.78776 10.2962 8.99496 8.71147 9.16431C8.88226 9.3268 9.01393 9.52243 9.09744 9.73775C9.18095 9.95307 9.21431 10.183 9.19524 10.4117C9.19524 11.3177 9.18678 12.4378 9.18678 12.6587C9.18678 12.8334 9.31699 13.046 9.677 12.9841C11.0834 12.5269 12.3011 11.6593 13.1557 10.5056C14.0102 9.35195 14.4577 7.97138 14.4341 6.56174C14.4329 2.83145 11.244 0.0014263 7.31216 0.0014263ZM3.12834 9.27173C3.09166 9.29849 3.10012 9.36042 3.1481 9.41164C3.19365 9.45446 3.25856 9.47357 3.29565 9.4384C3.33233 9.41164 3.32387 9.34971 3.27589 9.29849C3.23034 9.25567 3.16543 9.23694 3.12834 9.27173ZM2.82236 9.05383C2.80261 9.08862 2.83083 9.13028 2.88767 9.15857C2.89679 9.16518 2.90723 9.16995 2.91836 9.17259C2.92949 9.17523 2.94108 9.17569 2.9524 9.17393C2.96372 9.17218 2.97455 9.16825 2.98422 9.16239C2.99388 9.15653 3.00218 9.14885 3.00861 9.13984C3.02837 9.10505 3.00015 9.06339 2.9433 9.0351C2.88767 9.01904 2.84211 9.02707 2.82236 9.05421V9.05383ZM3.74072 10.0095C3.69516 10.0443 3.7125 10.1242 3.7774 10.1762C3.84271 10.2381 3.92496 10.2462 3.96164 10.203C3.99833 10.1682 3.9814 10.0883 3.92496 10.0363C3.86247 9.97589 3.77781 9.96786 3.74072 10.0111V10.0095ZM3.4182 9.61425C3.37265 9.64101 3.37265 9.71097 3.4182 9.7729C3.46376 9.83483 3.53915 9.86159 3.57704 9.83483C3.59917 9.81215 3.61146 9.78239 3.61146 9.75149C3.61146 9.72059 3.59917 9.69083 3.57704 9.66815C3.53673 9.60775 3.46295 9.58099 3.4178 9.61578L3.4182 9.61425Z" fill="#748AA1"/>
</svg>
