<svg width="8" height="12" viewBox="0 0 8 12" fill="none"
  xmlns="http://www.w3.org/2000/svg">
  <path d="M6.36763 4.48921L6.36761 4.48923C6.17786 4.67323 5.83643 4.98359 5.34468 5.41931C5.21058 5.54046 5.10367 5.64655 5.02306 5.7378C4.9468 5.8247 4.89236 5.90288 4.85728 5.9724L4.85633 5.97427L4.85631 5.97426C4.81954 6.04348 4.79021 6.11423 4.7682 6.18654C4.74876 6.25994 4.71742 6.39183 4.67397 6.58357C4.63306 6.80363 4.54664 6.98087 4.40596 7.10268C4.26429 7.22534 4.07935 7.28164 3.862 7.28164C3.63016 7.28164 3.42929 7.20564 3.26568 7.05254L3.26466 7.05158C3.09873 6.89189 3.024 6.66157 3.024 6.37913C3.024 6.03624 3.07751 5.73493 3.18802 5.47792M6.36763 4.48921L3.28 5.51717M6.36763 4.48921C6.56743 4.29538 6.73741 4.06717 6.87785 3.80537C7.02706 3.53482 7.1 3.22261 7.1 2.87186C7.1 2.42365 6.9719 2.00818 6.71731 1.62764C6.46607 1.24612 6.10924 0.947555 5.65107 0.730756C5.19142 0.50928 4.66425 0.4 4.072 0.4C3.43423 0.4 2.87132 0.529704 2.38635 0.79253C1.90576 1.05299 1.53597 1.38502 1.28145 1.79007C1.0295 2.18706 0.9 2.58577 0.9 2.98481C0.9 3.19801 0.98985 3.39216 1.15582 3.56525L1.1558 3.56527L1.15762 3.56708C1.33276 3.7406 1.54823 3.82787 1.798 3.82787C2.00918 3.82787 2.19278 3.76501 2.34205 3.63546C2.48931 3.50766 2.59573 3.32146 2.66724 3.08665C2.80861 2.66692 2.97843 2.35943 3.17235 2.15622L3.17296 2.15557C3.35494 1.96141 3.64714 1.85429 4.072 1.85429C4.42742 1.85429 4.70773 1.95667 4.92215 2.1547L4.92215 2.15471L4.92277 2.15527C5.14244 2.35477 5.25 2.59562 5.25 2.88375C5.25 3.02897 5.21448 3.16229 5.14338 3.28557L5.14335 3.28556L5.1423 3.28748C5.07108 3.41746 4.98099 3.53658 4.87162 3.64495C4.76214 3.75342 4.58027 3.91803 4.3245 4.13976L4.32442 4.13983C4.03113 4.39458 3.79628 4.61705 3.6209 4.80693M6.36763 4.48921L3.694 4.87517M3.18802 5.47792C3.18806 5.47783 3.1881 5.47774 3.18814 5.47765L3.28 5.51717M3.18802 5.47792C3.18799 5.47801 3.18795 5.4781 3.18791 5.47819L3.28 5.51717M3.18802 5.47792C3.29627 5.22226 3.44045 4.99827 3.6209 4.80693M3.28 5.51717C3.384 5.27147 3.522 5.05746 3.694 4.87517M3.6209 4.80693C3.62078 4.80706 3.62065 4.80719 3.62053 4.80732L3.694 4.87517M3.6209 4.80693C3.62102 4.8068 3.62114 4.80667 3.62127 4.80654L3.694 4.87517M3.21991 10.8432L3.21989 10.8432L3.22168 10.8447C3.424 11.0147 3.66087 11.1 3.928 11.1C4.18877 11.1 4.42016 11.0116 4.61809 10.8373C4.82312 10.6567 4.922 10.4095 4.922 10.1083C4.922 9.8329 4.82599 9.597 4.63438 9.40717C4.44282 9.21738 4.20516 9.12259 3.928 9.12259C3.64733 9.12259 3.406 9.21701 3.21044 9.40636C3.01457 9.59601 2.916 9.83216 2.916 10.1083C2.916 10.4129 3.01456 10.6624 3.21991 10.8432Z" fill="#748AA1" stroke="#748AA1" stroke-width="0.2"/>
</svg>
