<svg width="6" height="12" viewBox="0 0 6 12" fill="none" xmlns="http://www.w3.org/2000/svg">
<path d="M0 3.23481C0 2.85832 0.122 2.47787 0.366 2.09346C0.61 1.70509 0.966 1.38408 1.434 1.13045C1.902 0.876816 2.448 0.75 3.072 0.75C3.652 0.75 4.164 0.857001 4.608 1.071C5.052 1.28104 5.394 1.56836 5.634 1.93296C5.878 2.29756 6 2.69386 6 3.12186C6 3.45872 5.93 3.75396 5.79 4.0076C5.654 4.26123 5.49 4.48118 5.298 4.66744C5.11 4.84974 4.77 5.15885 4.278 5.59478C4.142 5.71764 4.032 5.82662 3.948 5.92173C3.868 6.01288 3.808 6.09808 3.768 6.17734C3.728 6.25264 3.696 6.32992 3.672 6.40918C3.652 6.48448 3.62 6.61922 3.576 6.81341C3.5 7.22556 3.262 7.43164 2.862 7.43164C2.654 7.43164 2.478 7.36427 2.334 7.22952C2.194 7.09478 2.124 6.89465 2.124 6.62913C2.124 6.29624 2.176 6.00892 2.28 5.76717C2.384 5.52147 2.522 5.30746 2.694 5.12517C2.866 4.9389 3.098 4.71896 3.39 4.46532C3.646 4.2434 3.83 4.07695 3.942 3.96598C4.058 3.85106 4.154 3.72424 4.23 3.58554C4.31 3.44683 4.35 3.29624 4.35 3.13375C4.35 2.81671 4.23 2.54921 3.99 2.33124C3.754 2.11328 3.448 2.00429 3.072 2.00429C2.632 2.00429 2.308 2.11526 2.1 2.33719C1.892 2.55515 1.716 2.87814 1.572 3.30614C1.436 3.75396 1.178 3.97787 0.798 3.97787C0.574 3.97787 0.384 3.90059 0.228 3.74604C0.076 3.58752 0 3.41711 0 3.23481ZM2.928 11.25C2.684 11.25 2.47 11.1727 2.286 11.0182C2.106 10.8596 2.016 10.6397 2.016 10.3583C2.016 10.1087 2.104 9.89861 2.28 9.7282C2.456 9.55779 2.672 9.47259 2.928 9.47259C3.18 9.47259 3.392 9.55779 3.564 9.7282C3.736 9.89861 3.822 10.1087 3.822 10.3583C3.822 10.6357 3.732 10.8537 3.552 11.0122C3.372 11.1707 3.164 11.25 2.928 11.25Z" fill="#31394D"/>
</svg>
