<svg width="20" height="20" viewBox="0 0 20 20" fill="none" xmlns="http://www.w3.org/2000/svg">
<path d="M19.0626 0H0.939247C0.754175 0.000831164 0.573483 0.0563727 0.419898 0.159638C0.266313 0.262904 0.146695 0.409281 0.0760915 0.580357C0.00548761 0.751434 -0.0129492 0.939569 0.0231002 1.1211C0.0591496 1.30263 0.148075 1.46944 0.278691 1.60056L7.50091 8.82611V16.875C7.50099 17.0257 7.53738 17.1742 7.60701 17.3078C7.67664 17.4415 7.77746 17.5564 7.90091 17.6428L11.0259 19.8294C11.1665 19.9274 11.3312 19.9851 11.5021 19.9961C11.6731 20.0072 11.8439 19.9712 11.9958 19.8921C12.1478 19.813 12.2752 19.6937 12.3643 19.5474C12.4533 19.401 12.5006 19.233 12.5009 19.0617V8.82556L19.7231 1.6C19.8536 1.46886 19.9423 1.30209 19.9783 1.12066C20.0142 0.939221 19.9957 0.751211 19.9251 0.580248C19.8546 0.409285 19.735 0.262995 19.5816 0.159757C19.4281 0.0565192 19.2475 0.000939138 19.0626 0V0Z" fill="#2F80ED"/>
</svg>
