<svg width="242" height="34" viewBox="0 0 242 34" fill="none" xmlns="http://www.w3.org/2000/svg">
<g clip-path="url(#clip0)">
<path d="M5.15488 7.32909V34.0007H0V3.01723C0 0.534255 2.83518 -0.881515 4.81552 0.611713L29.3012 19.0684C30.0572 19.6364 30.4997 20.5272 30.4997 21.4739V33.9964H25.3448V22.5497L5.15488 7.32909Z" fill="#1AAB9B"/>
<path d="M88.2902 4.73788C86.2669 4.73788 84.626 6.38172 84.626 8.40856V31.6117H89.3814V11.5069L95.7949 21.9896C96.5252 23.1816 97.8225 23.9089 99.2186 23.9089C100.61 23.9089 101.908 23.1859 102.638 21.9939L109.086 11.5026V31.6031H113.841V8.23643C113.841 6.30427 112.278 4.73788 110.349 4.73788C109.112 4.73788 107.965 5.39628 107.338 6.46779L99.3088 20.1693L91.4562 6.57107C90.8075 5.43501 89.5961 4.73788 88.2902 4.73788Z" fill="#1AAB9B"/>
<path fill-rule="evenodd" clip-rule="evenodd" d="M135.818 4.73788C134.246 4.73788 132.832 5.69751 132.257 7.16492L122.587 31.6117H127.192L130.195 24.5759H141.145L144.147 31.6117H149.036L139.383 7.16492C138.804 5.70181 137.39 4.73788 135.818 4.73788ZM135.668 10.2417L139.482 20.2081H131.836L135.668 10.2417Z" fill="#1AAB9B"/>
<path d="M161.906 17.0495L173.509 5.37046C173.913 4.96595 174.458 4.73788 175.034 4.73788C176.95 4.73788 177.908 7.06164 176.55 8.41716L167.345 17.596L180.919 31.6074H174.746L161.906 18.5987V31.6074H157.146V7.12188C157.146 5.80509 158.212 4.73788 159.526 4.73788C160.841 4.73788 161.906 5.80509 161.906 7.12188V17.0495Z" fill="#1AAB9B"/>
<path d="M189.334 27.3084C189.334 29.6838 191.259 31.6117 193.63 31.6117H205.968C207.179 31.6117 208.158 30.6306 208.158 29.417C208.158 28.2035 207.179 27.2224 205.968 27.2224H194.111V19.9585H204.928C206.139 19.9585 207.119 18.9773 207.119 17.7638C207.119 16.5503 206.139 15.5692 204.928 15.5692H194.111V9.1229H205.968C207.179 9.1229 208.158 8.14175 208.158 6.92824C208.158 5.71472 207.179 4.73358 205.968 4.73358H193.63C191.259 4.73358 189.334 6.66144 189.334 9.03683V27.3084Z" fill="#1AAB9B"/>
<path fill-rule="evenodd" clip-rule="evenodd" d="M239.771 12.4321C239.771 13.2884 239.663 14.1104 239.448 14.8893C239.246 15.6595 238.92 16.404 238.465 17.1226C238.022 17.8413 237.412 18.4825 236.635 19.0505C235.866 19.6185 234.955 20.0575 233.898 20.3759L241.996 31.6074H235.806L228.292 21.1892H223.743V31.6074H218.988V9.04113C218.988 6.66574 220.912 4.73788 223.284 4.73788H230.41C230.977 4.73788 231.493 4.75509 231.957 4.79382C232.433 4.81964 233.009 4.8928 233.675 5.0219C234.354 5.13378 234.951 5.293 235.466 5.49525C235.995 5.69751 236.536 5.99443 237.09 6.38603C237.657 6.77762 238.121 7.23807 238.486 7.76737C238.864 8.28376 239.173 8.94646 239.41 9.75117C239.655 10.543 239.771 11.438 239.771 12.4321ZM223.747 9.10568V16.8042H228.129C228.885 16.8042 229.551 16.7784 230.131 16.7267C230.711 16.6751 231.308 16.5761 231.922 16.4255C232.541 16.262 233.043 16.0425 233.434 15.7628C233.838 15.4874 234.165 15.1001 234.414 14.6095C234.676 14.119 234.809 13.538 234.809 12.871C234.809 10.3622 232.876 9.10568 229.014 9.10568H223.747Z" fill="#1AAB9B"/>
<path d="M59.7105 34V7.32844L39.5206 22.549V34H34.3657V21.4775C34.3657 20.5308 34.8082 19.64 35.5642 19.072L60.0499 0.615365C62.0302 -0.882167 64.8654 0.533604 64.8654 3.01658V34H59.7105Z" fill="#1AAB9B"/>
</g>
<defs>
<clipPath id="clip0">
<rect width="242" height="34" fill="white"/>
</clipPath>
</defs>
</svg>
