<svg width="375" height="34" viewBox="0 0 375 34" fill="none" xmlns="http://www.w3.org/2000/svg">
<g clip-path="url(#clip0)">
<path d="M5.15488 7.32911V34.0007H0V3.01725C0 0.534271 2.83518 -0.881499 4.81552 0.611729L29.3012 19.0684C30.0572 19.6364 30.4997 20.5272 30.4997 21.4739V33.9964H25.3448V22.5497L5.15488 7.32911Z" fill="#1AAB9B"/>
<path d="M88.2902 7C86.2669 7 84.626 8.64384 84.626 10.6707V33.8738H89.3814V13.769L95.7949 24.2517C96.5252 25.4437 97.8225 26.171 99.2186 26.171C100.61 26.171 101.908 25.448 102.638 24.256L109.086 13.7647V33.8652H113.841V10.4985C113.841 8.56638 112.278 7 110.349 7C109.112 7 107.965 7.6584 107.338 8.72991L99.3088 22.4315L91.4562 8.83319C90.8075 7.69713 89.5961 7 88.2902 7Z" fill="#1AAB9B"/>
<path fill-rule="evenodd" clip-rule="evenodd" d="M135.818 7C134.246 7 132.832 7.95963 132.257 9.42703L122.587 33.8738H127.192L130.195 26.838H141.145L144.147 33.8738H149.036L139.383 9.42703C138.804 7.96393 137.39 7 135.818 7ZM135.668 12.5039L139.482 22.4702H131.836L135.668 12.5039Z" fill="#1AAB9B"/>
<path d="M161.906 19.3116L173.509 7.63258C173.913 7.22807 174.458 7 175.034 7C176.95 7 177.908 9.32376 176.55 10.6793L167.345 19.8581L180.919 33.8695H174.746L161.906 20.8608V33.8695H157.146V9.384C157.146 8.06721 158.212 7 159.526 7C160.841 7 161.906 8.06721 161.906 9.384V19.3116Z" fill="#1AAB9B"/>
<path d="M189.334 29.5749C189.334 31.9503 191.259 33.8781 193.63 33.8781H205.968C207.179 33.8781 208.158 32.897 208.158 31.6835C208.158 30.4699 207.179 29.4888 205.968 29.4888H194.111V22.2249H204.928C206.139 22.2249 207.119 21.2438 207.119 20.0303C207.119 18.8167 206.139 17.8356 204.928 17.8356H194.111V11.3893H205.968C207.179 11.3893 208.158 10.4082 208.158 9.19466C208.158 7.98114 207.179 7 205.968 7H193.63C191.259 7 189.334 8.92786 189.334 11.3033V29.5749Z" fill="#1AAB9B"/>
<path fill-rule="evenodd" clip-rule="evenodd" d="M239.771 14.6942C239.771 15.5506 239.663 16.3725 239.448 17.1514C239.246 17.9217 238.92 18.6661 238.465 19.3848C238.022 20.1034 237.412 20.7446 236.635 21.3126C235.866 21.8806 234.955 22.3196 233.898 22.638L241.996 33.8695H235.806L228.292 23.4513H223.743V33.8695H218.988V11.3033C218.988 8.92786 220.912 7 223.284 7H230.41C230.977 7 231.493 7.01721 231.957 7.05594C232.433 7.08176 233.009 7.15492 233.675 7.28401C234.354 7.3959 234.951 7.55512 235.466 7.75737C235.995 7.95963 236.536 8.25655 237.09 8.64815C237.657 9.03974 238.121 9.50019 238.486 10.0295C238.864 10.5459 239.173 11.2086 239.41 12.0133C239.655 12.8051 239.771 13.7002 239.771 14.6942ZM223.747 11.3678V19.0663H228.129C228.885 19.0663 229.551 19.0405 230.131 18.9889C230.711 18.9372 231.308 18.8382 231.922 18.6876C232.541 18.5241 233.043 18.3046 233.434 18.0249C233.838 17.7495 234.165 17.3622 234.414 16.8717C234.676 16.3811 234.809 15.8002 234.809 15.1331C234.809 12.6244 232.876 11.3678 229.014 11.3678H223.747Z" fill="#1AAB9B"/>
<path d="M59.7107 34V7.32843L39.5207 22.549V34H34.3658V21.4775C34.3658 20.5308 34.8083 19.64 35.5644 19.072L60.05 0.615355C62.0303 -0.882176 64.8655 0.533594 64.8655 3.01657V34H59.7107Z" fill="#1AAB9B"/>
</g>
<rect x="256" y="5" width="119" height="29" rx="4" fill="#1AAB9B"/>
<path d="M272.184 13.2031L275.875 23.0117L279.558 13.2031H282.432V26H280.217V21.7812L280.437 16.1387L276.657 26H275.066L271.296 16.1475L271.516 21.7812V26H269.301V13.2031H272.184ZM287.415 26H285.2V13.2031H287.415V26ZM292.372 21.2451V26H290.148V13.2031H295.044C296.474 13.2031 297.607 13.5752 298.445 14.3193C299.289 15.0635 299.711 16.0479 299.711 17.2725C299.711 18.5264 299.298 19.502 298.472 20.1992C297.651 20.8965 296.5 21.2451 295.018 21.2451H292.372ZM292.372 19.4609H295.044C295.835 19.4609 296.438 19.2764 296.854 18.9072C297.271 18.5322 297.479 17.9932 297.479 17.29C297.479 16.5986 297.268 16.0479 296.846 15.6377C296.424 15.2217 295.844 15.0078 295.105 14.9961H292.372V19.4609ZM306.786 23.416C306.786 23.0352 306.628 22.7451 306.312 22.5459C306.001 22.3467 305.482 22.1709 304.756 22.0186C304.029 21.8662 303.423 21.6729 302.937 21.4385C301.87 20.9229 301.337 20.1758 301.337 19.1973C301.337 18.377 301.683 17.6914 302.374 17.1406C303.065 16.5898 303.944 16.3145 305.011 16.3145C306.147 16.3145 307.064 16.5957 307.762 17.1582C308.465 17.7207 308.816 18.4502 308.816 19.3467H306.681C306.681 18.9365 306.528 18.5967 306.224 18.3271C305.919 18.0518 305.515 17.9141 305.011 17.9141C304.542 17.9141 304.158 18.0225 303.859 18.2393C303.566 18.4561 303.42 18.7461 303.42 19.1094C303.42 19.4375 303.558 19.6924 303.833 19.874C304.108 20.0557 304.665 20.2402 305.503 20.4277C306.341 20.6094 306.997 20.8291 307.472 21.0869C307.952 21.3389 308.307 21.6436 308.535 22.001C308.77 22.3584 308.887 22.792 308.887 23.3018C308.887 24.1572 308.532 24.8516 307.823 25.3848C307.114 25.9121 306.186 26.1758 305.037 26.1758C304.258 26.1758 303.563 26.0352 302.954 25.7539C302.345 25.4727 301.87 25.0859 301.53 24.5938C301.19 24.1016 301.021 23.5713 301.021 23.0029H303.095C303.124 23.5068 303.314 23.8965 303.666 24.1719C304.018 24.4414 304.483 24.5762 305.063 24.5762C305.626 24.5762 306.054 24.4707 306.347 24.2598C306.64 24.043 306.786 23.7617 306.786 23.416ZM317.667 21.2451V26H315.443V13.2031H320.339C321.769 13.2031 322.902 13.5752 323.74 14.3193C324.584 15.0635 325.006 16.0479 325.006 17.2725C325.006 18.5264 324.593 19.502 323.767 20.1992C322.946 20.8965 321.795 21.2451 320.312 21.2451H317.667ZM317.667 19.4609H320.339C321.13 19.4609 321.733 19.2764 322.149 18.9072C322.565 18.5322 322.773 17.9932 322.773 17.29C322.773 16.5986 322.562 16.0479 322.141 15.6377C321.719 15.2217 321.139 15.0078 320.4 14.9961H317.667V19.4609ZM326.228 21.1572C326.228 20.2256 326.412 19.3877 326.781 18.6436C327.15 17.8936 327.669 17.3193 328.337 16.9209C329.005 16.5166 329.772 16.3145 330.64 16.3145C331.923 16.3145 332.963 16.7275 333.76 17.5537C334.562 18.3799 334.996 19.4756 335.061 20.8408L335.069 21.3418C335.069 22.2793 334.888 23.1172 334.524 23.8555C334.167 24.5938 333.651 25.165 332.978 25.5693C332.31 25.9736 331.536 26.1758 330.657 26.1758C329.315 26.1758 328.24 25.7305 327.432 24.8398C326.629 23.9434 326.228 22.751 326.228 21.2627V21.1572ZM328.363 21.3418C328.363 22.3203 328.565 23.0879 328.97 23.6445C329.374 24.1953 329.937 24.4707 330.657 24.4707C331.378 24.4707 331.938 24.1895 332.336 23.627C332.74 23.0645 332.942 22.2412 332.942 21.1572C332.942 20.1963 332.734 19.4346 332.318 18.8721C331.908 18.3096 331.349 18.0283 330.64 18.0283C329.942 18.0283 329.389 18.3066 328.979 18.8633C328.568 19.4141 328.363 20.2402 328.363 21.3418ZM341.854 18.4414C341.573 18.3945 341.283 18.3711 340.984 18.3711C340.006 18.3711 339.347 18.7461 339.007 19.4961V26H336.871V16.4902H338.91L338.963 17.5537C339.479 16.7275 340.193 16.3145 341.107 16.3145C341.412 16.3145 341.664 16.3555 341.863 16.4375L341.854 18.4414ZM346.319 14.1787V16.4902H347.998V18.0723H346.319V23.3809C346.319 23.7441 346.39 24.0078 346.53 24.1719C346.677 24.3301 346.935 24.4092 347.304 24.4092C347.55 24.4092 347.799 24.3799 348.051 24.3213V25.9736C347.564 26.1084 347.096 26.1758 346.645 26.1758C345.004 26.1758 344.184 25.2705 344.184 23.46V18.0723H342.619V16.4902H344.184V14.1787H346.319ZM355.319 26C355.226 25.8184 355.144 25.5225 355.073 25.1123C354.394 25.8213 353.562 26.1758 352.577 26.1758C351.622 26.1758 350.843 25.9033 350.239 25.3584C349.636 24.8135 349.334 24.1396 349.334 23.3369C349.334 22.3232 349.709 21.5469 350.459 21.0078C351.215 20.4629 352.293 20.1904 353.693 20.1904H355.003V19.5664C355.003 19.0742 354.865 18.6816 354.59 18.3887C354.314 18.0898 353.896 17.9404 353.333 17.9404C352.847 17.9404 352.448 18.0635 352.138 18.3096C351.827 18.5498 351.672 18.8574 351.672 19.2324H349.536C349.536 18.7109 349.709 18.2246 350.055 17.7734C350.4 17.3164 350.869 16.959 351.461 16.7012C352.059 16.4434 352.724 16.3145 353.456 16.3145C354.569 16.3145 355.457 16.5957 356.119 17.1582C356.781 17.7148 357.121 18.5 357.139 19.5137V23.8027C357.139 24.6582 357.259 25.3408 357.499 25.8506V26H355.319ZM352.973 24.4619C353.395 24.4619 353.79 24.3594 354.159 24.1543C354.534 23.9492 354.815 23.6738 355.003 23.3281V21.5352H353.852C353.061 21.5352 352.466 21.6729 352.067 21.9482C351.669 22.2236 351.47 22.6133 351.47 23.1172C351.47 23.5273 351.604 23.8555 351.874 24.1016C352.149 24.3418 352.516 24.4619 352.973 24.4619ZM361.647 26H359.512V12.5H361.647V26Z" fill="white"/>
<defs>
<clipPath id="clip0">
<rect width="242" height="34" fill="white"/>
</clipPath>
</defs>
</svg>
