<svg width="373" height="34" viewBox="0 0 373 34" fill="none" xmlns="http://www.w3.org/2000/svg">
<g clip-path="url(#clip0)">
<path d="M5.15488 7.32909V34.0007H0V3.01723C0 0.534255 2.83518 -0.881515 4.81552 0.611713L29.3012 19.0684C30.0572 19.6364 30.4997 20.5272 30.4997 21.4739V33.9964H25.3448V22.5497L5.15488 7.32909Z" fill="#1AAB9B"/>
<path d="M88.2902 4.73788C86.2669 4.73788 84.626 6.38172 84.626 8.40856V31.6117H89.3814V11.5069L95.7949 21.9896C96.5252 23.1816 97.8225 23.9089 99.2186 23.9089C100.61 23.9089 101.908 23.1859 102.638 21.9939L109.086 11.5026V31.6031H113.841V8.23643C113.841 6.30427 112.278 4.73788 110.349 4.73788C109.112 4.73788 107.965 5.39628 107.338 6.46779L99.3088 20.1693L91.4562 6.57107C90.8075 5.43501 89.5961 4.73788 88.2902 4.73788Z" fill="#1AAB9B"/>
<path fill-rule="evenodd" clip-rule="evenodd" d="M135.818 4.73788C134.246 4.73788 132.832 5.69751 132.257 7.16492L122.587 31.6117H127.192L130.195 24.5759H141.145L144.147 31.6117H149.036L139.383 7.16492C138.804 5.70181 137.39 4.73788 135.818 4.73788ZM135.668 10.2417L139.482 20.2081H131.836L135.668 10.2417Z" fill="#1AAB9B"/>
<path d="M161.906 17.0495L173.509 5.37046C173.913 4.96595 174.458 4.73788 175.034 4.73788C176.95 4.73788 177.908 7.06164 176.55 8.41716L167.345 17.596L180.919 31.6074H174.746L161.906 18.5987V31.6074H157.146V7.12188C157.146 5.80509 158.212 4.73788 159.526 4.73788C160.841 4.73788 161.906 5.80509 161.906 7.12188V17.0495Z" fill="#1AAB9B"/>
<path d="M189.334 27.3084C189.334 29.6838 191.259 31.6117 193.63 31.6117H205.968C207.179 31.6117 208.158 30.6306 208.158 29.417C208.158 28.2035 207.179 27.2224 205.968 27.2224H194.111V19.9585H204.928C206.139 19.9585 207.119 18.9773 207.119 17.7638C207.119 16.5503 206.139 15.5692 204.928 15.5692H194.111V9.1229H205.968C207.179 9.1229 208.158 8.14175 208.158 6.92824C208.158 5.71472 207.179 4.73358 205.968 4.73358H193.63C191.259 4.73358 189.334 6.66144 189.334 9.03683V27.3084Z" fill="#1AAB9B"/>
<path fill-rule="evenodd" clip-rule="evenodd" d="M239.771 12.4321C239.771 13.2884 239.663 14.1104 239.448 14.8893C239.246 15.6595 238.92 16.404 238.465 17.1226C238.022 17.8413 237.412 18.4825 236.635 19.0505C235.866 19.6185 234.955 20.0575 233.898 20.3759L241.996 31.6074H235.806L228.292 21.1892H223.743V31.6074H218.988V9.04113C218.988 6.66574 220.912 4.73788 223.284 4.73788H230.41C230.977 4.73788 231.493 4.75509 231.957 4.79382C232.433 4.81964 233.009 4.8928 233.675 5.0219C234.354 5.13378 234.951 5.293 235.466 5.49525C235.995 5.69751 236.536 5.99443 237.09 6.38603C237.657 6.77762 238.121 7.23807 238.486 7.76737C238.864 8.28376 239.173 8.94646 239.41 9.75117C239.655 10.543 239.771 11.438 239.771 12.4321ZM223.747 9.10568V16.8042H228.129C228.885 16.8042 229.551 16.7784 230.131 16.7267C230.711 16.6751 231.308 16.5761 231.922 16.4255C232.541 16.262 233.043 16.0425 233.434 15.7628C233.838 15.4874 234.165 15.1001 234.414 14.6095C234.676 14.119 234.809 13.538 234.809 12.871C234.809 10.3622 232.876 9.10568 229.014 9.10568H223.747Z" fill="#1AAB9B"/>
<path d="M59.7105 34V7.32844L39.5206 22.549V34H34.3657V21.4775C34.3657 20.5308 34.8082 19.64 35.5642 19.072L60.0499 0.615365C62.0302 -0.882167 64.8654 0.533604 64.8654 3.01658V34H59.7105Z" fill="#1AAB9B"/>
</g>
<rect x="256" y="5" width="117" height="29" rx="4" fill="#1AAB9B"/>
<path d="M274.184 13.2031L277.875 23.0117L281.558 13.2031H284.432V26H282.217V21.7812L282.437 16.1387L278.657 26H277.066L273.296 16.1475L273.516 21.7812V26H271.301V13.2031H274.184ZM289.415 26H287.2V13.2031H289.415V26ZM294.372 21.2451V26H292.148V13.2031H297.044C298.474 13.2031 299.607 13.5752 300.445 14.3193C301.289 15.0635 301.711 16.0479 301.711 17.2725C301.711 18.5264 301.298 19.502 300.472 20.1992C299.651 20.8965 298.5 21.2451 297.018 21.2451H294.372ZM294.372 19.4609H297.044C297.835 19.4609 298.438 19.2764 298.854 18.9072C299.271 18.5322 299.479 17.9932 299.479 17.29C299.479 16.5986 299.268 16.0479 298.846 15.6377C298.424 15.2217 297.844 15.0078 297.105 14.9961H294.372V19.4609ZM308.786 23.416C308.786 23.0352 308.628 22.7451 308.312 22.5459C308.001 22.3467 307.482 22.1709 306.756 22.0186C306.029 21.8662 305.423 21.6729 304.937 21.4385C303.87 20.9229 303.337 20.1758 303.337 19.1973C303.337 18.377 303.683 17.6914 304.374 17.1406C305.065 16.5898 305.944 16.3145 307.011 16.3145C308.147 16.3145 309.064 16.5957 309.762 17.1582C310.465 17.7207 310.816 18.4502 310.816 19.3467H308.681C308.681 18.9365 308.528 18.5967 308.224 18.3271C307.919 18.0518 307.515 17.9141 307.011 17.9141C306.542 17.9141 306.158 18.0225 305.859 18.2393C305.566 18.4561 305.42 18.7461 305.42 19.1094C305.42 19.4375 305.558 19.6924 305.833 19.874C306.108 20.0557 306.665 20.2402 307.503 20.4277C308.341 20.6094 308.997 20.8291 309.472 21.0869C309.952 21.3389 310.307 21.6436 310.535 22.001C310.77 22.3584 310.887 22.792 310.887 23.3018C310.887 24.1572 310.532 24.8516 309.823 25.3848C309.114 25.9121 308.186 26.1758 307.037 26.1758C306.258 26.1758 305.563 26.0352 304.954 25.7539C304.345 25.4727 303.87 25.0859 303.53 24.5938C303.19 24.1016 303.021 23.5713 303.021 23.0029H305.095C305.124 23.5068 305.314 23.8965 305.666 24.1719C306.018 24.4414 306.483 24.5762 307.063 24.5762C307.626 24.5762 308.054 24.4707 308.347 24.2598C308.64 24.043 308.786 23.7617 308.786 23.416ZM319.667 21.2451V26H317.443V13.2031H322.339C323.769 13.2031 324.902 13.5752 325.74 14.3193C326.584 15.0635 327.006 16.0479 327.006 17.2725C327.006 18.5264 326.593 19.502 325.767 20.1992C324.946 20.8965 323.795 21.2451 322.312 21.2451H319.667ZM319.667 19.4609H322.339C323.13 19.4609 323.733 19.2764 324.149 18.9072C324.565 18.5322 324.773 17.9932 324.773 17.29C324.773 16.5986 324.562 16.0479 324.141 15.6377C323.719 15.2217 323.139 15.0078 322.4 14.9961H319.667V19.4609ZM328.228 21.1572C328.228 20.2256 328.412 19.3877 328.781 18.6436C329.15 17.8936 329.669 17.3193 330.337 16.9209C331.005 16.5166 331.772 16.3145 332.64 16.3145C333.923 16.3145 334.963 16.7275 335.76 17.5537C336.562 18.3799 336.996 19.4756 337.061 20.8408L337.069 21.3418C337.069 22.2793 336.888 23.1172 336.524 23.8555C336.167 24.5938 335.651 25.165 334.978 25.5693C334.31 25.9736 333.536 26.1758 332.657 26.1758C331.315 26.1758 330.24 25.7305 329.432 24.8398C328.629 23.9434 328.228 22.751 328.228 21.2627V21.1572ZM330.363 21.3418C330.363 22.3203 330.565 23.0879 330.97 23.6445C331.374 24.1953 331.937 24.4707 332.657 24.4707C333.378 24.4707 333.938 24.1895 334.336 23.627C334.74 23.0645 334.942 22.2412 334.942 21.1572C334.942 20.1963 334.734 19.4346 334.318 18.8721C333.908 18.3096 333.349 18.0283 332.64 18.0283C331.942 18.0283 331.389 18.3066 330.979 18.8633C330.568 19.4141 330.363 20.2402 330.363 21.3418ZM343.854 18.4414C343.573 18.3945 343.283 18.3711 342.984 18.3711C342.006 18.3711 341.347 18.7461 341.007 19.4961V26H338.871V16.4902H340.91L340.963 17.5537C341.479 16.7275 342.193 16.3145 343.107 16.3145C343.412 16.3145 343.664 16.3555 343.863 16.4375L343.854 18.4414ZM348.319 14.1787V16.4902H349.998V18.0723H348.319V23.3809C348.319 23.7441 348.39 24.0078 348.53 24.1719C348.677 24.3301 348.935 24.4092 349.304 24.4092C349.55 24.4092 349.799 24.3799 350.051 24.3213V25.9736C349.564 26.1084 349.096 26.1758 348.645 26.1758C347.004 26.1758 346.184 25.2705 346.184 23.46V18.0723H344.619V16.4902H346.184V14.1787H348.319ZM357.319 26C357.226 25.8184 357.144 25.5225 357.073 25.1123C356.394 25.8213 355.562 26.1758 354.577 26.1758C353.622 26.1758 352.843 25.9033 352.239 25.3584C351.636 24.8135 351.334 24.1396 351.334 23.3369C351.334 22.3232 351.709 21.5469 352.459 21.0078C353.215 20.4629 354.293 20.1904 355.693 20.1904H357.003V19.5664C357.003 19.0742 356.865 18.6816 356.59 18.3887C356.314 18.0898 355.896 17.9404 355.333 17.9404C354.847 17.9404 354.448 18.0635 354.138 18.3096C353.827 18.5498 353.672 18.8574 353.672 19.2324H351.536C351.536 18.7109 351.709 18.2246 352.055 17.7734C352.4 17.3164 352.869 16.959 353.461 16.7012C354.059 16.4434 354.724 16.3145 355.456 16.3145C356.569 16.3145 357.457 16.5957 358.119 17.1582C358.781 17.7148 359.121 18.5 359.139 19.5137V23.8027C359.139 24.6582 359.259 25.3408 359.499 25.8506V26H357.319ZM354.973 24.4619C355.395 24.4619 355.79 24.3594 356.159 24.1543C356.534 23.9492 356.815 23.6738 357.003 23.3281V21.5352H355.852C355.061 21.5352 354.466 21.6729 354.067 21.9482C353.669 22.2236 353.47 22.6133 353.47 23.1172C353.47 23.5273 353.604 23.8555 353.874 24.1016C354.149 24.3418 354.516 24.4619 354.973 24.4619ZM363.647 26H361.512V12.5H363.647V26Z" fill="white"/>
<defs>
<clipPath id="clip0">
<rect width="242" height="34" fill="white"/>
</clipPath>
</defs>
</svg>
