<svg width="375" height="34" viewBox="0 0 375 34" fill="none" xmlns="http://www.w3.org/2000/svg">
<path d="M88.2902 6.99887C86.2669 6.99887 84.626 8.64271 84.626 10.6695V33.8727H89.3814V13.7679L95.7949 24.2506C96.5252 25.4426 97.8225 26.1699 99.2186 26.1699C100.61 26.1699 101.908 25.4469 102.638 24.2549L109.086 13.7636V33.8641H113.841V10.4974C113.841 8.56525 112.278 6.99887 110.349 6.99887C109.112 6.99887 107.965 7.65727 107.338 8.72878L99.3088 22.4303L91.4562 8.83206C90.8075 7.696 89.5961 6.99887 88.2902 6.99887Z" fill="#478DED"/>
<path fill-rule="evenodd" clip-rule="evenodd" d="M135.818 6.99887C134.246 6.99887 132.832 7.9585 132.257 9.42591L122.587 33.8727H127.192L130.195 26.8369H141.145L144.147 33.8727H149.036L139.383 9.42591C138.804 7.9628 137.39 6.99887 135.818 6.99887ZM135.668 12.5027L139.482 22.4691H131.836L135.668 12.5027Z" fill="#478DED"/>
<path d="M161.906 19.3105L173.509 7.63145C173.913 7.22694 174.458 6.99887 175.034 6.99887C176.95 6.99887 177.908 9.32263 176.55 10.6782L167.345 19.857L180.919 33.8684H174.746L161.906 20.8596V33.8684H157.146V9.38287C157.146 8.06608 158.212 6.99887 159.526 6.99887C160.841 6.99887 161.906 8.06608 161.906 9.38287V19.3105Z" fill="#478DED"/>
<path d="M189.334 29.5737C189.334 31.9491 191.259 33.877 193.63 33.877H205.968C207.179 33.877 208.158 32.8958 208.158 31.6823C208.158 30.4688 207.179 29.4877 205.968 29.4877H194.111V22.2238H204.928C206.139 22.2238 207.119 21.2426 207.119 20.0291C207.119 18.8156 206.139 17.8345 204.928 17.8345H194.111V11.3882H205.968C207.179 11.3882 208.158 10.407 208.158 9.19353C208.158 7.98001 207.179 6.99887 205.968 6.99887H193.63C191.259 6.99887 189.334 8.92673 189.334 11.3021V29.5737Z" fill="#478DED"/>
<path fill-rule="evenodd" clip-rule="evenodd" d="M239.771 14.6931C239.771 15.5494 239.663 16.3714 239.448 17.1502C239.246 17.9205 238.92 18.665 238.465 19.3836C238.022 20.1023 237.412 20.7435 236.635 21.3115C235.866 21.8795 234.955 22.3184 233.898 22.6369L241.996 33.8684H235.806L228.292 23.4502H223.743V33.8684H218.988V11.3021C218.988 8.92673 220.912 6.99887 223.284 6.99887H230.41C230.977 6.99887 231.493 7.01608 231.957 7.05481C232.433 7.08063 233.009 7.15379 233.675 7.28289C234.354 7.39477 234.951 7.55399 235.466 7.75624C235.995 7.9585 236.536 8.25542 237.09 8.64702C237.657 9.03861 238.121 9.49906 238.486 10.0284C238.864 10.5448 239.173 11.2075 239.41 12.0122C239.655 12.804 239.771 13.699 239.771 14.6931ZM223.747 11.3667V19.0652H228.129C228.885 19.0652 229.551 19.0394 230.131 18.9877C230.711 18.9361 231.308 18.8371 231.922 18.6865C232.541 18.523 233.043 18.3035 233.434 18.0238C233.838 17.7484 234.165 17.3611 234.414 16.8705C234.676 16.38 234.809 15.799 234.809 15.132C234.809 12.6232 232.876 11.3667 229.014 11.3667H223.747Z" fill="#478DED"/>
<path d="M5.16557 7.32795V33.9995H0V3.01609C0 0.533111 2.84107 -0.882659 4.82551 0.61057L29.362 19.0672C30.1196 19.6353 30.563 20.526 30.563 21.4727V33.9952H25.3974V22.5486L5.16557 7.32795Z" fill="#478DED"/>
<path d="M59.8344 33.9989V7.3273L39.6026 22.5479V33.9989H34.437V21.4764C34.437 20.5297 34.8804 19.6389 35.638 19.0709L60.1745 0.614226C62.1589 -0.883306 65 0.532465 65 3.01544V33.9989H59.8344Z" fill="#478DED"/>
<rect x="256" y="4.99887" width="119" height="29" rx="4" fill="#478DED"/>
<path d="M272.184 13.202L275.875 23.0106L279.558 13.202H282.432V25.9989H280.217V21.7801L280.437 16.1375L276.657 25.9989H275.066L271.296 16.1463L271.516 21.7801V25.9989H269.301V13.202H272.184ZM287.415 25.9989H285.2V13.202H287.415V25.9989ZM292.372 21.244V25.9989H290.148V13.202H295.044C296.474 13.202 297.607 13.5741 298.445 14.3182C299.289 15.0623 299.711 16.0467 299.711 17.2713C299.711 18.5252 299.298 19.5008 298.472 20.1981C297.651 20.8954 296.5 21.244 295.018 21.244H292.372ZM292.372 19.4598H295.044C295.835 19.4598 296.438 19.2752 296.854 18.9061C297.271 18.5311 297.479 17.992 297.479 17.2889C297.479 16.5975 297.268 16.0467 296.846 15.6366C296.424 15.2206 295.844 15.0067 295.105 14.995H292.372V19.4598ZM306.786 23.4149C306.786 23.034 306.628 22.744 306.312 22.5448C306.001 22.3456 305.482 22.1698 304.756 22.0174C304.029 21.8651 303.423 21.6717 302.937 21.4373C301.87 20.9217 301.337 20.1747 301.337 19.1961C301.337 18.3758 301.683 17.6903 302.374 17.1395C303.065 16.5887 303.944 16.3133 305.011 16.3133C306.147 16.3133 307.064 16.5946 307.762 17.1571C308.465 17.7196 308.816 18.4491 308.816 19.3456H306.681C306.681 18.9354 306.528 18.5956 306.224 18.326C305.919 18.0506 305.515 17.9129 305.011 17.9129C304.542 17.9129 304.158 18.0213 303.859 18.2381C303.566 18.4549 303.42 18.745 303.42 19.1082C303.42 19.4364 303.558 19.6913 303.833 19.8729C304.108 20.0545 304.665 20.2391 305.503 20.4266C306.341 20.6082 306.997 20.828 307.472 21.0858C307.952 21.3377 308.307 21.6424 308.535 21.9998C308.77 22.3573 308.887 22.7909 308.887 23.3006C308.887 24.1561 308.532 24.8504 307.823 25.3836C307.114 25.911 306.186 26.1747 305.037 26.1747C304.258 26.1747 303.563 26.034 302.954 25.7528C302.345 25.4715 301.87 25.0848 301.53 24.5926C301.19 24.1004 301.021 23.5702 301.021 23.0018H303.095C303.124 23.5057 303.314 23.8954 303.666 24.1707C304.018 24.4403 304.483 24.575 305.063 24.575C305.626 24.575 306.054 24.4696 306.347 24.2586C306.64 24.0418 306.786 23.7606 306.786 23.4149ZM317.667 21.244V25.9989H315.443V13.202H320.339C321.769 13.202 322.902 13.5741 323.74 14.3182C324.584 15.0623 325.006 16.0467 325.006 17.2713C325.006 18.5252 324.593 19.5008 323.767 20.1981C322.946 20.8954 321.795 21.244 320.312 21.244H317.667ZM317.667 19.4598H320.339C321.13 19.4598 321.733 19.2752 322.149 18.9061C322.565 18.5311 322.773 17.992 322.773 17.2889C322.773 16.5975 322.562 16.0467 322.141 15.6366C321.719 15.2206 321.139 15.0067 320.4 14.995H317.667V19.4598ZM326.228 21.1561C326.228 20.2245 326.412 19.3866 326.781 18.6424C327.15 17.8924 327.669 17.3182 328.337 16.9198C329.005 16.5155 329.772 16.3133 330.64 16.3133C331.923 16.3133 332.963 16.7264 333.76 17.5526C334.562 18.3788 334.996 19.4745 335.061 20.8397L335.069 21.3407C335.069 22.2782 334.888 23.1161 334.524 23.8543C334.167 24.5926 333.651 25.1639 332.978 25.5682C332.31 25.9725 331.536 26.1747 330.657 26.1747C329.315 26.1747 328.24 25.7293 327.432 24.8387C326.629 23.9422 326.228 22.7498 326.228 21.2616V21.1561ZM328.363 21.3407C328.363 22.3192 328.565 23.0868 328.97 23.6434C329.374 24.1942 329.937 24.4696 330.657 24.4696C331.378 24.4696 331.938 24.1883 332.336 23.6258C332.74 23.0633 332.942 22.2401 332.942 21.1561C332.942 20.1952 332.734 19.4334 332.318 18.8709C331.908 18.3084 331.349 18.0272 330.64 18.0272C329.942 18.0272 329.389 18.3055 328.979 18.8622C328.568 19.4129 328.363 20.2391 328.363 21.3407ZM341.854 18.4403C341.573 18.3934 341.283 18.37 340.984 18.37C340.006 18.37 339.347 18.745 339.007 19.495V25.9989H336.871V16.4891H338.91L338.963 17.5526C339.479 16.7264 340.193 16.3133 341.107 16.3133C341.412 16.3133 341.664 16.3543 341.863 16.4364L341.854 18.4403ZM346.319 14.1776V16.4891H347.998V18.0711H346.319V23.3797C346.319 23.743 346.39 24.0067 346.53 24.1707C346.677 24.3289 346.935 24.4081 347.304 24.4081C347.55 24.4081 347.799 24.3788 348.051 24.3202V25.9725C347.564 26.1073 347.096 26.1747 346.645 26.1747C345.004 26.1747 344.184 25.2694 344.184 23.4588V18.0711H342.619V16.4891H344.184V14.1776H346.319ZM355.319 25.9989C355.226 25.8172 355.144 25.5213 355.073 25.1112C354.394 25.8202 353.562 26.1747 352.577 26.1747C351.622 26.1747 350.843 25.9022 350.239 25.3573C349.636 24.8123 349.334 24.1385 349.334 23.3358C349.334 22.3221 349.709 21.5457 350.459 21.0067C351.215 20.4618 352.293 20.1893 353.693 20.1893H355.003V19.5653C355.003 19.0731 354.865 18.6805 354.59 18.3875C354.314 18.0887 353.896 17.9393 353.333 17.9393C352.847 17.9393 352.448 18.0623 352.138 18.3084C351.827 18.5487 351.672 18.8563 351.672 19.2313H349.536C349.536 18.7098 349.709 18.2235 350.055 17.7723C350.4 17.3153 350.869 16.9579 351.461 16.7C352.059 16.4422 352.724 16.3133 353.456 16.3133C354.569 16.3133 355.457 16.5946 356.119 17.1571C356.781 17.7137 357.121 18.4989 357.139 19.5125V23.8016C357.139 24.6571 357.259 25.3397 357.499 25.8495V25.9989H355.319ZM352.973 24.4608C353.395 24.4608 353.79 24.3582 354.159 24.1532C354.534 23.9481 354.815 23.6727 355.003 23.327V21.534H353.852C353.061 21.534 352.466 21.6717 352.067 21.9471C351.669 22.2225 351.47 22.6122 351.47 23.1161C351.47 23.5262 351.604 23.8543 351.874 24.1004C352.149 24.3407 352.516 24.4608 352.973 24.4608ZM361.647 25.9989H359.512V12.4989H361.647V25.9989Z" fill="white"/>
</svg>
