<svg width="193" height="22" viewBox="0 0 193 22" fill="none" xmlns="http://www.w3.org/2000/svg">
<path d="M2.53521 7.87956V22H0V5.59678C0 4.28224 1.39437 3.5327 2.36831 4.32325L14.4106 14.0946C14.7824 14.3953 15 14.8669 15 15.3681V21.9977H12.4648V15.9376L2.53521 7.87956Z" fill="#1AAB9B"/>
<path d="M44.8813 7C43.8425 7 43 7.85637 43 8.91225V21H45.4416V10.5263L48.7345 15.9873C49.1094 16.6083 49.7755 16.9872 50.4923 16.9872C51.2069 16.9872 51.873 16.6106 52.2479 15.9896L55.5584 10.5241V20.9955H58V8.82258C58 7.81601 57.1972 7 56.2069 7C55.5717 7 54.9828 7.34299 54.6608 7.9012L50.5386 15.0391L46.5068 7.955C46.1738 7.36317 45.5518 7 44.8813 7Z" fill="#1AAB9B"/>
<path fill-rule="evenodd" clip-rule="evenodd" d="M69.0034 7C68.1712 7 67.4231 7.49992 67.1184 8.26437L62 21H64.4376L66.027 17.3347H71.823L73.4124 21H76L70.8907 8.26437C70.5837 7.50216 69.8356 7 69.0034 7ZM68.9238 9.86725L70.943 15.0592H66.8956L68.9238 9.86725Z" fill="#1AAB9B"/>
<path d="M82.4026 13.4148L88.2595 7.3296C88.4633 7.11883 88.7387 7 89.0293 7C89.9964 7 90.4799 8.21076 89.7947 8.91704L85.1478 13.6996L92 21H88.884L82.4026 14.222V21H80V8.24215C80 7.55605 80.5378 7 81.2013 7C81.8648 7 82.4026 7.55605 82.4026 8.24215V13.4148Z" fill="#1AAB9B"/>
<path d="M96 18.7586C96 19.9958 97.0224 21 98.2821 21H104.836C105.48 21 106 20.489 106 19.8569C106 19.2248 105.48 18.7137 104.836 18.7137H98.5377V14.9302H104.284C104.927 14.9302 105.448 14.4191 105.448 13.7871C105.448 13.155 104.927 12.6439 104.284 12.6439H98.5377V9.28626H104.836C105.48 9.28626 106 8.77522 106 8.14313C106 7.51105 105.48 7 104.836 7H98.2821C97.0224 7 96 8.00416 96 9.24143V18.7586Z" fill="#1AAB9B"/>
<path fill-rule="evenodd" clip-rule="evenodd" d="M121.839 11.009C121.839 11.4552 121.783 11.8834 121.671 12.2892C121.566 12.6906 121.396 13.0785 121.158 13.4529C120.928 13.8274 120.609 14.1614 120.204 14.4574C119.803 14.7534 119.328 14.9821 118.777 15.148L123 21H119.771L115.853 15.5718H113.48V21H111V9.24215C111 8.00448 112.004 7 113.24 7H116.957C117.253 7 117.522 7.00897 117.764 7.02915C118.013 7.0426 118.313 7.08072 118.66 7.14798C119.014 7.20628 119.326 7.28924 119.594 7.39462C119.87 7.5 120.152 7.65471 120.441 7.85874C120.737 8.06278 120.979 8.30269 121.17 8.57848C121.367 8.84753 121.528 9.19283 121.651 9.61211C121.779 10.0247 121.839 10.491 121.839 11.009ZM113.482 9.27578V13.287H115.768C116.162 13.287 116.509 13.2735 116.812 13.2466C117.114 13.2197 117.426 13.1682 117.746 13.0897C118.069 13.0045 118.331 12.8901 118.535 12.7444C118.745 12.6009 118.916 12.3991 119.046 12.1435C119.182 11.8879 119.252 11.5852 119.252 11.2377C119.252 9.93049 118.243 9.27578 116.229 9.27578H113.482Z" fill="#1AAB9B"/>
<path d="M30.2958 22V7.8789L19.7042 15.9374V22H17V15.3701C17 14.8688 17.2321 14.3972 17.6287 14.0965L30.4738 4.3247C31.5127 3.53184 33 4.28141 33 5.59601V22H30.2958Z" fill="#1AAB9B"/>
<path d="M130 10.2284C130 8.44539 131.446 7 133.231 7H189.769C191.554 7 193 8.44539 193 10.2284V18.7716C193 20.5546 191.554 22 189.769 22H133.231C131.446 22 130 20.5546 130 18.7716V10.2284Z" fill="#1AAB9B"/>
<path d="M137.561 11.3599L139.56 16.3805L141.553 11.3599H143.11V17.91H141.91V15.7506L142.029 12.8625L139.983 17.91H139.122L137.08 12.867L137.199 15.7506V17.91H136V11.3599H137.561Z" fill="white"/>
<path d="M145.808 17.91H144.609V11.3599H145.808V17.91Z" fill="white"/>
<path d="M148.492 15.4762V17.91H147.288V11.3599H149.938C150.712 11.3599 151.326 11.5503 151.78 11.9312C152.237 12.3121 152.465 12.816 152.465 13.4428C152.465 14.0846 152.242 14.584 151.794 14.9409C151.35 15.2978 150.727 15.4762 149.924 15.4762H148.492ZM148.492 14.563H149.938C150.367 14.563 150.693 14.4685 150.919 14.2796C151.144 14.0876 151.256 13.8117 151.256 13.4518C151.256 13.0979 151.142 12.816 150.914 12.606C150.685 12.3931 150.371 12.2836 149.972 12.2776H148.492V14.563Z" fill="white"/>
<path d="M156.296 16.5874C156.296 16.3925 156.21 16.244 156.039 16.142C155.871 16.0401 155.59 15.9501 155.197 15.8721C154.803 15.7941 154.475 15.6952 154.212 15.5752C153.634 15.3113 153.346 14.9289 153.346 14.428C153.346 14.0081 153.533 13.6572 153.907 13.3753C154.281 13.0934 154.757 12.9524 155.335 12.9524C155.95 12.9524 156.447 13.0964 156.824 13.3843C157.205 13.6722 157.395 14.0456 157.395 14.5045H156.239C156.239 14.2946 156.156 14.1206 155.991 13.9826C155.826 13.8417 155.608 13.7712 155.335 13.7712C155.081 13.7712 154.873 13.8267 154.711 13.9377C154.553 14.0486 154.473 14.1971 154.473 14.383C154.473 14.551 154.548 14.6814 154.697 14.7744C154.846 14.8674 155.148 14.9619 155.601 15.0578C156.055 15.1508 156.41 15.2633 156.667 15.3952C156.927 15.5242 157.119 15.6802 157.243 15.8631C157.37 16.0461 157.433 16.268 157.433 16.5289C157.433 16.9668 157.241 17.3222 156.858 17.5951C156.474 17.865 155.971 18 155.349 18C154.927 18 154.551 17.928 154.221 17.7841C153.891 17.6401 153.634 17.4422 153.45 17.1902C153.266 16.9383 153.174 16.6669 153.174 16.376H154.297C154.313 16.6339 154.416 16.8333 154.607 16.9743C154.797 17.1123 155.049 17.1812 155.363 17.1812C155.668 17.1812 155.899 17.1272 156.058 17.0193C156.217 16.9083 156.296 16.7644 156.296 16.5874Z" fill="white"/>
<path d="M162.187 15.4762V17.91H160.983V11.3599H163.634C164.408 11.3599 165.022 11.5503 165.476 11.9312C165.932 12.3121 166.161 12.816 166.161 13.4428C166.161 14.0846 165.937 14.584 165.49 14.9409C165.046 15.2978 164.422 15.4762 163.62 15.4762H162.187ZM162.187 14.563H163.634C164.062 14.563 164.389 14.4685 164.614 14.2796C164.84 14.0876 164.952 13.8117 164.952 13.4518C164.952 13.0979 164.838 12.816 164.609 12.606C164.381 12.3931 164.067 12.2836 163.667 12.2776H162.187V14.563Z" fill="white"/>
<path d="M166.822 15.4312C166.822 14.9544 166.922 14.5255 167.122 14.1446C167.322 13.7607 167.603 13.4668 167.964 13.2629C168.326 13.0559 168.742 12.9524 169.211 12.9524C169.906 12.9524 170.469 13.1639 170.901 13.5868C171.335 14.0096 171.57 14.5705 171.605 15.2693L171.61 15.5257C171.61 16.0056 171.511 16.4344 171.315 16.8123C171.121 17.1902 170.842 17.4826 170.477 17.6896C170.115 17.8965 169.697 18 169.221 18C168.494 18 167.912 17.7721 167.474 17.3162C167.04 16.8573 166.822 16.247 166.822 15.4852V15.4312ZM167.979 15.5257C167.979 16.0266 168.088 16.4195 168.307 16.7044C168.526 16.9863 168.83 17.1272 169.221 17.1272C169.611 17.1272 169.914 16.9833 170.13 16.6954C170.349 16.4075 170.458 15.9861 170.458 15.4312C170.458 14.9394 170.345 14.5495 170.12 14.2616C169.898 13.9737 169.595 13.8297 169.211 13.8297C168.834 13.8297 168.534 13.9722 168.312 14.2571C168.09 14.539 167.979 14.9619 167.979 15.5257Z" fill="white"/>
<path d="M175.283 14.0411C175.131 14.0171 174.974 14.0051 174.812 14.0051C174.282 14.0051 173.926 14.1971 173.742 14.581V17.91H172.585V13.0424H173.689L173.718 13.5868C173.997 13.1639 174.384 12.9524 174.879 12.9524C175.044 12.9524 175.18 12.9734 175.288 13.0154L175.283 14.0411Z" fill="white"/>
<path d="M177.701 11.8593V13.0424H178.61V13.8522H177.701V16.5694C177.701 16.7554 177.739 16.8903 177.815 16.9743C177.894 17.0553 178.034 17.0958 178.234 17.0958C178.367 17.0958 178.502 17.0808 178.638 17.0508V17.8965C178.375 17.9655 178.121 18 177.877 18C176.989 18 176.544 17.5366 176.544 16.6099V13.8522H175.697V13.0424H176.544V11.8593H177.701Z" fill="white"/>
<path d="M182.574 17.91C182.523 17.8171 182.479 17.6656 182.44 17.4557C182.072 17.8186 181.622 18 181.089 18C180.572 18 180.15 17.8605 179.823 17.5816C179.496 17.3027 179.333 16.9578 179.333 16.5469C179.333 16.0281 179.536 15.6307 179.942 15.3548C180.351 15.0758 180.935 14.9364 181.693 14.9364H182.402V14.617C182.402 14.365 182.328 14.1641 182.179 14.0141C182.03 13.8612 181.803 13.7847 181.498 13.7847C181.235 13.7847 181.019 13.8477 180.851 13.9737C180.683 14.0966 180.599 14.2541 180.599 14.446H179.442C179.442 14.1791 179.536 13.9302 179.723 13.6992C179.91 13.4653 180.164 13.2823 180.485 13.1504C180.808 13.0184 181.168 12.9524 181.565 12.9524C182.168 12.9524 182.648 13.0964 183.007 13.3843C183.365 13.6692 183.549 14.0711 183.559 14.59V16.7853C183.559 17.2232 183.624 17.5726 183.754 17.8335V17.91H182.574ZM181.303 17.1228C181.532 17.1228 181.746 17.0703 181.946 16.9653C182.149 16.8603 182.301 16.7194 182.402 16.5424V15.6247H181.779C181.351 15.6247 181.029 15.6952 180.813 15.8361C180.597 15.9771 180.489 16.1765 180.489 16.4344C180.489 16.6444 180.562 16.8123 180.708 16.9383C180.857 17.0613 181.056 17.1228 181.303 17.1228Z" fill="white"/>
<path d="M186 17.91H184.844V11H186V17.91Z" fill="white"/>
</svg>
