<svg width="242" height="34" viewBox="0 0 242 34" fill="none"
  xmlns="http://www.w3.org/2000/svg">
  <g clip-path="url(#clip0)">
    <path d="M5.15488 7.32909V34.0007H0V3.01723C0 0.534256 2.83518 -0.881515 4.81552 0.611714L29.3012 19.0684C30.0572 19.6364 30.4997 20.5272 30.4997 21.4739V33.9964H25.3448V22.5497L5.15488 7.32909Z" fill="#1AAB9B"/>
    <path d="M88.2902 7C86.2669 7 84.626 8.64384 84.626 10.6707V33.8738H89.3814V13.769L95.7949 24.2517C96.5252 25.4437 97.8225 26.171 99.2186 26.171C100.61 26.171 101.908 25.448 102.638 24.256L109.086 13.7647V33.8652H113.841V10.4985C113.841 8.56638 112.278 7 110.349 7C109.112 7 107.965 7.6584 107.338 8.72991L99.3088 22.4315L91.4562 8.83319C90.8075 7.69713 89.5961 7 88.2902 7Z" fill="#1AAB9B"/>
    <path fill-rule="evenodd" clip-rule="evenodd" d="M135.818 7C134.246 7 132.832 7.95963 132.257 9.42703L122.587 33.8738H127.192L130.195 26.838H141.145L144.147 33.8738H149.036L139.383 9.42703C138.804 7.96393 137.39 7 135.818 7ZM135.668 12.5039L139.482 22.4702H131.836L135.668 12.5039Z" fill="#1AAB9B"/>
    <path d="M161.906 19.3116L173.509 7.63258C173.913 7.22807 174.458 7 175.034 7C176.95 7 177.908 9.32376 176.55 10.6793L167.345 19.8581L180.919 33.8695H174.746L161.906 20.8608V33.8695H157.146V9.384C157.146 8.06721 158.212 7 159.526 7C160.841 7 161.906 8.06721 161.906 9.384V19.3116Z" fill="#1AAB9B"/>
    <path d="M189.334 29.5749C189.334 31.9503 191.259 33.8781 193.63 33.8781H205.968C207.179 33.8781 208.158 32.897 208.158 31.6835C208.158 30.4699 207.179 29.4888 205.968 29.4888H194.111V22.2249H204.928C206.139 22.2249 207.119 21.2438 207.119 20.0303C207.119 18.8167 206.139 17.8356 204.928 17.8356H194.111V11.3893H205.968C207.179 11.3893 208.158 10.4082 208.158 9.19466C208.158 7.98114 207.179 7 205.968 7H193.63C191.259 7 189.334 8.92786 189.334 11.3033V29.5749Z" fill="#1AAB9B"/>
    <path fill-rule="evenodd" clip-rule="evenodd" d="M239.771 14.6942C239.771 15.5506 239.663 16.3725 239.448 17.1514C239.246 17.9217 238.92 18.6661 238.465 19.3848C238.022 20.1034 237.412 20.7446 236.635 21.3126C235.866 21.8806 234.955 22.3196 233.898 22.638L241.996 33.8695H235.806L228.292 23.4513H223.743V33.8695H218.988V11.3033C218.988 8.92786 220.912 7 223.284 7H230.41C230.977 7 231.493 7.01721 231.957 7.05594C232.433 7.08176 233.009 7.15492 233.675 7.28401C234.354 7.3959 234.951 7.55512 235.466 7.75737C235.995 7.95963 236.536 8.25655 237.09 8.64815C237.657 9.03974 238.121 9.50019 238.486 10.0295C238.864 10.5459 239.173 11.2086 239.41 12.0133C239.655 12.8051 239.771 13.7002 239.771 14.6942ZM223.747 11.3678V19.0663H228.129C228.885 19.0663 229.551 19.0405 230.131 18.9889C230.711 18.9372 231.308 18.8382 231.922 18.6876C232.541 18.5241 233.043 18.3046 233.434 18.0249C233.838 17.7495 234.165 17.3622 234.414 16.8717C234.676 16.3811 234.809 15.8002 234.809 15.1331C234.809 12.6244 232.876 11.3678 229.014 11.3678H223.747Z" fill="#1AAB9B"/>
    <path d="M59.7107 34V7.32844L39.5207 22.549V34H34.3658V21.4775C34.3658 20.5308 34.8083 19.64 35.5644 19.072L60.05 0.615371C62.0303 -0.882161 64.8655 0.533609 64.8655 3.01659V34H59.7107Z" fill="#1AAB9B"/>
  </g>
  <defs>
    <clipPath id="clip0">
      <rect width="242" height="34" fill="white"/>
    </clipPath>
  </defs>
</svg>
