<svg width="191" height="18" viewBox="0 0 191 18" fill="none" xmlns="http://www.w3.org/2000/svg">
<path d="M2.53521 3.87956V18H0V1.59678C0 0.282239 1.39437 -0.467297 2.36831 0.323247L14.4106 10.0946C14.7824 10.3953 15 10.8669 15 11.3681V17.9977H12.4648V11.9376L2.53521 3.87956Z" fill="#478DED"/>
<path d="M44.8813 4C43.8425 4 43 4.85637 43 5.91225V18H45.4416V7.52634L48.7345 12.9873C49.1094 13.6083 49.7755 13.9872 50.4923 13.9872C51.2069 13.9872 51.873 13.6106 52.2479 12.9896L55.5584 7.5241V17.9955H58V5.82258C58 4.81601 57.1972 4 56.2069 4C55.5717 4 54.9828 4.34299 54.6608 4.9012L50.5386 12.0391L46.5068 4.955C46.1738 4.36317 45.5518 4 44.8813 4Z" fill="#478DED"/>
<path fill-rule="evenodd" clip-rule="evenodd" d="M69.0034 4C68.1712 4 67.4231 4.49992 67.1184 5.26437L62 18H64.4376L66.027 14.3347H71.823L73.4124 18H76L70.8907 5.26437C70.5837 4.50216 69.8356 4 69.0034 4ZM68.9238 6.86725L70.943 12.0592H66.8956L68.9238 6.86725Z" fill="#478DED"/>
<path d="M82.4026 10.4148L88.2595 4.3296C88.4633 4.11883 88.7387 4 89.0293 4C89.9964 4 90.4799 5.21076 89.7947 5.91704L85.1478 10.6996L92 18H88.884L82.4026 11.222V18H80V5.24215C80 4.55605 80.5378 4 81.2013 4C81.8648 4 82.4026 4.55605 82.4026 5.24215V10.4148Z" fill="#478DED"/>
<path d="M96 15.7586C96 16.9958 97.0224 18 98.2821 18H104.836C105.48 18 106 17.489 106 16.8569C106 16.2248 105.48 15.7137 104.836 15.7137H98.5377V11.9302H104.284C104.927 11.9302 105.448 11.4191 105.448 10.7871C105.448 10.155 104.927 9.64393 104.284 9.64393H98.5377V6.28626H104.836C105.48 6.28626 106 5.77522 106 5.14313C106 4.51105 105.48 4 104.836 4H98.2821C97.0224 4 96 5.00416 96 6.24143V15.7586Z" fill="#478DED"/>
<path fill-rule="evenodd" clip-rule="evenodd" d="M121.839 8.00897C121.839 8.45516 121.783 8.88341 121.671 9.28924C121.566 9.69058 121.396 10.0785 121.158 10.4529C120.928 10.8274 120.609 11.1614 120.204 11.4574C119.803 11.7534 119.328 11.9821 118.777 12.148L123 18H119.771L115.853 12.5718H113.48V18H111V6.24215C111 5.00448 112.004 4 113.24 4H116.957C117.253 4 117.522 4.00897 117.764 4.02915C118.013 4.0426 118.313 4.08072 118.66 4.14798C119.014 4.20628 119.326 4.28924 119.594 4.39462C119.87 4.5 120.152 4.65471 120.441 4.85874C120.737 5.06278 120.979 5.30269 121.17 5.57848C121.367 5.84753 121.528 6.19283 121.651 6.61211C121.779 7.02466 121.839 7.49103 121.839 8.00897ZM113.482 6.27578V10.287H115.768C116.162 10.287 116.509 10.2735 116.812 10.2466C117.114 10.2197 117.426 10.1682 117.746 10.0897C118.069 10.0045 118.331 9.89014 118.535 9.7444C118.745 9.6009 118.916 9.3991 119.046 9.1435C119.182 8.88789 119.252 8.5852 119.252 8.23767C119.252 6.93049 118.243 6.27578 116.229 6.27578H113.482Z" fill="#478DED"/>
<path d="M30.2958 18V3.8789L19.7042 11.9374V18H17V11.3701C17 10.8688 17.2321 10.3972 17.6287 10.0965L30.4738 0.324698C31.5127 -0.468162 33 0.281409 33 1.59601V18H30.2958Z" fill="#478DED"/>
<path d="M129 7.01315C129 5.34903 130.424 4 132.179 4H187.821C189.576 4 191 5.34904 191 7.01315V14.9868C191 16.651 189.576 18 187.821 18H132.179C130.424 18 129 16.651 129 14.9868V7.01315Z" fill="#478DED"/>
<path d="M136.561 7.8599L138.56 12.8805L140.553 7.8599H142.11V14.41H140.91V12.2506L141.029 9.36247L138.983 14.41H138.122L136.08 9.36697L136.199 12.2506V14.41H135V7.8599H136.561Z" fill="white"/>
<path d="M144.808 14.41H143.609V7.8599H144.808V14.41Z" fill="white"/>
<path d="M147.492 11.9762V14.41H146.288V7.8599H148.938C149.712 7.8599 150.326 8.05034 150.78 8.43123C151.237 8.81213 151.465 9.31598 151.465 9.9428C151.465 10.5846 151.242 11.084 150.794 11.4409C150.35 11.7978 149.727 11.9762 148.924 11.9762H147.492ZM147.492 11.063H148.938C149.367 11.063 149.693 10.9685 149.919 10.7796C150.144 10.5876 150.256 10.3117 150.256 9.9518C150.256 9.5979 150.142 9.31598 149.914 9.10604C149.685 8.8931 149.371 8.78363 148.972 8.77763H147.492V11.063Z" fill="white"/>
<path d="M155.296 13.0874C155.296 12.8925 155.21 12.744 155.039 12.642C154.871 12.5401 154.59 12.4501 154.197 12.3721C153.803 12.2941 153.475 12.1952 153.212 12.0752C152.634 11.8113 152.346 11.4289 152.346 10.928C152.346 10.5081 152.533 10.1572 152.907 9.87532C153.281 9.5934 153.757 9.45244 154.335 9.45244C154.95 9.45244 155.447 9.5964 155.824 9.88432C156.205 10.1722 156.395 10.5456 156.395 11.0045H155.239C155.239 10.7946 155.156 10.6206 154.991 10.4826C154.826 10.3417 154.608 10.2712 154.335 10.2712C154.081 10.2712 153.873 10.3267 153.711 10.4377C153.553 10.5486 153.473 10.6971 153.473 10.883C153.473 11.051 153.548 11.1814 153.697 11.2744C153.846 11.3674 154.148 11.4619 154.601 11.5578C155.055 11.6508 155.41 11.7633 155.667 11.8952C155.927 12.0242 156.119 12.1802 156.243 12.3631C156.37 12.5461 156.433 12.768 156.433 13.0289C156.433 13.4668 156.241 13.8222 155.858 14.0951C155.474 14.365 154.971 14.5 154.349 14.5C153.927 14.5 153.551 14.428 153.221 14.2841C152.891 14.1401 152.634 13.9422 152.45 13.6902C152.266 13.4383 152.174 13.1669 152.174 12.876H153.297C153.313 13.1339 153.416 13.3333 153.607 13.4743C153.797 13.6123 154.049 13.6812 154.363 13.6812C154.668 13.6812 154.899 13.6272 155.058 13.5193C155.217 13.4083 155.296 13.2644 155.296 13.0874Z" fill="white"/>
<path d="M161.187 11.9762V14.41H159.983V7.8599H162.634C163.408 7.8599 164.022 8.05034 164.476 8.43123C164.932 8.81213 165.161 9.31598 165.161 9.9428C165.161 10.5846 164.937 11.084 164.49 11.4409C164.046 11.7978 163.422 11.9762 162.62 11.9762H161.187ZM161.187 11.063H162.634C163.062 11.063 163.389 10.9685 163.614 10.7796C163.84 10.5876 163.952 10.3117 163.952 9.9518C163.952 9.5979 163.838 9.31598 163.609 9.10604C163.381 8.8931 163.067 8.78363 162.667 8.77763H161.187V11.063Z" fill="white"/>
<path d="M165.822 11.9312C165.822 11.4544 165.922 11.0255 166.122 10.6446C166.322 10.2607 166.603 9.9668 166.964 9.76285C167.326 9.55591 167.742 9.45244 168.211 9.45244C168.906 9.45244 169.469 9.66388 169.901 10.0868C170.335 10.5096 170.57 11.0705 170.605 11.7693L170.61 12.0257C170.61 12.5056 170.511 12.9344 170.315 13.3123C170.121 13.6902 169.842 13.9826 169.477 14.1896C169.115 14.3965 168.697 14.5 168.221 14.5C167.494 14.5 166.912 14.2721 166.474 13.8162C166.04 13.3573 165.822 12.747 165.822 11.9852V11.9312ZM166.979 12.0257C166.979 12.5266 167.088 12.9195 167.307 13.2044C167.526 13.4863 167.83 13.6272 168.221 13.6272C168.611 13.6272 168.914 13.4833 169.13 13.1954C169.349 12.9075 169.458 12.4861 169.458 11.9312C169.458 11.4394 169.345 11.0495 169.12 10.7616C168.898 10.4737 168.595 10.3297 168.211 10.3297C167.834 10.3297 167.534 10.4722 167.312 10.7571C167.09 11.039 166.979 11.4619 166.979 12.0257Z" fill="white"/>
<path d="M174.283 10.5411C174.131 10.5171 173.974 10.5051 173.812 10.5051C173.282 10.5051 172.926 10.6971 172.742 11.081V14.41H171.585V9.54242H172.689L172.718 10.0868C172.997 9.66388 173.384 9.45244 173.879 9.45244C174.044 9.45244 174.18 9.47344 174.288 9.51542L174.283 10.5411Z" fill="white"/>
<path d="M176.701 8.35925V9.54242H177.61V10.3522H176.701V13.0694C176.701 13.2554 176.739 13.3903 176.815 13.4743C176.894 13.5553 177.034 13.5958 177.234 13.5958C177.367 13.5958 177.502 13.5808 177.638 13.5508V14.3965C177.375 14.4655 177.121 14.5 176.877 14.5C175.989 14.5 175.544 14.0366 175.544 13.1099V10.3522H174.697V9.54242H175.544V8.35925H176.701Z" fill="white"/>
<path d="M181.574 14.41C181.523 14.3171 181.479 14.1656 181.44 13.9557C181.072 14.3186 180.622 14.5 180.089 14.5C179.572 14.5 179.15 14.3605 178.823 14.0816C178.496 13.8027 178.333 13.4578 178.333 13.0469C178.333 12.5281 178.536 12.1307 178.942 11.8548C179.351 11.5758 179.935 11.4364 180.693 11.4364H181.402V11.117C181.402 10.865 181.328 10.6641 181.179 10.5141C181.03 10.3612 180.803 10.2847 180.498 10.2847C180.235 10.2847 180.019 10.3477 179.851 10.4737C179.683 10.5966 179.599 10.7541 179.599 10.946H178.442C178.442 10.6791 178.536 10.4302 178.723 10.1992C178.91 9.9653 179.164 9.78235 179.485 9.65039C179.808 9.51842 180.168 9.45244 180.565 9.45244C181.168 9.45244 181.648 9.5964 182.007 9.88432C182.365 10.1692 182.549 10.5711 182.559 11.09V13.2853C182.559 13.7232 182.624 14.0726 182.754 14.3335V14.41H181.574ZM180.303 13.6228C180.532 13.6228 180.746 13.5703 180.946 13.4653C181.149 13.3603 181.301 13.2194 181.402 13.0424V12.1247H180.779C180.351 12.1247 180.029 12.1952 179.813 12.3361C179.597 12.4771 179.489 12.6765 179.489 12.9344C179.489 13.1444 179.562 13.3123 179.708 13.4383C179.857 13.5613 180.056 13.6228 180.303 13.6228Z" fill="white"/>
<path d="M185 14.41H183.844V7.5H185V14.41Z" fill="white"/>
</svg>
