<svg width="36" height="36" viewBox="0 0 36 36" fill="none" xmlns="http://www.w3.org/2000/svg">
<g filter="url(#filter0_d)">
<rect x="4" y="3" width="28" height="28" rx="5" fill="white"/>
</g>
<path d="M24 16C24 17.1867 23.6481 18.3467 22.9888 19.3334C22.3295 20.3201 21.3925 21.0891 20.2961 21.5433C19.1997 21.9974 17.9933 22.1162 16.8295 21.8847C15.6656 21.6532 14.5965 21.0818 13.7574 20.2426C12.9182 19.4035 12.3468 18.3344 12.1153 17.1705C11.8838 16.0067 12.0026 14.8003 12.4567 13.7039C12.9109 12.6075 13.6799 11.6705 14.6666 11.0112C15.6533 10.3519 16.8133 10 18 10C19.5913 10 21.1174 10.6321 22.2426 11.7574C23.3679 12.8826 24 14.4087 24 16Z" stroke="#748AA1" stroke-width="2" stroke-linecap="round" stroke-linejoin="round"/>
<path d="M26 24L23 21" stroke="#748AA1" stroke-width="2" stroke-linecap="round" stroke-linejoin="round"/>
<defs>
<filter id="filter0_d" x="0" y="0" width="36" height="36" filterUnits="userSpaceOnUse" color-interpolation-filters="sRGB">
<feFlood flood-opacity="0" result="BackgroundImageFix"/>
<feColorMatrix in="SourceAlpha" type="matrix" values="0 0 0 0 0 0 0 0 0 0 0 0 0 0 0 0 0 0 127 0"/>
<feOffset dy="1"/>
<feGaussianBlur stdDeviation="2"/>
<feColorMatrix type="matrix" values="0 0 0 0 0.898039 0 0 0 0 0.913725 0 0 0 0 0.94902 0 0 0 1 0"/>
<feBlend mode="normal" in2="BackgroundImageFix" result="effect1_dropShadow"/>
<feBlend mode="normal" in="SourceGraphic" in2="effect1_dropShadow" result="shape"/>
</filter>
</defs>
</svg>
