<svg width="21" height="21" viewBox="0 0 21 21" fill="none" xmlns="http://www.w3.org/2000/svg">
<path d="M17.1051 9.93429C17.1051 11.5269 16.6328 13.0838 15.748 14.408C14.8632 15.7323 13.6055 16.7644 12.1341 17.3739C10.6627 17.9834 9.04362 18.1428 7.48158 17.8321C5.91954 17.5214 4.48471 16.7545 3.35854 15.6283C2.23237 14.5021 1.46544 13.0673 1.15473 11.5053C0.844022 9.94322 1.00349 8.32413 1.61297 6.85272C2.22245 5.3813 3.25456 4.12367 4.5788 3.23884C5.90303 2.35402 7.45991 1.88174 9.05255 1.88174C11.1882 1.88174 13.2364 2.73014 14.7466 4.24028C16.2567 5.75043 17.1051 7.79862 17.1051 9.93429Z" stroke="#B8C5D3" stroke-width="2" stroke-linecap="round" stroke-linejoin="round"/>
<path d="M19.1182 20L14.7396 15.6214" stroke="#B8C5D3" stroke-width="2" stroke-linecap="round" stroke-linejoin="round"/>
</svg>
