<svg width="30" height="35" viewBox="0 0 30 34" fill="none" xmlns="http://www.w3.org/2000/svg">
<path d="M13.8087 1.39778C14.4337 0.66452 15.5663 0.66452 16.1913 1.39778L22.4246 8.71169L29.0784 16.2112C29.6042 16.8039 29.6042 17.6961 29.0784 18.2888L22.4246 25.7883L16.1913 33.1022C15.5663 33.8355 14.4337 33.8355 13.8087 33.1022L7.57538 25.7883L0.921631 18.2888C0.395777 17.6961 0.395777 16.8039 0.921631 16.2112L7.57538 8.71169L13.8087 1.39778Z" fill="#76CDC3"/>
<path d="M7.43046 14.1014V21.75H6V12.8649C6 12.1529 6.78675 11.7469 7.33628 12.1751L14.1309 17.4679C14.3407 17.6308 14.4635 17.8862 14.4635 18.1577V21.7488H13.0331V18.4662L7.43046 14.1014Z" fill="white" fill-opacity="0.8"/>
<path d="M22.5692 21.75V14.1015L16.9666 18.4663V21.75H15.5361V18.159C15.5361 17.8875 15.6589 17.632 15.8687 17.4691L22.6634 12.1764C23.2129 11.7469 23.9997 12.1529 23.9997 12.865V21.75H22.5692Z" fill="white" fill-opacity="0.8"/>
</svg>
