<svg width="30" height="35" viewBox="0 0 30 35" fill="none" xmlns="http://www.w3.org/2000/svg">
<path d="M22.1268 8.9655L22.1267 8.96555L22.1319 8.97138L28.7857 16.4709C29.1801 16.9154 29.1801 17.5846 28.7857 18.0291L22.1319 25.5286L22.1319 25.5286L22.1268 25.5345L15.8935 32.8484C15.4248 33.3983 14.5752 33.3983 14.1065 32.8484L7.8732 25.5345L7.87326 25.5344L7.86809 25.5286L1.21434 18.0291C0.819947 17.5846 0.819947 16.9154 1.21434 16.4709L7.86809 8.97138L7.86814 8.97143L7.8732 8.9655L14.1065 1.6516C14.5752 1.10165 15.4248 1.10165 15.8935 1.6516L22.1268 8.9655Z" fill="#478DED" stroke="#478DED" stroke-width="0.782609"/>
<path d="M7.52314 13.9823L7.27964 13.7926V14.1013V21.5991H6.15081V12.8648C6.15081 12.2682 6.80103 11.9491 7.24359 12.2939L7.24361 12.2939L14.0383 17.5867L14.0385 17.5869C14.2103 17.7203 14.3127 17.9312 14.3127 18.1576V21.5978H13.1839V18.4661V18.3924L13.1258 18.3471L7.52314 13.9823Z" fill="white" stroke="white" stroke-width="0.301626"/>
<path d="M16.8163 18.466V21.599H15.6874V18.1587C15.6874 17.9324 15.7898 17.7215 15.9617 17.588L15.9619 17.5879L22.7565 12.2951L22.7567 12.2949C23.1992 11.9491 23.8493 12.268 23.8493 12.8647V21.599H22.7205V14.1012V13.7925L22.477 13.9822L16.8744 18.347L16.8163 18.3923V18.466Z" fill="white" stroke="white" stroke-width="0.301626"/>
</svg>
