<svg width="31" height="26" viewBox="0 0 31 26" fill="none" xmlns="http://www.w3.org/2000/svg">
<path d="M20.2524 12.875C22.262 11.7147 24.738 11.7147 26.7476 12.875C28.7572 14.0353 29.9952 16.1795 29.9952 18.5C29.9952 20.8205 28.7572 22.9647 26.7476 24.125C24.738 25.2853 22.262 25.2853 20.2524 24.125C18.2428 22.9647 17.0048 20.8205 17.0048 18.5C17.0048 16.1795 18.2428 14.0353 20.2524 12.875Z" fill="#76CDC3"/>
<path d="M19.7152 17.0776V20.9999H19V16.4435C19 16.0784 19.3934 15.8702 19.6682 16.0898L23.0656 18.804C23.1705 18.8875 23.2318 19.0185 23.2318 19.1577V20.9993H22.5166V19.3159L19.7152 17.0776Z" fill="white"/>
<path d="M27.2842 21.0001V17.0779L24.4828 19.3162V21.0001H23.7676V19.1586C23.7676 19.0194 23.829 18.8884 23.9339 18.8049L27.3313 16.0907C27.606 15.8705 27.9994 16.0787 27.9994 16.4438V21.0001H27.2842Z" fill="white"/>
<path d="M2 2V9C2 14.5228 6.47715 19 12 19H17" stroke="url(#paint0_linear)" stroke-width="3" stroke-linecap="round"/>
<defs>
<linearGradient id="paint0_linear" x1="14" y1="22.7188" x2="0.41472" y2="0.915669" gradientUnits="userSpaceOnUse">
<stop stop-color="#76CDC3"/>
<stop offset="1" stop-color="#76CDC3" stop-opacity="0"/>
</linearGradient>
</defs>
</svg>
