<svg width="200" height="197" viewBox="0 0 200 197" fill="none" xmlns="http://www.w3.org/2000/svg">
<g opacity="0.6">
<path d="M180.828 156.16C188.205 145.118 192.143 132.137 192.143 118.857C192.143 101.05 185.069 83.9717 172.477 71.38C159.886 58.7883 142.808 51.7143 125 51.7143C111.721 51.7143 98.7393 55.6522 87.6977 63.0299C76.6561 70.4077 68.0503 80.8939 62.9684 93.1627C57.8865 105.431 56.5569 118.932 59.1476 131.956C61.7383 144.98 68.133 156.944 77.5231 166.334C86.9132 175.724 98.8769 182.119 111.901 184.71C124.926 187.301 138.426 185.971 150.695 180.889C162.964 175.807 173.45 167.201 180.828 156.16Z" stroke="#B8C5D3" stroke-width="10"/>
<rect x="2.5" y="2.5" width="120" height="120" rx="7.5" stroke="#B8C5D3" stroke-width="5" stroke-linecap="round" stroke-linejoin="bevel" stroke-dasharray="10 30"/>
<path d="M195 192L171 168" stroke="#B8C5D3" stroke-width="10" stroke-linecap="round" stroke-linejoin="round"/>
</g>
</svg>
