<svg width="10" height="10" viewBox="0 0 10 10" fill="none" xmlns="http://www.w3.org/2000/svg">
<path d="M8.94451 8.81822H1.55535V1.18185H5.24993V0.0909424H1.55535C1.27539 0.0909424 1.00689 0.205877 0.808932 0.410462C0.61097 0.615047 0.499756 0.892524 0.499756 1.18185V8.81822C0.499756 9.10754 0.61097 9.38502 0.808932 9.5896C1.00689 9.79419 1.27539 9.90912 1.55535 9.90912H8.94451C9.22422 9.90826 9.49223 9.79305 9.69001 9.58865C9.88779 9.38425 9.99927 9.10728 10.0001 8.81822V5.00003H8.94451V8.81822ZM6.30553 0.0909424V1.18185H8.20032L3.01207 6.54367L3.75627 7.31276L8.94451 1.95094V3.90912H10.0001V0.0909424H6.30553Z" fill="#748AA1"/>
</svg>
