<svg width="10" height="12" viewBox="0 0 10 12" fill="none" xmlns="http://www.w3.org/2000/svg">
<path d="M8.5666 8.2929V4.66052C8.59127 4.06696 8.50825 3.47386 8.32178 2.91157C8.18359 2.53904 7.93306 2.22182 7.60688 2.00636C7.28071 1.7909 6.89603 1.68852 6.50919 1.71423H4.48586L5.51956 0.63728C5.58715 0.566537 5.62502 0.47132 5.62502 0.372137C5.62502 0.272953 5.58715 0.177737 5.51956 0.106994L5.51734 0.104327C5.44808 0.0377421 5.35696 0.000468902 5.26215 -5.37153e-05C5.21394 -0.00101773 5.16604 0.00822399 5.12144 0.0270977C5.07684 0.0459713 5.03649 0.074074 5.00289 0.109661L3.57697 1.57214C3.48834 1.25311 3.31909 0.963949 3.08644 0.734113C2.85379 0.504276 2.56607 0.341979 2.25258 0.263758C1.9391 0.185536 1.61105 0.194185 1.30188 0.288823C0.992701 0.383461 0.713438 0.560707 0.492543 0.802501C0.271648 1.04429 0.117015 1.342 0.0443978 1.66527C-0.0282193 1.98855 -0.0162248 2.32585 0.0791594 2.64281C0.174544 2.95976 0.349908 3.24505 0.587387 3.4696C0.824865 3.69415 1.11597 3.84994 1.43104 3.92109V8.29556C0.992301 8.39653 0.605612 8.6614 0.345897 9.03887C0.0861808 9.41634 -0.028072 9.87953 0.0252748 10.3387C0.0786216 10.7979 0.29577 11.2203 0.634648 11.5242C0.973525 11.8281 1.41001 11.9918 1.85952 11.9836C2.30904 11.9754 2.73959 11.7958 3.06775 11.4797C3.39591 11.1636 3.59833 10.7335 3.63578 10.2727C3.67322 9.81185 3.54304 9.35314 3.27045 8.9854C2.99785 8.61766 2.60225 8.36709 2.1603 8.28223V3.93214C2.49914 3.86656 2.8129 3.70335 3.06508 3.4615C3.31725 3.21966 3.49746 2.90913 3.58475 2.56604L5.05364 4.07157C5.08759 4.10665 5.12801 4.13443 5.17253 4.15327C5.21704 4.1721 5.26476 4.18163 5.31289 4.18128C5.36108 4.182 5.4089 4.17264 5.45347 4.15378C5.49803 4.13492 5.53841 4.10695 5.57215 4.07157C5.60627 4.03664 5.63327 3.99506 5.65159 3.94928C5.6699 3.90349 5.67916 3.85441 5.67882 3.8049C5.67952 3.75534 5.67042 3.70615 5.65209 3.66031C5.63375 3.61447 5.60656 3.57294 5.57215 3.53823L5.56956 3.53557L4.49919 2.46128H6.51215C6.73334 2.44046 6.95541 2.48993 7.1484 2.60301C7.3414 2.7161 7.49602 2.88735 7.59141 3.09366C7.77876 3.59256 7.86216 4.12636 7.83623 4.66052V8.28185C7.39267 8.36832 6.99612 8.6211 6.72345 8.9912C6.45078 9.36129 6.32142 9.82233 6.36044 10.285C6.39946 10.7476 6.60409 11.1788 6.93465 11.4951C7.26521 11.8113 7.69816 11.9901 8.14957 11.9967C8.60098 12.0033 9.0387 11.8373 9.37787 11.5308C9.71704 11.2243 9.9335 10.7993 9.9853 10.338C10.0371 9.87668 9.92053 9.41204 9.6582 9.03412C9.39588 8.6562 9.00648 8.39192 8.56549 8.29252L8.5666 8.2929ZM2.91549 10.1249C2.91549 10.3474 2.85134 10.5649 2.73116 10.7499C2.61099 10.9349 2.44017 11.0791 2.24033 11.1642C2.04048 11.2494 1.82057 11.2716 1.60841 11.2282C1.39625 11.1848 1.20138 11.0777 1.04842 10.9204C0.895461 10.763 0.791296 10.5626 0.749095 10.3444C0.706894 10.1261 0.728553 9.89996 0.811333 9.6944C0.894113 9.48884 1.0343 9.31315 1.21415 9.18954C1.39401 9.06592 1.60547 8.99995 1.82178 8.99995C1.96541 8.99995 2.10763 9.02904 2.24033 9.08558C2.37302 9.14211 2.49359 9.22498 2.59515 9.32944C2.69671 9.4339 2.77727 9.55791 2.83223 9.6944C2.8872 9.83088 2.91549 9.97717 2.91549 10.1249ZM1.82178 3.21442C1.60547 3.21442 1.39401 3.14845 1.21415 3.02483C1.0343 2.90122 0.894113 2.72553 0.811333 2.51997C0.728553 2.31441 0.706894 2.08822 0.749095 1.87C0.791296 1.65178 0.895461 1.45134 1.04842 1.29401C1.20138 1.13668 1.39625 1.02954 1.60841 0.986134C1.82057 0.942727 2.04048 0.965005 2.24033 1.05015C2.44017 1.13529 2.61099 1.27948 2.73116 1.46448C2.85134 1.64948 2.91549 1.86698 2.91549 2.08947C2.91549 2.2372 2.8872 2.38349 2.83223 2.51997C2.77727 2.65646 2.69671 2.78047 2.59515 2.88493C2.49359 2.98939 2.37302 3.07226 2.24033 3.12879C2.10763 3.18532 1.96541 3.21442 1.82178 3.21442ZM8.17586 11.2499C7.95954 11.2499 7.74809 11.1839 7.56823 11.0603C7.38837 10.9367 7.24819 10.761 7.16541 10.5554C7.08263 10.3498 7.06097 10.1237 7.10317 9.90543C7.14537 9.68721 7.24953 9.48676 7.40249 9.32944C7.55545 9.17211 7.75033 9.06497 7.96249 9.02156C8.17464 8.97816 8.39455 9.00043 8.5944 9.08558C8.79425 9.17072 8.96506 9.31491 9.08524 9.49991C9.20542 9.68491 9.26956 9.9024 9.26956 10.1249C9.26956 10.4233 9.15433 10.7094 8.94922 10.9204C8.74411 11.1313 8.46593 11.2499 8.17586 11.2499Z" fill="#31394D"/>
</svg>
