<svg width="33" height="39" viewBox="0 0 33 39" fill="none"
  xmlns="http://www.w3.org/2000/svg">
  <path fill-rule="evenodd" clip-rule="evenodd" d="M0.640625 4.64029C0.640625 2.51952 2.35985 0.800293 4.48062 0.800293H28.7858C30.9066 0.800293 32.6258 2.51952 32.6258 4.64029C32.6258 6.76107 30.9066 8.48029 28.7858 8.48029H4.48062C2.35985 8.48029 0.640625 6.76107 0.640625 4.64029ZM16.6331 38.7828C14.5124 38.7828 12.7931 37.0636 12.7931 34.9428L12.7931 26.6199H5.70818C2.67511 26.6199 1.34386 22.7936 3.72193 20.9109L15.6595 11.4604C16.4395 10.8429 17.5418 10.8429 18.3218 11.4604L30.2593 20.9109C32.6374 22.7936 31.3061 26.6199 28.2731 26.6199H20.4731L20.4731 34.9428C20.4731 37.0636 18.7539 38.7828 16.6331 38.7828Z" fill="white"/>
</svg>
