<svg width="19" height="17" viewBox="0 0 19 17" fill="none" xmlns="http://www.w3.org/2000/svg">
<path d="M6.97208 13.6888C6.97208 13.7593 6.88848 13.8152 6.78322 13.8152C6.6635 13.8257 6.57991 13.7698 6.57991 13.6888C6.57991 13.6183 6.6635 13.5623 6.76877 13.5623C6.87765 13.5518 6.97208 13.6078 6.97208 13.6888ZM5.84356 13.5308C5.81827 13.6013 5.89051 13.6808 5.99836 13.7033C6.03798 13.722 6.08358 13.7252 6.12554 13.712C6.1675 13.6989 6.20256 13.6705 6.22334 13.6328C6.24502 13.5623 6.17639 13.4828 6.06854 13.4498C6.0272 13.4355 5.98196 13.4357 5.94079 13.4505C5.89963 13.4653 5.86519 13.4938 5.84356 13.5308ZM7.44733 13.4708C7.34412 13.4953 7.2693 13.5623 7.28065 13.6433C7.29149 13.7138 7.38386 13.7593 7.4948 13.7348C7.60574 13.7103 7.67282 13.6433 7.66147 13.5733C7.65012 13.5033 7.55259 13.4603 7.44733 13.4708ZM9.8344 0.00186516C8.66374 -0.0219972 7.50015 0.183322 6.41336 0.60552C5.32656 1.02772 4.33892 1.65811 3.50961 2.45892C2.6803 3.25973 2.02638 4.21448 1.58704 5.26597C1.1477 6.31746 0.931975 7.44405 0.952791 8.57824C0.937607 10.4275 1.52336 12.2346 2.62709 13.7435C3.73082 15.2524 5.29658 16.3867 7.10263 16.9856C7.56704 17.0666 7.7301 16.7887 7.7301 16.5602C7.7301 16.3423 7.71926 15.14 7.71926 14.4021C7.71926 14.4021 5.17945 14.9295 4.64641 13.3523C4.64641 13.3523 4.2336 12.3295 3.6376 12.0661C3.6376 12.0661 2.80682 11.5162 3.69591 11.5247C3.98549 11.5627 4.26225 11.6644 4.505 11.822C4.74774 11.9796 4.95003 12.189 5.09637 12.434C5.21748 12.6531 5.38274 12.8465 5.58236 13.0027C5.78199 13.1588 6.01193 13.2746 6.25857 13.3431C6.50521 13.4116 6.76353 13.4315 7.01824 13.4016C7.27295 13.3717 7.51888 13.2925 7.74145 13.1689C7.78826 12.7209 7.99333 12.3024 8.32197 11.9841C6.29404 11.7661 4.24547 11.4817 4.24547 8.09983C4.22529 7.71534 4.29136 7.33119 4.43915 6.97382C4.58693 6.61645 4.81292 6.29436 5.10153 6.02972C4.82643 5.25039 4.86008 4.39982 5.19596 3.64317C5.9545 3.41472 7.69966 4.59299 7.69966 4.59299C9.1908 4.19466 10.7654 4.19466 12.2566 4.59299C12.2566 4.59299 14.0017 3.41172 14.7603 3.64317C15.0963 4.39979 15.1299 5.25041 14.8547 6.02972C15.1541 6.29013 15.3925 6.60958 15.554 6.96663C15.7154 7.32368 15.7962 7.71006 15.7907 8.09983C15.7907 11.4917 13.6539 11.7626 11.6255 11.9841C11.8441 12.1966 12.0126 12.4524 12.1195 12.734C12.2264 13.0156 12.2691 13.3162 12.2447 13.6153C12.2447 14.8001 12.2339 16.2648 12.2339 16.5537C12.2339 16.7822 12.4005 17.0601 12.8613 16.9791C14.6615 16.3813 16.2202 15.2468 17.314 13.7381C18.4077 12.2295 18.9805 10.4241 18.9503 8.58074C18.9487 3.70266 14.8671 0.00186516 9.8344 0.00186516ZM4.47922 12.1246C4.43226 12.1596 4.4431 12.2405 4.50451 12.3075C4.56281 12.3635 4.64589 12.3885 4.69337 12.3425C4.74032 12.3075 4.72949 12.2265 4.66808 12.1596C4.60977 12.1036 4.52669 12.0791 4.47922 12.1246ZM4.08757 11.8396C4.06228 11.8851 4.0984 11.9396 4.17116 11.9766C4.18283 11.9852 4.1962 11.9915 4.21045 11.9949C4.22469 11.9984 4.23952 11.999 4.25401 11.9967C4.26851 11.9944 4.28237 11.9893 4.29474 11.9816C4.30711 11.9739 4.31774 11.9639 4.32597 11.9521C4.35125 11.9066 4.31513 11.8521 4.24237 11.8151C4.17116 11.7941 4.11285 11.8046 4.08757 11.8401V11.8396ZM5.26304 13.0894C5.20473 13.1349 5.22692 13.2394 5.31 13.3073C5.3936 13.3883 5.49886 13.3988 5.54582 13.3423C5.59278 13.2968 5.5711 13.1924 5.49886 13.1244C5.41888 13.0454 5.31052 13.0349 5.26304 13.0914V13.0894ZM4.85023 12.5725C4.79192 12.6075 4.79192 12.699 4.85023 12.7799C4.90854 12.8609 5.00504 12.8959 5.05354 12.8609C5.08187 12.8313 5.0976 12.7924 5.0976 12.7519C5.0976 12.7115 5.08187 12.6726 5.05354 12.643C5.00194 12.564 4.90751 12.529 4.84972 12.5745L4.85023 12.5725Z" fill="#748AA1"/>
</svg>
