<svg width="19" height="18" viewBox="0 0 19 18" fill="none" xmlns="http://www.w3.org/2000/svg">
<path d="M18.0514 3.6H16.2514V11.7H4.55142V13.5C4.55142 13.7387 4.64624 13.9676 4.81502 14.1364C4.9838 14.3052 5.21272 14.4 5.45142 14.4H15.3514L18.9514 18V4.5C18.9514 4.26131 18.8566 4.03239 18.6878 3.8636C18.519 3.69482 18.2901 3.6 18.0514 3.6ZM14.4514 9V0.9C14.4514 0.661305 14.3566 0.432387 14.1878 0.263604C14.019 0.0948212 13.7901 0 13.5514 0H1.85142C1.61272 0 1.3838 0.0948212 1.21502 0.263604C1.04624 0.432387 0.951416 0.661305 0.951416 0.9V13.5L4.55142 9.9H13.5514C13.7901 9.9 14.019 9.80518 14.1878 9.6364C14.3566 9.46761 14.4514 9.2387 14.4514 9Z" fill="#748AA1"/>
</svg>
