<svg width="78" height="19" viewBox="0 0 78 19" fill="none" xmlns="http://www.w3.org/2000/svg">
<rect y="0.414824" width="78" height="18.5852" rx="4" fill="#1AAB9B"/>
<path d="M9.78906 5.31521L12.25 11.8543L14.7051 5.31521H16.6211V13.8465H15.1445V11.034L15.291 7.27224L12.7715 13.8465H11.7109L9.19727 7.2781L9.34375 11.034V13.8465H7.86719V5.31521H9.78906ZM19.9434 13.8465H18.4668V5.31521H19.9434V13.8465ZM23.248 10.6765V13.8465H21.7656V5.31521H25.0293C25.9824 5.31521 26.7383 5.56325 27.2969 6.05935C27.8594 6.55544 28.1406 7.21169 28.1406 8.0281C28.1406 8.86403 27.8652 9.51443 27.3145 9.97927C26.7676 10.4441 26 10.6765 25.0117 10.6765H23.248ZM23.248 9.48708H25.0293C25.5566 9.48708 25.959 9.36403 26.2363 9.11794C26.5137 8.86794 26.6523 8.50857 26.6523 8.03982C26.6523 7.57888 26.5117 7.21169 26.2305 6.93825C25.9492 6.66091 25.5625 6.51833 25.0703 6.51052H23.248V9.48708ZM32.8574 12.1238C32.8574 11.8699 32.752 11.6765 32.541 11.5437C32.334 11.4109 31.9883 11.2937 31.5039 11.1922C31.0195 11.0906 30.6152 10.9617 30.291 10.8054C29.5801 10.4617 29.2246 9.96364 29.2246 9.3113C29.2246 8.76443 29.4551 8.30739 29.916 7.94021C30.377 7.57302 30.9629 7.38943 31.6738 7.38943C32.4316 7.38943 33.043 7.57693 33.5078 7.95193C33.9766 8.32693 34.2109 8.81325 34.2109 9.41091H32.7871C32.7871 9.13747 32.6855 8.91091 32.4824 8.73122C32.2793 8.54763 32.0098 8.45583 31.6738 8.45583C31.3613 8.45583 31.1055 8.5281 30.9062 8.67263C30.7109 8.81716 30.6133 9.01052 30.6133 9.25271C30.6133 9.47146 30.7051 9.64138 30.8887 9.76247C31.0723 9.88357 31.4434 10.0066 32.002 10.1316C32.5605 10.2527 32.998 10.3992 33.3145 10.5711C33.6348 10.739 33.8711 10.9422 34.0234 11.1804C34.1797 11.4187 34.2578 11.7078 34.2578 12.0476C34.2578 12.6179 34.0215 13.0808 33.5488 13.4363C33.0762 13.7879 32.457 13.9636 31.6914 13.9636C31.1719 13.9636 30.709 13.8699 30.3027 13.6824C29.8965 13.4949 29.5801 13.2371 29.3535 12.909C29.127 12.5808 29.0137 12.2273 29.0137 11.8484H30.3965C30.416 12.1843 30.543 12.4441 30.7773 12.6277C31.0117 12.8074 31.3223 12.8972 31.709 12.8972C32.084 12.8972 32.3691 12.8269 32.5645 12.6863C32.7598 12.5418 32.8574 12.3543 32.8574 12.1238ZM40.1113 10.6765V13.8465H38.6289V5.31521H41.8926C42.8457 5.31521 43.6016 5.56325 44.1602 6.05935C44.7227 6.55544 45.0039 7.21169 45.0039 8.0281C45.0039 8.86403 44.7285 9.51443 44.1777 9.97927C43.6309 10.4441 42.8633 10.6765 41.875 10.6765H40.1113ZM40.1113 9.48708H41.8926C42.4199 9.48708 42.8223 9.36403 43.0996 9.11794C43.377 8.86794 43.5156 8.50857 43.5156 8.03982C43.5156 7.57888 43.375 7.21169 43.0938 6.93825C42.8125 6.66091 42.4258 6.51833 41.9336 6.51052H40.1113V9.48708ZM45.8184 10.6179C45.8184 9.99685 45.9414 9.43825 46.1875 8.94216C46.4336 8.44216 46.7793 8.05935 47.2246 7.79372C47.6699 7.52419 48.1816 7.38943 48.7598 7.38943C49.6152 7.38943 50.3086 7.66482 50.8398 8.2156C51.375 8.76638 51.6641 9.49685 51.707 10.407L51.7129 10.741C51.7129 11.366 51.5918 11.9246 51.3496 12.4168C51.1113 12.909 50.7676 13.2898 50.3184 13.5593C49.873 13.8289 49.3574 13.9636 48.7715 13.9636C47.877 13.9636 47.1602 13.6668 46.6211 13.073C46.0859 12.4754 45.8184 11.6804 45.8184 10.6883V10.6179ZM47.2422 10.741C47.2422 11.3933 47.377 11.9051 47.6465 12.2761C47.916 12.6433 48.291 12.8269 48.7715 12.8269C49.252 12.8269 49.625 12.6394 49.8906 12.2644C50.1602 11.8894 50.2949 11.3406 50.2949 10.6179C50.2949 9.97732 50.1562 9.4695 49.8789 9.0945C49.6055 8.7195 49.2324 8.532 48.7598 8.532C48.2949 8.532 47.9258 8.71755 47.6523 9.08864C47.3789 9.45583 47.2422 10.0066 47.2422 10.741ZM56.2363 8.80739C56.0488 8.77614 55.8555 8.76052 55.6562 8.76052C55.0039 8.76052 54.5645 9.01052 54.3379 9.51052V13.8465H52.9141V7.50661H54.2734L54.3086 8.2156C54.6523 7.66482 55.1289 7.38943 55.7383 7.38943C55.9414 7.38943 56.1094 7.41677 56.2422 7.47146L56.2363 8.80739ZM59.2129 5.9656V7.50661H60.332V8.5613H59.2129V12.1004C59.2129 12.3426 59.2598 12.5183 59.3535 12.6277C59.4512 12.7332 59.623 12.7859 59.8691 12.7859C60.0332 12.7859 60.1992 12.7664 60.3672 12.7273V13.8289C60.043 13.9187 59.7305 13.9636 59.4297 13.9636C58.3359 13.9636 57.7891 13.3601 57.7891 12.1531V8.5613H56.7461V7.50661H57.7891V5.9656H59.2129ZM65.2129 13.8465C65.1504 13.7254 65.0957 13.5281 65.0488 13.2547C64.5957 13.7273 64.041 13.9636 63.3848 13.9636C62.748 13.9636 62.2285 13.782 61.8262 13.4187C61.4238 13.0554 61.2227 12.6062 61.2227 12.0711C61.2227 11.3953 61.4727 10.8777 61.9727 10.5183C62.4766 10.1551 63.1953 9.97341 64.1289 9.97341H65.002V9.55739C65.002 9.22927 64.9102 8.96755 64.7266 8.77224C64.543 8.57302 64.2637 8.47341 63.8887 8.47341C63.5645 8.47341 63.2988 8.55544 63.0918 8.7195C62.8848 8.87966 62.7812 9.08474 62.7812 9.33474H61.3574C61.3574 8.98708 61.4727 8.66286 61.7031 8.36208C61.9336 8.05739 62.2461 7.81911 62.6406 7.64724C63.0391 7.47536 63.4824 7.38943 63.9707 7.38943C64.7129 7.38943 65.3047 7.57693 65.7461 7.95193C66.1875 8.32302 66.4141 8.84646 66.4258 9.52224V12.3816C66.4258 12.9519 66.5059 13.407 66.666 13.7468V13.8465H65.2129ZM63.6484 12.8211C63.9297 12.8211 64.1934 12.7527 64.4395 12.616C64.6895 12.4793 64.877 12.2957 65.002 12.0652V10.8699H64.2344C63.707 10.8699 63.3105 10.9617 63.0449 11.1453C62.7793 11.3289 62.6465 11.5886 62.6465 11.9246C62.6465 12.198 62.7363 12.4168 62.916 12.5808C63.0996 12.741 63.3438 12.8211 63.6484 12.8211ZM69.4316 13.8465H68.0078V4.84646H69.4316V13.8465Z" fill="white"/>
</svg>
