<svg width="117" height="29" viewBox="0 0 117 29" fill="none" xmlns="http://www.w3.org/2000/svg">
<rect width="117" height="29" rx="4" fill="#1AAB9B"/>
<path d="M18.1836 8.20312L21.875 18.0117L25.5576 8.20312H28.4316V21H26.2168V16.7812L26.4365 11.1387L22.6572 21H21.0664L17.2959 11.1475L17.5156 16.7812V21H15.3008V8.20312H18.1836ZM33.415 21H31.2002V8.20312H33.415V21ZM38.3721 16.2451V21H36.1484V8.20312H41.0439C42.4736 8.20312 43.6074 8.5752 44.4453 9.31934C45.2891 10.0635 45.7109 11.0479 45.7109 12.2725C45.7109 13.5264 45.2979 14.502 44.4717 15.1992C43.6514 15.8965 42.5 16.2451 41.0176 16.2451H38.3721ZM38.3721 14.4609H41.0439C41.835 14.4609 42.4385 14.2764 42.8545 13.9072C43.2705 13.5322 43.4785 12.9932 43.4785 12.29C43.4785 11.5986 43.2676 11.0479 42.8457 10.6377C42.4238 10.2217 41.8438 10.0078 41.1055 9.99609H38.3721V14.4609ZM52.7861 18.416C52.7861 18.0352 52.6279 17.7451 52.3115 17.5459C52.001 17.3467 51.4824 17.1709 50.7559 17.0186C50.0293 16.8662 49.4229 16.6729 48.9365 16.4385C47.8701 15.9229 47.3369 15.1758 47.3369 14.1973C47.3369 13.377 47.6826 12.6914 48.374 12.1406C49.0654 11.5898 49.9443 11.3145 51.0107 11.3145C52.1475 11.3145 53.0645 11.5957 53.7617 12.1582C54.4648 12.7207 54.8164 13.4502 54.8164 14.3467H52.6807C52.6807 13.9365 52.5283 13.5967 52.2236 13.3271C51.9189 13.0518 51.5146 12.9141 51.0107 12.9141C50.542 12.9141 50.1582 13.0225 49.8594 13.2393C49.5664 13.4561 49.4199 13.7461 49.4199 14.1094C49.4199 14.4375 49.5576 14.6924 49.833 14.874C50.1084 15.0557 50.665 15.2402 51.5029 15.4277C52.3408 15.6094 52.9971 15.8291 53.4717 16.0869C53.9521 16.3389 54.3066 16.6436 54.5352 17.001C54.7695 17.3584 54.8867 17.792 54.8867 18.3018C54.8867 19.1572 54.5322 19.8516 53.8232 20.3848C53.1143 20.9121 52.1855 21.1758 51.0371 21.1758C50.2578 21.1758 49.5635 21.0352 48.9541 20.7539C48.3447 20.4727 47.8701 20.0859 47.5303 19.5938C47.1904 19.1016 47.0205 18.5713 47.0205 18.0029H49.0947C49.124 18.5068 49.3145 18.8965 49.666 19.1719C50.0176 19.4414 50.4834 19.5762 51.0635 19.5762C51.626 19.5762 52.0537 19.4707 52.3467 19.2598C52.6396 19.043 52.7861 18.7617 52.7861 18.416ZM63.667 16.2451V21H61.4434V8.20312H66.3389C67.7686 8.20312 68.9023 8.5752 69.7402 9.31934C70.584 10.0635 71.0059 11.0479 71.0059 12.2725C71.0059 13.5264 70.5928 14.502 69.7666 15.1992C68.9463 15.8965 67.7949 16.2451 66.3125 16.2451H63.667ZM63.667 14.4609H66.3389C67.1299 14.4609 67.7334 14.2764 68.1494 13.9072C68.5654 13.5322 68.7734 12.9932 68.7734 12.29C68.7734 11.5986 68.5625 11.0479 68.1406 10.6377C67.7188 10.2217 67.1387 10.0078 66.4004 9.99609H63.667V14.4609ZM72.2275 16.1572C72.2275 15.2256 72.4121 14.3877 72.7812 13.6436C73.1504 12.8936 73.6689 12.3193 74.3369 11.9209C75.0049 11.5166 75.7725 11.3145 76.6396 11.3145C77.9229 11.3145 78.9629 11.7275 79.7598 12.5537C80.5625 13.3799 80.9961 14.4756 81.0605 15.8408L81.0693 16.3418C81.0693 17.2793 80.8877 18.1172 80.5244 18.8555C80.167 19.5938 79.6514 20.165 78.9775 20.5693C78.3096 20.9736 77.5361 21.1758 76.6572 21.1758C75.3154 21.1758 74.2402 20.7305 73.4316 19.8398C72.6289 18.9434 72.2275 17.751 72.2275 16.2627V16.1572ZM74.3633 16.3418C74.3633 17.3203 74.5654 18.0879 74.9697 18.6445C75.374 19.1953 75.9365 19.4707 76.6572 19.4707C77.3779 19.4707 77.9375 19.1895 78.3359 18.627C78.7402 18.0645 78.9424 17.2412 78.9424 16.1572C78.9424 15.1963 78.7344 14.4346 78.3184 13.8721C77.9082 13.3096 77.3486 13.0283 76.6396 13.0283C75.9424 13.0283 75.3887 13.3066 74.9785 13.8633C74.5684 14.4141 74.3633 15.2402 74.3633 16.3418ZM87.8545 13.4414C87.5732 13.3945 87.2832 13.3711 86.9844 13.3711C86.0059 13.3711 85.3467 13.7461 85.0068 14.4961V21H82.8711V11.4902H84.9102L84.9629 12.5537C85.4785 11.7275 86.1934 11.3145 87.1074 11.3145C87.4121 11.3145 87.6641 11.3555 87.8633 11.4375L87.8545 13.4414ZM92.3193 9.17871V11.4902H93.998V13.0723H92.3193V18.3809C92.3193 18.7441 92.3896 19.0078 92.5303 19.1719C92.6768 19.3301 92.9346 19.4092 93.3037 19.4092C93.5498 19.4092 93.7988 19.3799 94.0508 19.3213V20.9736C93.5645 21.1084 93.0957 21.1758 92.6445 21.1758C91.0039 21.1758 90.1836 20.2705 90.1836 18.46V13.0723H88.6191V11.4902H90.1836V9.17871H92.3193ZM101.319 21C101.226 20.8184 101.144 20.5225 101.073 20.1123C100.394 20.8213 99.5615 21.1758 98.5771 21.1758C97.6221 21.1758 96.8428 20.9033 96.2393 20.3584C95.6357 19.8135 95.334 19.1396 95.334 18.3369C95.334 17.3232 95.709 16.5469 96.459 16.0078C97.2148 15.4629 98.293 15.1904 99.6934 15.1904H101.003V14.5664C101.003 14.0742 100.865 13.6816 100.59 13.3887C100.314 13.0898 99.8955 12.9404 99.333 12.9404C98.8467 12.9404 98.4482 13.0635 98.1377 13.3096C97.8271 13.5498 97.6719 13.8574 97.6719 14.2324H95.5361C95.5361 13.7109 95.709 13.2246 96.0547 12.7734C96.4004 12.3164 96.8691 11.959 97.4609 11.7012C98.0586 11.4434 98.7236 11.3145 99.4561 11.3145C100.569 11.3145 101.457 11.5957 102.119 12.1582C102.781 12.7148 103.121 13.5 103.139 14.5137V18.8027C103.139 19.6582 103.259 20.3408 103.499 20.8506V21H101.319ZM98.9727 19.4619C99.3945 19.4619 99.79 19.3594 100.159 19.1543C100.534 18.9492 100.815 18.6738 101.003 18.3281V16.5352H99.8516C99.0605 16.5352 98.4658 16.6729 98.0674 16.9482C97.6689 17.2236 97.4697 17.6133 97.4697 18.1172C97.4697 18.5273 97.6045 18.8555 97.874 19.1016C98.1494 19.3418 98.5156 19.4619 98.9727 19.4619ZM107.647 21H105.512V7.5H107.647V21Z" fill="white"/>
</svg>
