<svg width="30" height="30" viewBox="0 0 30 30" fill="none" xmlns="http://www.w3.org/2000/svg">
<circle cx="15" cy="15" r="15" fill="#98C0F5"/>
<path d="M15.0546 10.6561C14.2062 10.6546 13.3764 10.9017 12.6702 11.366C11.9641 11.8303 11.4133 12.491 11.0876 13.2644C10.7619 14.0378 10.676 14.8892 10.8406 15.7108C11.0053 16.5325 11.4131 17.2875 12.0126 17.8802C12.612 18.473 13.3761 18.8769 14.2081 19.0408C15.0402 19.2047 15.9028 19.1213 16.6868 18.8011C17.4708 18.4809 18.1409 17.9383 18.6125 17.242C19.084 16.5457 19.3357 15.7269 19.3357 14.8893C19.3338 13.7684 18.8824 12.6938 18.0801 11.9006C17.2779 11.1073 16.1901 10.6598 15.0546 10.6561ZM15.0546 17.7234C14.4825 17.7234 13.9233 17.556 13.4476 17.2422C12.9719 16.9284 12.6011 16.4825 12.3822 15.9607C12.1633 15.4389 12.106 14.8648 12.2176 14.3109C12.3292 13.7569 12.6047 13.2481 13.0092 12.8488C13.4138 12.4494 13.9292 12.1775 14.4903 12.0673C15.0514 11.9571 15.633 12.0137 16.1616 12.2298C16.6901 12.4459 17.1419 12.8119 17.4597 13.2815C17.7776 13.7511 17.9472 14.3032 17.9472 14.8679C17.9472 15.2429 17.8724 15.6142 17.727 15.9607C17.5817 16.3071 17.3686 16.6219 17.1 16.8871C16.8314 17.1522 16.5125 17.3626 16.1616 17.5061C15.8106 17.6496 15.4345 17.7234 15.0546 17.7234ZM14.3315 8.57153V6.8725C14.3073 6.76796 14.3074 6.65939 14.3316 6.55486C14.3558 6.45032 14.4035 6.35251 14.4712 6.26869C14.539 6.18487 14.625 6.11719 14.7228 6.07067C14.8207 6.02415 14.9279 6 15.0365 6C15.1452 6 15.2524 6.02415 15.3503 6.07067C15.4481 6.11719 15.5341 6.18487 15.6019 6.26869C15.6696 6.35251 15.7173 6.45032 15.7415 6.55486C15.7657 6.65939 15.7658 6.76796 15.7416 6.8725V8.58581C15.7052 8.74353 15.6156 8.88437 15.4875 8.98524C15.3594 9.08612 15.2004 9.14106 15.0365 9.14106C14.8727 9.14106 14.7137 9.08612 14.5856 8.98524C14.4575 8.88437 14.3679 8.74353 14.3315 8.58581V8.57153ZM19.1187 10.9487C18.9905 10.816 18.919 10.6396 18.919 10.4562C18.919 10.2727 18.9905 10.0964 19.1187 9.96359L20.3409 8.75714C20.399 8.66945 20.476 8.59548 20.5664 8.54049C20.6568 8.48549 20.7584 8.45082 20.8639 8.43894C20.9694 8.42706 21.0762 8.43825 21.1768 8.47173C21.2774 8.50521 21.3694 8.56015 21.446 8.63265C21.5227 8.70515 21.5823 8.79343 21.6205 8.89122C21.6587 8.98901 21.6747 9.09391 21.6672 9.19847C21.6597 9.30303 21.629 9.40468 21.5773 9.4962C21.5255 9.58772 21.454 9.66686 21.3677 9.72801L20.1456 10.9487C20.0127 11.0789 19.8338 11.1531 19.6466 11.1558C19.5487 11.1609 19.4508 11.145 19.3597 11.1093C19.2686 11.0736 19.1864 11.0188 19.1187 10.9487ZM23.9711 14.9964C23.9711 15.1858 23.8949 15.3673 23.7593 15.5012C23.6236 15.6351 23.4397 15.7103 23.2479 15.7103H21.563C21.4571 15.7341 21.3471 15.7341 21.2412 15.7102C21.1353 15.6863 21.0362 15.6392 20.9513 15.5723C20.8664 15.5055 20.7979 15.4206 20.7507 15.324C20.7036 15.2274 20.6791 15.1215 20.6791 15.0143C20.6791 14.9071 20.7036 14.8012 20.7507 14.7046C20.7979 14.608 20.8664 14.5231 20.9513 14.4562C21.0362 14.3894 21.1353 14.3422 21.2412 14.3183C21.3471 14.2945 21.4571 14.2944 21.563 14.3182H23.2913C23.4745 14.3216 23.6495 14.3935 23.7811 14.5194C23.9126 14.6453 23.9909 14.8158 24 14.9964H23.9711ZM8.51734 15.7103H6.82516C6.72261 15.7247 6.61812 15.7172 6.51876 15.6883C6.4194 15.6594 6.32749 15.6098 6.24924 15.5428C6.171 15.4758 6.10826 15.393 6.06526 15.2999C6.02225 15.2069 6 15.1058 6 15.0036C6 14.9013 6.02225 14.8002 6.06526 14.7072C6.10826 14.6142 6.171 14.5314 6.24924 14.4644C6.32749 14.3973 6.4194 14.3477 6.51876 14.3188C6.61812 14.2899 6.72261 14.2824 6.82516 14.2968H8.56073C8.72049 14.3328 8.86316 14.4212 8.96535 14.5477C9.06754 14.6741 9.12319 14.8311 9.12319 14.9929C9.12319 15.1546 9.06754 15.3116 8.96535 15.438C8.86316 15.5645 8.72049 15.6529 8.56073 15.6889L8.51734 15.7103ZM15.7488 21.4213V23.1275C15.773 23.232 15.773 23.3406 15.7488 23.4451C15.7246 23.5497 15.6768 23.6475 15.6091 23.7313C15.5413 23.8151 15.4554 23.8828 15.3575 23.9293C15.2596 23.9758 15.1524 24 15.0438 24C14.9352 24 14.8279 23.9758 14.7301 23.9293C14.6322 23.8828 14.5462 23.8151 14.4785 23.7313C14.4107 23.6475 14.363 23.5497 14.3388 23.4451C14.3146 23.3406 14.3146 23.232 14.3387 23.1275V21.4213C14.3146 21.3168 14.3146 21.2082 14.3388 21.1037C14.363 20.9991 14.4107 20.9013 14.4785 20.8175C14.5462 20.7337 14.6322 20.666 14.7301 20.6195C14.8279 20.573 14.9352 20.5488 15.0438 20.5488C15.1524 20.5488 15.2596 20.573 15.3575 20.6195C15.4554 20.666 15.5413 20.7337 15.6091 20.8175C15.6768 20.9013 15.7246 20.9991 15.7488 21.1037C15.773 21.2082 15.773 21.3168 15.7488 21.4213ZM10.9544 19.0084C11.0826 19.1412 11.1541 19.3176 11.1541 19.501C11.1541 19.6844 11.0826 19.8608 10.9544 19.9936L9.71777 21.2286C9.58486 21.3588 9.40599 21.433 9.21879 21.4356C9.12569 21.4367 9.03337 21.4188 8.94753 21.3832C8.8617 21.3476 8.78419 21.295 8.71982 21.2286C8.59161 21.0958 8.52009 20.9194 8.52009 20.736C8.52009 20.5526 8.59161 20.3762 8.71982 20.2434L9.95641 19.0084C10.0909 18.8819 10.2696 18.8113 10.4554 18.8113C10.6412 18.8113 10.8199 18.8819 10.9544 19.0084ZM8.73428 9.72801C8.65786 9.59239 8.6283 9.43587 8.65006 9.28217C8.67183 9.12847 8.74374 8.98596 8.8549 8.87622C8.96607 8.76648 9.11043 8.69549 9.26613 8.674C9.42183 8.65251 9.58038 8.6817 9.71777 8.75714L10.9544 9.96359C11.0826 10.0964 11.1541 10.2727 11.1541 10.4562C11.1541 10.6396 11.0826 10.816 10.9544 10.9487C10.8883 11.0169 10.8085 11.0706 10.72 11.1063C10.6315 11.142 10.5364 11.1588 10.4409 11.1558C10.2537 11.1531 10.0749 11.0789 9.94194 10.9487L8.73428 9.72801ZM21.3677 20.2434C21.4959 20.3762 21.5675 20.5526 21.5675 20.736C21.5675 20.9194 21.4959 21.0958 21.3677 21.2286C21.3034 21.295 21.2258 21.3476 21.14 21.3832C21.0542 21.4188 20.9619 21.4367 20.8688 21.4356C20.6816 21.433 20.5027 21.3588 20.3698 21.2286L19.1187 20.0221C18.9826 19.8877 18.9061 19.7054 18.9061 19.5153C18.9061 19.3252 18.9826 19.1428 19.1187 19.0084C19.2549 18.874 19.4396 18.7985 19.6322 18.7985C19.8247 18.7985 20.0094 18.874 20.1456 19.0084L21.3677 20.2434Z" fill="#0E1521"/>
</svg>
