<svg width="30" height="30" viewBox="0 0 30 30" fill="none" xmlns="http://www.w3.org/2000/svg">
<circle cx="15" cy="15" r="15" fill="#98C0F5"/>
<path d="M18.2536 6.05185C18.1277 6.00008 17.9894 5.9867 17.8559 6.0134C17.7224 6.0401 17.5999 6.10569 17.5036 6.2019C17.4074 6.29822 17.3418 6.42085 17.3152 6.55435C17.2885 6.68785 17.3018 6.82626 17.3536 6.95218C17.92 8.30341 18.0999 9.78547 17.8734 11.233C17.6469 12.6806 17.0228 14.0368 16.0707 15.1502C15.1187 16.2637 13.8761 17.0906 12.4817 17.5389C11.0872 17.9871 9.59567 18.0389 8.17346 17.6886C7.76377 17.5905 7.36251 17.4601 6.97345 17.2985C6.8452 17.2457 6.70422 17.2319 6.56816 17.2588C6.4321 17.2857 6.307 17.3522 6.20853 17.4499C6.11006 17.5476 6.04258 17.6722 6.01455 17.8081C5.98652 17.944 5.99917 18.0851 6.05094 18.2138C6.7988 20.0403 8.10709 21.5821 9.78722 22.6169C11.4674 23.6517 13.4326 24.1261 15.3996 23.9717C17.3666 23.8173 19.2338 23.0421 20.732 21.7579C22.2303 20.4736 23.2822 18.7466 23.7362 16.8258C24.2614 14.6709 23.9971 12.399 22.9912 10.4222C21.9853 8.44554 20.3045 6.89498 18.2536 6.05185ZM22.3636 16.4957C22.0081 17.9897 21.2262 19.3481 20.113 20.4057C18.9999 21.4632 17.6035 22.1744 16.0937 22.4526C14.5839 22.7308 13.0259 22.5641 11.6091 21.9727C10.1923 21.3814 8.97783 20.3908 8.11346 19.1217C10.4899 19.6093 12.9628 19.1541 15.0101 17.8522C17.0574 16.5504 18.5189 14.5036 19.0861 12.1441C19.402 10.8269 19.4225 9.45614 19.1461 8.13011C20.4688 9.03212 21.4853 10.316 22.0601 11.8105C22.635 13.3051 22.7408 14.9394 22.3636 16.4957Z" fill="#31394D"/>
</svg>
