<svg width="18" height="18" viewBox="0 0 18 18" fill="none" xmlns="http://www.w3.org/2000/svg">
<path fill-rule="evenodd" clip-rule="evenodd" d="M16.3918 0.845703H9.52882C9.10767 0.845703 8.76627 1.18711 8.76627 1.60826C8.76627 2.0294 9.10767 2.37081 9.52882 2.37081L14.5508 2.37081L12.2634 4.65827C12.7075 4.92072 13.0793 5.29255 13.3418 5.7367L15.6292 3.44922L15.6292 8.47123C15.6292 8.89237 15.9706 9.23378 16.3918 9.23378C16.8129 9.23378 17.1543 8.89237 17.1543 8.47123L17.1543 1.60826C17.1543 1.18711 16.8129 0.845703 16.3918 0.845703ZM11.8046 7.27383V6.19489H10.7267L6.99609 9.92554V11.0034H8.07504L11.8046 7.27383Z" fill="white"/>
<path d="M5.47426 8.40415C5.17647 8.10636 4.69365 8.10636 4.39585 8.40415C4.09806 8.70195 4.09806 9.18477 4.39585 9.48257L5.47426 8.40415ZM6.45665 11.5434L6.99586 12.0826L8.07427 11.0042L7.53507 10.465L6.45665 11.5434ZM4.39585 9.48257L6.45665 11.5434L7.53507 10.465L5.47426 8.40415L4.39585 9.48257Z" fill="white"/>
<path d="M14.5517 13.2361V16.499H1.5V3.44727H4.76294" stroke="white" stroke-width="1.5251" stroke-linecap="round"/>
</svg>
