<svg width="19" height="19" viewBox="0 0 19 19" fill="none" xmlns="http://www.w3.org/2000/svg">
<path fill-rule="evenodd" clip-rule="evenodd" d="M17.9997 0H8.99974C8.44746 0 7.99974 0.447715 7.99974 1C7.99974 1.55228 8.44746 2 8.99974 2L15.5855 2L13.0661 4.51946C13.6573 4.85031 14.156 5.32691 14.5133 5.90063L16.9997 3.41421L16.9997 10C16.9997 10.5523 17.4475 11 17.9997 11C18.552 11 18.9997 10.5523 18.9997 10V1C18.9997 0.447715 18.552 0 17.9997 0ZM12.763 7.651V6.23574H11.3498L7.27344 10.3121V11.7253H8.68869L12.763 7.651Z" fill="#748AA1"/>
<path d="M5.62898 8.66594C5.23846 8.27542 4.60529 8.27542 4.21477 8.66594C3.82424 9.05646 3.82424 9.68963 4.21477 10.0802L5.62898 8.66594ZM6.56742 12.4328L7.27453 13.1399L8.68874 11.7257L7.98163 11.0186L6.56742 12.4328ZM4.21477 10.0802L6.56742 12.4328L7.98163 11.0186L5.62898 8.66594L4.21477 10.0802Z" fill="#748AA1"/>
<path d="M15.9001 14.2747V17.9997H1V3.09961H4.72503" stroke="#748AA1" stroke-width="2" stroke-linecap="round"/>
</svg>
