<?xml version="1.0" standalone="no"?>
<!DOCTYPE svg PUBLIC "-//W3C//DTD SVG 20010904//EN"
 "http://www.w3.org/TR/2001/REC-SVG-20010904/DTD/svg10.dtd">
<svg version="1.0" xmlns="http://www.w3.org/2000/svg"
 width="1056.000000pt" height="1056.000000pt" viewBox="0 0 1056.000000 1056.000000"
 preserveAspectRatio="xMidYMid meet">
<metadata>
Created by potrace 1.11, written by Peter Selinger 2001-2013
</metadata>
<g transform="translate(0.000000,1056.000000) scale(0.100000,-0.100000)"
fill="#000000" stroke="none">
<path d="M381 8149 c-66 -13 -166 -66 -214 -113 -56 -54 -107 -120 -107 -139
0 -8 -4 -17 -8 -19 -4 -1 -18 -37 -30 -78 l-21 -75 -1 -2662 0 -2663 405 0
405 0 0 58 c0 31 1 1046 1 2255 0 1208 3 2197 7 2197 4 0 18 -10 32 -22 14
-13 95 -79 180 -148 85 -68 162 -130 170 -137 8 -7 47 -37 85 -69 39 -31 81
-66 95 -77 39 -34 83 -69 120 -97 18 -14 42 -33 54 -44 11 -10 58 -48 104 -84
45 -36 82 -69 82 -74 0 -4 6 -8 13 -8 6 0 31 -18 55 -40 24 -22 46 -40 50 -40
4 0 26 -17 48 -39 23 -21 57 -49 75 -62 19 -13 41 -31 50 -39 20 -19 55 -48
99 -81 19 -15 45 -35 57 -45 32 -28 45 -39 218 -178 88 -71 165 -135 171 -142
6 -8 14 -14 18 -14 4 0 13 -6 21 -12 7 -7 30 -27 51 -44 22 -17 95 -77 164
-133 69 -57 138 -112 153 -124 16 -12 34 -27 40 -32 7 -6 37 -30 67 -55 30
-25 57 -47 60 -50 3 -3 28 -23 55 -44 28 -22 55 -44 60 -50 6 -6 18 -15 27
-21 14 -9 264 -211 327 -266 14 -12 41 -33 60 -47 19 -15 42 -34 51 -42 9 -8
31 -26 50 -40 18 -14 38 -30 44 -35 6 -6 46 -39 89 -74 l77 -64 0 -968 0 -969
394 0 c217 0 401 2 409 6 11 4 12 14 7 45 -4 22 -3 39 2 39 5 0 7 4 3 9 -3 5
-5 34 -5 63 0 29 0 62 0 73 -1 11 -1 27 -1 35 1 8 0 60 0 115 0 55 0 106 0
113 0 6 1 23 1 37 0 32 0 52 1 68 0 15 0 75 -1 102 -1 11 -1 27 -1 35 3 53 1
122 -3 128 -3 4 -1 14 4 22 4 7 5 23 0 35 -5 12 -5 27 -1 34 5 7 5 30 1 52 -4
21 -5 39 -1 39 7 0 5 104 -2 124 -3 7 -2 18 2 25 5 7 5 30 1 52 -4 21 -5 39
-1 39 3 0 5 24 3 52 -1 29 -2 74 -2 101 0 26 0 55 0 65 0 9 0 28 1 42 0 14 0
32 0 40 -1 8 -1 26 0 40 0 14 0 32 0 40 -2 18 0 58 3 85 1 11 -1 37 -5 57 -3
21 -4 40 -1 43 3 3 5 31 3 63 -1 31 -2 64 -2 72 10 311 -41 425 -268 605 -34
28 -68 55 -74 60 -7 6 -59 49 -117 95 -117 94 -132 107 -163 134 -12 10 -38
30 -57 45 -19 14 -40 31 -46 36 -6 6 -28 24 -49 40 -20 17 -42 35 -49 40 -6 6
-34 28 -61 50 -28 21 -52 42 -55 45 -3 3 -86 70 -185 150 -99 79 -232 187
-296 240 -64 52 -194 158 -289 235 -223 180 -471 381 -490 398 -8 7 -109 89
-225 182 -115 93 -237 192 -270 220 -34 27 -76 61 -94 75 -19 14 -47 36 -62
50 -16 14 -43 36 -61 50 -17 14 -48 40 -68 58 -21 17 -40 32 -44 32 -3 0 -14
8 -24 18 -24 22 -50 44 -142 117 -41 33 -82 68 -91 77 -9 10 -20 18 -25 18 -5
0 -17 8 -26 18 -25 25 -41 38 -153 127 -55 44 -102 82 -105 85 -3 3 -39 32
-80 65 -41 33 -84 67 -95 77 -11 9 -87 71 -169 137 -145 117 -213 159 -286
178 -46 13 -144 14 -199 2z"/>
<path d="M9925 8141 c-33 -10 -78 -27 -100 -38 -42 -22 -308 -221 -313 -235
-2 -4 -8 -8 -14 -8 -6 0 -27 -14 -47 -30 -20 -17 -40 -34 -46 -38 -198 -149
-381 -288 -385 -292 -3 -3 -32 -25 -65 -49 -33 -25 -65 -50 -70 -55 -6 -6 -18
-15 -27 -21 -26 -16 -449 -338 -470 -357 -10 -10 -21 -18 -24 -18 -3 0 -12 -6
-19 -12 -15 -14 -33 -27 -100 -78 -22 -16 -47 -35 -55 -42 -8 -7 -16 -12 -18
-10 -2 2 -9 -3 -15 -11 -7 -8 -88 -72 -182 -143 -93 -71 -174 -132 -180 -136
-21 -17 -83 -64 -109 -83 -50 -36 -171 -129 -176 -135 -3 -3 -21 -17 -40 -30
-19 -13 -37 -27 -40 -30 -3 -3 -21 -17 -40 -30 -19 -13 -37 -27 -40 -30 -3 -4
-32 -26 -64 -50 -33 -24 -67 -49 -75 -56 -9 -7 -43 -33 -76 -58 -33 -25 -64
-49 -70 -53 -5 -5 -26 -19 -45 -33 -19 -13 -37 -27 -40 -31 -3 -4 -37 -30 -75
-58 -39 -28 -81 -60 -95 -72 -14 -11 -68 -53 -120 -92 -52 -39 -96 -75 -98
-79 -2 -4 -10 -8 -17 -8 -8 0 -18 -6 -22 -13 -4 -8 -15 -18 -24 -23 -9 -5 -32
-21 -50 -37 -19 -15 -117 -90 -219 -167 -102 -77 -193 -147 -202 -154 -9 -8
-29 -23 -45 -33 -15 -9 -30 -20 -33 -24 -3 -4 -81 -64 -175 -134 -201 -151
-265 -215 -310 -305 -43 -89 -47 -108 -51 -223 -2 -54 -6 -102 -9 -107 -3 -5
-1 -11 4 -14 4 -3 5 -24 1 -46 -4 -22 -4 -40 0 -40 4 0 4 -18 0 -40 -4 -23 -3
-40 2 -40 5 0 6 -5 3 -10 -4 -6 -6 -45 -6 -88 1 -42 1 -86 1 -97 0 -77 1 -108
6 -116 3 -5 1 -9 -3 -9 -5 0 -6 -25 -3 -56 3 -30 3 -57 -1 -59 -3 -3 -3 -23 1
-45 4 -21 5 -42 2 -44 -4 -5 -6 -84 -2 -103 4 -21 0 -155 -5 -164 -4 -5 -2 -9
3 -9 5 0 6 -17 2 -40 -4 -22 -4 -40 0 -40 4 0 4 -18 0 -40 -4 -23 -3 -40 2
-40 5 0 6 -5 3 -10 -6 -9 -9 -297 -4 -325 1 -5 1 -13 0 -17 -4 -29 -3 -219 1
-223 3 -3 2 -22 -1 -43 -4 -20 -4 -52 0 -70 4 -18 3 -49 -1 -68 -4 -19 -4 -36
0 -39 4 -2 4 -23 0 -45 l-7 -40 436 2 436 3 0 968 c0 663 3 970 11 975 9 6
165 125 189 144 6 5 28 22 50 38 22 16 45 33 50 38 6 4 78 59 160 122 365 277
441 336 459 352 11 10 23 18 27 18 4 0 14 6 21 13 7 7 31 26 53 42 22 17 42
32 45 35 3 3 59 46 125 95 66 50 126 95 135 102 21 17 83 64 245 187 55 42
105 79 110 84 6 4 57 43 115 87 58 44 112 85 120 92 8 7 89 68 180 137 91 69
170 129 175 133 6 5 66 51 135 103 69 52 130 98 135 103 6 4 84 64 175 133 91
69 173 131 183 139 9 8 20 15 24 15 3 0 11 6 17 13 10 12 171 137 229 177 12
8 33 25 47 37 14 13 28 23 31 23 3 0 15 8 27 18 50 42 62 52 85 67 14 9 27 12
29 8 2 -4 4 -1019 3 -2255 l0 -2248 432 0 433 0 0 2663 c0 2564 -1 2664 -19
2723 -68 225 -260 372 -488 372 -37 0 -95 -8 -128 -17z"/>
</g>
</svg>
